<svg id="зел_copy_4" data-name="зел copy 4" xmlns="http://www.w3.org/2000/svg" width="44.875" height="45" viewBox="0 0 44.875 45">
  <defs>
    <style>
      .cls-1 {
        fill: #01a04c;
        stroke: #fff;
        stroke-width: 1.87px;
      }

      .cls-1, .cls-2 {
        fill-rule: evenodd;
      }

      .cls-2 {
        fill: #fff;
      }
    </style>
  </defs>
  <path class="cls-1" d="M374.766,193.96L365,203.727,355.271,194H355a12,12,0,0,1-12-12v-9a12,12,0,0,1,12-12h19a12,12,0,0,1,12,12v9A11.99,11.99,0,0,1,374.766,193.96Z" transform="translate(-342.063 -160.063)"/>
  <path class="cls-2" d="M363.51,174.531a0.8,0.8,0,0,0,.8-0.809V172.7a0.8,0.8,0,1,0-1.594,0v1.024A0.8,0.8,0,0,0,363.51,174.531Zm2.977,0a0.8,0.8,0,0,0,.8-0.809V172.7a0.8,0.8,0,1,0-1.594,0v1.024A0.8,0.8,0,0,0,366.487,174.531Zm-2.977,4.638a0.8,0.8,0,0,0,.8-0.809v-1.024a0.8,0.8,0,1,0-1.594,0v1.024A0.8,0.8,0,0,0,363.51,179.169Zm2.977,0a0.8,0.8,0,0,0,.8-0.809v-1.024a0.8,0.8,0,1,0-1.594,0v1.024A0.8,0.8,0,0,0,366.487,179.169Zm9.714,5.212h-1.833v-1.432a2.457,2.457,0,1,0-1.6,0v1.432h-2.79V168.808a0.8,0.8,0,0,0-.8-0.809h-8.373a0.8,0.8,0,0,0-.8.809v15.573h-2.71v-1.432a2.458,2.458,0,1,0-1.6,0v1.432H353.8a0.809,0.809,0,0,0,0,1.618H376.2A0.809,0.809,0,0,0,376.2,184.381Zm-19.694-2.914a0.875,0.875,0,1,1,.862-0.875A0.87,0.87,0,0,1,356.507,181.467Zm9.267,2.914H364.3v-1.493h1.472v1.493Zm2.613,0h-1.018v-2.3a0.8,0.8,0,0,0-.8-0.809h-3.067a0.8,0.8,0,0,0-.8.809v2.3h-1.1V169.617h6.777v14.764h0Zm5.183-2.914a0.875,0.875,0,1,1,.862-0.875A0.869,0.869,0,0,1,373.57,181.467Z" transform="translate(-342.063 -160.063)"/>
</svg>
