<svg xmlns="http://www.w3.org/2000/svg" width="44.875" height="45" viewBox="0 0 44.875 45">
  <defs>
    <style>
      .cls-1 {
        fill: #deb033;
        stroke: #fff;
        stroke-width: 1.87px;
      }

      .cls-1, .cls-2 {
        fill-rule: evenodd;
      }

      .cls-2 {
        fill: #fff;
      }
    </style>
  </defs>
  <path class="cls-1" d="M284.765,203.961L275,213.727,265.27,204H265a12,12,0,0,1-12-12v-9a12,12,0,0,1,12-12h19a12,12,0,0,1,12,12v9A11.991,11.991,0,0,1,284.765,203.961Z" transform="translate(-252.063 -170.063)"/>
  <path class="cls-2" d="M281.578,187.658a4.493,4.493,0,0,0-1.155,2.368,2.5,2.5,0,0,0-.991-0.2h-3.67v-1.21h2.357a3.185,3.185,0,0,0,2.292-.951,2.713,2.713,0,0,0,.76-2.22l-0.716-5.786a3,3,0,0,0-3.05-2.521h-4.811a3,3,0,0,0-3.052,2.521l-0.716,5.786a2.717,2.717,0,0,0,.76,2.22,3.18,3.18,0,0,0,2.291.951h2.358v1.21h-3.67a2.5,2.5,0,0,0-.99.2,4.5,4.5,0,0,0-1.156-2.368,3.176,3.176,0,0,0-2.29-.9v1.416a1.566,1.566,0,0,1,1.173.448c0.868,0.857.943,2.74,0.9,3.392h0v0.1a2.282,2.282,0,0,0,2.361,2.188h3.67v1.869a3.756,3.756,0,0,0-2.755,2.1l1.41,0.548a2.22,2.22,0,0,1,1.345-1.182v1.2h1.527v-1.2a2.229,2.229,0,0,1,1.347,1.182l1.407-.548a3.751,3.751,0,0,0-2.754-2.1V194.3h3.67a2.282,2.282,0,0,0,2.361-2.188v-0.1h0c-0.043-.652.031-2.535,0.9-3.392a1.563,1.563,0,0,1,1.173-.448V186.76A3.178,3.178,0,0,0,281.578,187.658Zm-9.7-.46a1.579,1.579,0,0,1-1.152-.479,1.344,1.344,0,0,1-.381-1.115l0.716-5.786a1.506,1.506,0,0,1,1.534-1.268H277.4a1.508,1.508,0,0,1,1.533,1.268l0.715,5.786a1.344,1.344,0,0,1-.381,1.115,1.579,1.579,0,0,1-1.152.479h-6.243Zm8.389,4.915a0.806,0.806,0,0,1-.834.773h-8.867a0.805,0.805,0,0,1-.833-0.773v-0.1a0.8,0.8,0,0,1,.833-0.772h8.867a0.805,0.805,0,0,1,.834.772v0.1h0Z" transform="translate(-252.063 -170.063)"/>
</svg>
