<svg id="Group_20_copy" data-name="Group 20 copy" xmlns="http://www.w3.org/2000/svg" width="44.875" height="45" viewBox="0 0 44.875 45">
  <defs>
    <style>
      .cls-1 {
        fill: #1c5699;
        stroke-width: 1.87px;
      }

      .cls-1, .cls-2 {
        stroke: #fff;
        fill-rule: evenodd;
      }

      .cls-2 {
        fill: #fff;
        stroke-width: 0.37px;
      }
    </style>
  </defs>
  <path class="cls-1" d="M213.765,272.96L204,282.727,194.27,273H194a12,12,0,0,1-12-12v-9a12,12,0,0,1,12-12h19a12,12,0,0,1,12,12v9A11.989,11.989,0,0,1,213.765,272.96Z" transform="translate(-181.063 -239.063)"/>
  <path id="Forma_1" data-name="Forma 1" class="cls-2" d="M189,263h30v1H189v-1Zm8.408-12.734h-0.913m-2.741,0h-1.405a0.456,0.456,0,0,0-.427.285l-0.87,2.214a0.433,0.433,0,0,0,.05.41,0.461,0.461,0,0,0,.355.192v9.744a0.445,0.445,0,1,0,0,.889h25.087a0.444,0.444,0,1,0,.014-0.888v-5.3a0.459,0.459,0,0,0,.354-0.191,0.435,0.435,0,0,0,.051-0.411L216.09,255a0.454,0.454,0,0,0-.426-0.286h-6.443V245.84a0.45,0.45,0,0,0-.456-0.445h-5.919a0.451,0.451,0,0,0-.458.445v4.425h-2.242m-0.913-.018H198.32m-2.741,0h-0.914M215.35,255.6l0.52,1.325h-6.649V255.6h6.129ZM203.3,246.284h5.006V263.11H203.3V246.284h0Zm-4.547,7.074V256H196v-2.639h2.754Zm3.633,0V256h-2.72v-2.639h2.72Zm0,6.208h-2.72v-2.68h2.72v2.68Zm-7.3-3.569h-2.719v-2.631a0.417,0.417,0,0,0,.071-0.008h2.648V256Zm-2.719.889h2.719v2.68h-2.719v-2.68Zm3.633,0h2.754v2.68H196v-2.68h0Zm2.754,3.569v2.655H196v-2.655h2.754Zm0.913,0h2.72v2.655h-2.72v-2.655Zm-7.007-9.3h9.727v1.316H199.3a0.491,0.491,0,0,0-.086-0.008,0.482,0.482,0,0,0-.086.008h-3.5a0.489,0.489,0,0,0-.085-0.008,0.5,0.5,0,0,0-.087.008h-3.314Zm-0.293,9.3h2.719v2.655h-2.719v-2.655ZM213.8,263.11h-2.749V260.9H213.8v2.206Zm0.914,0v-2.65a0.452,0.452,0,0,0-.457-0.445H210.6a0.451,0.451,0,0,0-.456.445v2.65h-0.851v-5.292h6.355v5.292h-0.928Zm-9.55-13.736a0.45,0.45,0,0,0,.457-0.444v-0.875a0.457,0.457,0,0,0-.913,0v0.875A0.45,0.45,0,0,0,205.166,249.374Zm1.344,0a0.451,0.451,0,0,0,.457-0.444v-0.875a0.457,0.457,0,0,0-.913,0v0.875A0.45,0.45,0,0,0,206.51,249.374Zm-1.344,3.138a0.45,0.45,0,0,0,.457-0.444v-0.875a0.457,0.457,0,0,0-.913,0v0.875A0.45,0.45,0,0,0,205.166,252.512Zm1.344,0a0.45,0.45,0,0,0,.457-0.444v-0.875a0.457,0.457,0,0,0-.913,0v0.875A0.45,0.45,0,0,0,206.51,252.512Zm-1.344,3.091a0.45,0.45,0,0,0,.457-0.444v-0.875a0.457,0.457,0,0,0-.913,0v0.875A0.45,0.45,0,0,0,205.166,255.6Zm1.344,0a0.45,0.45,0,0,0,.457-0.444v-0.875a0.457,0.457,0,0,0-.913,0v0.875A0.45,0.45,0,0,0,206.51,255.6Zm-1.344,3.138a0.45,0.45,0,0,0,.457-0.444v-0.875a0.457,0.457,0,0,0-.913,0V258.3A0.45,0.45,0,0,0,205.166,258.741Zm1.344,0a0.45,0.45,0,0,0,.457-0.444v-0.875a0.457,0.457,0,0,0-.913,0V258.3A0.45,0.45,0,0,0,206.51,258.741Zm-1.344,3.093a0.45,0.45,0,0,0,.457-0.444v-0.875a0.457,0.457,0,0,0-.913,0v0.875A0.45,0.45,0,0,0,205.166,261.834Zm1.344,0a0.451,0.451,0,0,0,.457-0.444v-0.875a0.457,0.457,0,0,0-.913,0v0.875A0.45,0.45,0,0,0,206.51,261.834Z" transform="translate(-181.063 -239.063)"/>
</svg>
