<svg xmlns="http://www.w3.org/2000/svg" viewBox="0 0 106.97 84">
  <defs>
    <style>
      .cls-1 {
        fill: #155196;
        fill-rule: evenodd;
      }
    </style>
  </defs>
  <path class="cls-1" d="M1443.48,845.013a4.57,4.57,0,0,0,.74.058c2.63,0,6.57-1.889,9.47-6.11,4.07-5.967,5.17-17.827.61-22.648-2.5-2.669-6-3-9.74-.829a16.181,16.181,0,0,0-7.62,10.467c-2.1,8.156.04,13.075,1.51,15.281A8.3,8.3,0,0,0,1443.48,845.013Zm9.76-8.752a1.385,1.385,0,0,1-1.41-1.358,1.4,1.4,0,0,1,1.41-1.387A1.373,1.373,0,1,1,1453.24,836.261Zm1.38-3.9a1.386,1.386,0,0,1-1.38-1.387,1.387,1.387,0,0,1,2.7-.446c-0.08.455-.17,0.909-0.27,1.357A1.407,1.407,0,0,1,1454.62,832.359Zm1.68-4.836a1.391,1.391,0,0,1-1.27.79,1.371,1.371,0,0,1-1.41-1.359,1.406,1.406,0,0,1,2.72-.481C1456.33,826.822,1456.33,827.171,1456.3,827.523Zm-1.98-9.413a1.384,1.384,0,0,1-1.37,1.387,1.4,1.4,0,0,1-1.41-1.387,1.371,1.371,0,0,1,1.41-1.359,1.334,1.334,0,0,1,.81.3,4.953,4.953,0,0,1,.46.575A1.325,1.325,0,0,1,1454.32,818.11Zm-16.53,8.054a15.414,15.414,0,0,1,7.22-9.936,8.625,8.625,0,0,1,4.29-1.324,5.59,5.59,0,0,1,3.56,1.277,1.935,1.935,0,0,1-3.32-.124,1.966,1.966,0,0,0-1.96,1.966,1.725,1.725,0,0,0,.03.323,1.973,1.973,0,1,0-1.44,3.29,1.964,1.964,0,0,0,1.99-1.937,1.628,1.628,0,0,0-.03-0.313,1.967,1.967,0,0,0,1.41.6,2,2,0,0,1,3.41.087,1.973,1.973,0,0,0,1.89-1.461,15.682,15.682,0,0,1,1.51,6.88,1.981,1.981,0,0,0-1.32-.507c-0.04,0-.08.01-0.12,0.012a1.929,1.929,0,0,0,1.2-1.774,1.979,1.979,0,0,0-1.99-1.966,1.977,1.977,0,0,1-3.29-1.359,1.951,1.951,0,0,0-1.96,1.937,1.91,1.91,0,0,0,.14.718,3.9,3.9,0,0,0-3.07.54,7.207,7.207,0,0,0-3.39,4.605c-0.11.434-.19,0.847-0.25,1.241a1.941,1.941,0,1,0-.1,2.072,6.883,6.883,0,0,0,1.04,3.373,3.926,3.926,0,0,0,2.43,1.808c0.04,0,.08,0,0.11.009a1.925,1.925,0,0,0-.9,1.619,1.981,1.981,0,1,0,2.47-1.871,6.477,6.477,0,0,0,3.03-2.491c1.73-2.494,2.22-7.387.44-9.658h0.01a2,2,0,0,0,1.33-.509,1.954,1.954,0,0,0,1.96,1.868c0.04,0,.08-0.01.12-0.013a1.956,1.956,0,1,0,1.98,3.345c-0.04.384-.09,0.767-0.14,1.149a2,2,0,0,0-1.46-.638,1.966,1.966,0,1,0,0,3.931,2,2,0,0,0,.82-0.18c-0.12.46-.26,0.911-0.41,1.353a1.955,1.955,0,0,0-1.79-1.173,1.952,1.952,0,1,0,.74,3.758,15.508,15.508,0,0,1-1.02,1.781c-0.04.056-.08,0.109-0.12,0.165a2.064,2.064,0,0,0,.08-0.5,1.983,1.983,0,1,0-.98,1.664c-2.83,3.323-6.34,4.678-8.31,4.352a7.282,7.282,0,0,1-4.44-3.4C1437.8,838.669,1435.77,834,1437.79,826.164Zm11.75-6.754a1.387,1.387,0,0,1,0-2.774A1.387,1.387,0,1,1,1449.54,819.41Zm-1.96.289a1.41,1.41,0,1,1-1.41-1.387A1.392,1.392,0,0,1,1447.58,819.7Zm-0.71,16.765a1.373,1.373,0,1,1,0,2.746,1.406,1.406,0,0,1-1.41-1.387A1.391,1.391,0,0,1,1446.87,836.464Zm-0.83-1.686a0.879,0.879,0,0,1-.13-0.009,2.574,2.574,0,0,1-1.44-1.17c-0.51-.785-1.27-2.549-0.5-5.536a5.841,5.841,0,0,1,2.73-3.728,2.8,2.8,0,0,1,1.43-.466,1.88,1.88,0,0,1,1.4.661c1.52,1.586,1.07,6.059-.37,8.125A4.364,4.364,0,0,1,1446.04,834.778Zm3.41-12.94a1.4,1.4,0,0,1,2.79,0A1.4,1.4,0,0,1,1449.45,821.838Zm4.67,0a1.4,1.4,0,0,1,1.41,1.387,1.4,1.4,0,0,1-2.79,0A1.386,1.386,0,0,1,1454.12,821.839Zm-12.15,8.063a1.39,1.39,0,0,1-2.78,0,1.4,1.4,0,0,1,1.4-1.387A1.365,1.365,0,0,1,1441.97,829.9Zm10.36,8.239a1.372,1.372,0,0,1-1.38,1.358,1.373,1.373,0,1,1,0-2.746A1.371,1.371,0,0,1,1452.33,838.141Zm25.44-13.337a7.042,7.042,0,0,0,3.8,2.063,7.8,7.8,0,0,0,1.84.253h0a2.322,2.322,0,0,0,1.92-.64l0.14-.181-1.02-5.184-0.16-.117c-1.28-.928-6.33-2.2-7-2.2l-0.29.009-0.31.366,1,5.529Zm5.75-3.094,0.84,4.241a4.831,4.831,0,0,1-2.54-.064,6.808,6.808,0,0,1-3.17-1.618l-0.79-4.357A28.079,28.079,0,0,1,1483.52,821.71Zm51.79,34.658a13,13,0,0,0-9.41-4.657,28.146,28.146,0,0,0-2.16-5.094,9.565,9.565,0,0,0-1.4-1.407l-2.43-4.528-0.53-.2a5.176,5.176,0,0,0-2.67-3.069,4.377,4.377,0,0,0-1.69-.3,9.861,9.861,0,0,0-3.1.6l-1.32-.49-2.62-5.606-0.33-.775c1.45,0.639,2.89,1.312,4.24,1.942,3.68,1.727,6.59,3.09,8.13,3.09h0a2.4,2.4,0,0,0,2.33-1.892c0.18-1.624-1.58-3.592-4.69-5.26-4.04-2.2-24.07-11.769-33.33-15.189-0.82-.307-1.78-0.664-2.84-1.05l0.06-.849-0.18-.166a10.355,10.355,0,0,0-4.52-2c-1.45-.329-2.33-0.191-2.72.407v0.013c-5.43-1.861-11.69-3.878-17.09-5.335l-1.18-.323c-4.37-1.189-8.14-2.216-11.33-2.216a10.1,10.1,0,0,0-5.82,1.629c-5.04,3.427-1.55,11.61-.81,13.2a29.093,29.093,0,0,0-4.63,19.814c0.87,6.11,3.95,9.852,7.07,11.286l-0.06.242,0.61,0.229c0.7,0.27,17.31,6.607,25.41,7.445,1.68,0.181,3.92.458,6.47,0.773,7.25,0.9,17.18,2.127,22.66,2.127h0a10.023,10.023,0,0,0,4.03-.519,32.393,32.393,0,0,0,6.12-4.481c0.14,0.708.34,1.674,0.57,2.774l-0.06.053c0.03,0.027.06,0.061,0.09,0.09,0,0.021.01,0.041,0.01,0.062-2.33,1.553-4.98,5.572-5.63,10.035-0.72,4.988.17,11.276,3.8,14.083l0.86,0.644,0.31-1.011a0.716,0.716,0,0,1,.45.144,3.424,3.424,0,0,1,1.16,2.186l0.04,0.3,0.25,0.179c0.07,0.059,2.01,1.441,6.96,2.3a27.311,27.311,0,0,0,4.64.4c8.09,0,16.46-3.631,19.8-12.507l0.09-.249-0.09-.248a4.419,4.419,0,0,1-.22-2.261l1.06,1.3,0.22-1.672A18.388,18.388,0,0,0,1535.31,856.368Zm-1.3.747a11.116,11.116,0,0,1-1.33.605,1.147,1.147,0,0,0,.21-0.647,1.468,1.468,0,0,0-2.91,0,1.176,1.176,0,0,0,.2.632,1.211,1.211,0,0,1-.29-0.517,1.818,1.818,0,0,1,1.49-2.3A13.637,13.637,0,0,1,1534.01,857.115Zm-3.69-2.836a3.925,3.925,0,0,0-1.31,1,2.523,2.523,0,0,0-.58,1.338l-0.77-2.53-0.62-.176-0.04-.42-0.46.048c-0.04-.107-0.08-0.223-0.12-0.346A10.34,10.34,0,0,1,1530.32,854.279Zm-20.06,1.178c-0.19-2.4-.48-6.021,2.94-7.523,2.95-1.289,5.57-1.6,7.4-.886a3.593,3.593,0,0,1,2.1,2.009c1.21,2.822,2.05,5.513,2.06,5.54l0.18,0.57,0.88-.1,0.24,0.068c-0.1,1.307-.88,5.34-6.39,7.565a10.359,10.359,0,0,1-11.03-1.644c-0.23-1.01-.45-2.02-0.66-2.977a2.313,2.313,0,0,0,1.02.3c0.04,0,.09,0,0.13-0.006a1.266,1.266,0,0,0,.96-0.585A3.9,3.9,0,0,0,1510.26,855.457Zm5.15,9.552a12.925,12.925,0,0,0,4.82-.967c4.45-1.8,6.19-4.649,6.88-6.744l2.01,6.626a7.653,7.653,0,0,1-1.51,5.437c-1.65,2.44-4.85,3.9-8.55,3.9a16.661,16.661,0,0,1-4.34-.607c-4.61-1.28-5.06-4.735-5.55-8.394-0.04-.369-0.1-0.744-0.15-1.119A11.975,11.975,0,0,0,1515.41,865.009Zm0.73-26.259a2.851,2.851,0,0,1,1.19.975l-2.99-1.115A3.876,3.876,0,0,1,1516.14,838.75ZM1475.52,810.3a5.165,5.165,0,0,1,1.1.15,10.419,10.419,0,0,1,3.87,1.613l-0.01.053c-1.54-.556-3.27-1.17-5.11-1.807A1.437,1.437,0,0,1,1475.52,810.3Zm-20.05-4.681,1.18,0.323c9.44,2.547,21.51,6.817,27.16,8.94,8.6,3.177,28.68,12.673,33.15,15.1,3.01,1.619,4,3.184,3.93,3.841-0.01.1-.04,0.386-0.71,0.584a0.652,0.652,0,0,1-.16.015c-1.21,0-4.27-1.433-7.5-2.95-2.83-1.329-5.89-2.757-8.66-3.719-0.11-.045-0.21-0.089-0.32-0.133a23.982,23.982,0,0,0-2.98-.784q-0.135-.025-0.27-0.048a11.3,11.3,0,0,0-1.31-.156c-0.28-.014-0.54-0.021-0.79-0.021h-0.01q-0.36,0-.69.02c-0.05,0-.09.008-0.14,0.012-0.16.011-.31,0.024-0.46,0.042-0.11.012-.2,0.029-0.3,0.045-0.08.012-.16,0.023-0.24,0.038-0.13.025-.25,0.055-0.38,0.085l-0.09.023c-0.14.039-.28,0.081-0.41,0.127h0a4.481,4.481,0,0,0-2.56,2.372,3.148,3.148,0,0,1-1.76,1.72,1.689,1.689,0,0,1-.57.075c-4.18,0-16.95-6.833-21.35-11.422-0.34-.365-0.71-0.769-1.11-1.2-0.15-.173-0.33-0.37-0.49-0.552-0.26-.286-0.51-0.562-0.78-0.866a81.215,81.215,0,0,0-8.95-8.978,26.156,26.156,0,0,0-5.32-3.313C1453.51,805.089,1454.47,805.351,1455.47,805.621Zm-17.02,4.74a5.052,5.052,0,0,1,1.03-4.16c1.27-1.413,3.71-2.069,6.62-1.766a22.1,22.1,0,0,1,10.86,4.837c0.91,0.738,1.79,1.526,2.64,2.334-3.77-.771-6.87-1.313-6.91-1.318l-0.11-.012a8.362,8.362,0,0,0-3.22-.65,10.242,10.242,0,0,0-4.48,1.1,17.29,17.29,0,0,0-5.15,3.881A15.433,15.433,0,0,1,1438.45,810.361Zm-3.73,26.091c-1.25-8.854,2.45-20.412,10.8-24.429a8.856,8.856,0,0,1,3.84-.952,6.914,6.914,0,0,1,2.85.619l0.05,0.024a6.478,6.478,0,0,1,.65.339c0.02,0.012.04,0.021,0.06,0.033a6.966,6.966,0,0,1,.59.388l0.11,0.071c0.21,0.156.42,0.326,0.62,0.507,0.02,0.012.03,0.023,0.05,0.035,0.22,0.2.44,0.407,0.65,0.632,5.24,5.513,3.94,19.867-.89,26.966-3.28,4.8-7.59,6.509-10.52,6.509a6.7,6.7,0,0,1-1.24-.111l-0.02,0a4.012,4.012,0,0,1-.83-0.241l-0.55-.227C1438.27,845.361,1435.51,841.964,1434.72,836.452Zm10.66,12.013c0.34-.062.69-0.141,1.05-0.24l0.18-.053c0.36-.106.72-0.226,1.09-0.37,0.02-.009.05-0.016,0.07-0.024,0.38-.15.76-0.328,1.14-0.521,0.08-.037.15-0.073,0.22-0.112a12.972,12.972,0,0,0,1.13-.657c0.07-.044.14-0.091,0.21-0.136,0.38-.253.76-0.525,1.14-0.827,0.01-.011.03-0.019,0.04-0.03,0.38-.308.76-0.648,1.13-1.008,0.07-.068.15-0.135,0.22-0.2,0.36-.359.71-0.744,1.06-1.156,0.07-.077.13-0.157,0.2-0.236,0.36-.44.71-0.9,1.05-1.4a28,28,0,0,0,4.04-10.824c1.16-6.8.34-14.119-3.29-17.937h0c-0.14-.149-0.29-0.294-0.43-0.432,1.62,0.309,3.71.72,5.86,1.182,1.58,1.614,3.02,3.233,4.31,4.667,0.25,0.28.48,0.534,0.72,0.8,0.17,0.194.35,0.4,0.52,0.584,0.4,0.438.77,0.846,1.12,1.217,0.23,0.233.49,0.473,0.74,0.714l-4.62-2.075a0.515,0.515,0,0,0-.68.25,0.5,0.5,0,0,0,.25.67l8.18,3.667c0.26,0.187.52,0.376,0.79,0.565l0.35,1.521v3.259l-9.91-.41a0.5,0.5,0,0,0-.52.4,0.507,0.507,0,0,0,.3.577l9.78,4.037c-0.08.417-.27,1.309-0.72,3.148a19.714,19.714,0,0,1-1.51,4.2l-10.18-1.453a0.522,0.522,0,0,0-.57.361,0.512,0.512,0,0,0,.29.6l8.95,3.852c-0.47.61-1.43,1.789-3.05,3.556a11.569,11.569,0,0,1-3.33,2.841l-10.02-2.9a0.516,0.516,0,0,0-.64.342,0.508,0.508,0,0,0,.35.628l10.18,2.948a0.485,0.485,0,0,0,.14.021,0.611,0.611,0,0,0,.12-0.012c0.13-.031,1.4-0.377,3.96-3.189a43.79,43.79,0,0,0,3.51-4.161,0.492,0.492,0,0,0,.06-0.425,0.487,0.487,0,0,0-.28-0.322l-6.05-2.6,6.77,0.965a0.486,0.486,0,0,0,.5-0.23,17.391,17.391,0,0,0,1.8-4.777c0.51-2.094.81-3.444,0.81-3.7a0.514,0.514,0,0,0-.32-0.468l-7.51-3.1,7.58,0.315a0.494,0.494,0,0,0,.38-0.14,0.507,0.507,0,0,0,.16-0.365V826a0.421,0.421,0,0,0-.01-0.112l-0.12-.525a70.483,70.483,0,0,0,7.02,4.006c0.28,1.193,1.26,6.974-3.53,15.016-3.51,5.856-7.58,9.251-11.85,9.935-5.69-.775-15.13-3.949-20.42-5.836C1445.32,848.48,1445.35,848.47,1445.38,848.465Zm50.05,8.844h0c-5.39,0-15.27-1.223-22.48-2.117-1.7-.209-3.24-0.4-4.59-0.559,3.65-1.438,7.08-4.726,10.08-9.733,4.34-7.28,4.14-12.754,3.8-14.98,3.42,1.611,6.55,2.7,8.34,2.7a3.214,3.214,0,0,0,1.08-.162,4.541,4.541,0,0,0,2.53-2.369c0.61-1.071,1.14-1.938,3.55-2.023q0.525-.018,1.17.013h0a9.9,9.9,0,0,1,1.25.155c0.05,0.01.11,0.02,0.16,0.031a22.143,22.143,0,0,1,3.05.855,25.277,25.277,0,0,1,2.47,1.224l0.8,1.853,1.58,3.371c0.23,7.28-.46,14.379-9.03,21.162-0.14.075-.27,0.15-0.41,0.218A8.759,8.759,0,0,1,1495.43,857.309Zm10.1-5.492c-0.01.009-.25,0.241-0.65,0.608,3.58-4.8,4.36-9.753,4.4-14.586l0.24,0.526,0.44,0.162-0.17.074,9.11,3.292,2.01,3.74c-2.18-.754-5.11-0.419-8.3.981-4.37,1.917-4.01,6.5-3.81,8.956,0.04,0.487.08,1.076,0.07,1.339a4.841,4.841,0,0,1-1.34-.961c-0.46-2.173-.76-3.727-0.77-3.753l-0.26-1.325Zm-1.31,14.592a1.5,1.5,0,0,0,.22-0.02,10.138,10.138,0,0,1-2.46.862,2.621,2.621,0,0,1,.04-0.278,14.59,14.59,0,0,1,.8-3.046,2.433,2.433,0,0,1,2,.055,1.6,1.6,0,0,0-.6-0.117A1.284,1.284,0,1,0,1504.22,866.409Zm34.04,2.726a1.375,1.375,0,0,0-1.03,1.078,5.522,5.522,0,0,0,.13,3c-3.77,9.63-14.09,12.45-22.71,10.955a19.375,19.375,0,0,1-6.13-1.9,4.348,4.348,0,0,0-1.83-2.909,2,2,0,0,0-1.72-.214,1.747,1.747,0,0,0-.22.113c-2.3-2.277-3.42-7.023-2.77-11.963a6.735,6.735,0,0,0,3-1.081,1.361,1.361,0,0,0,.48-0.411,2.89,2.89,0,0,0,.7-1.187c0.56-1.864-1.59-2.051-2.78-2.018a13.377,13.377,0,0,1,3.14-4.305c0.23,1.033.47,2.128,0.72,3.22,0.21,0.925.34,1.9,0.48,2.93,0.5,3.778,1.07,8.059,6.61,9.6a18.058,18.058,0,0,0,4.73.661c4.2,0,7.85-1.7,9.77-4.535a8.948,8.948,0,0,0,1.71-6.6l-1.81-5.973a2.086,2.086,0,0,0,.63.545,3.663,3.663,0,0,0,4.8-.87c0.02,0.016.03,0.032,0.05,0.048a17.171,17.171,0,0,1,4.32,11.795A1.34,1.34,0,0,0,1538.26,869.135Zm-11.27,13.4a13.885,13.885,0,0,0-1.53-2.63c-0.64-.752-1.52-1.04-2.84-0.087-1.32.926-.59,4.22-0.59,4.22a13.435,13.435,0,0,1-.94-4.133c-0.09-2.168,2.29-2.833,3.82-1.966C1526.43,878.78,1526.99,882.537,1526.99,882.537Zm-1.53-1.56a1.467,1.467,0,0,1-1.55,1.358,1.375,1.375,0,1,1,0-2.717A1.467,1.467,0,0,1,1525.46,880.977Zm-83.37-39.426a1.987,1.987,0,0,0,2,1.966A1.952,1.952,0,1,0,1442.09,841.551Zm2-1.358a1.373,1.373,0,0,1,0,2.745A1.373,1.373,0,1,1,1444.09,840.193Zm-2.32,0a1.966,1.966,0,1,0-1.97-1.966A1.979,1.979,0,0,0,1441.77,840.193Zm0-3.353a1.387,1.387,0,1,1,0,2.774A1.387,1.387,0,0,1,1441.77,836.84Zm0.61-2.833a2,2,0,1,0-1.99,1.965A1.979,1.979,0,0,0,1442.38,834.007Zm-3.4,0a1.41,1.41,0,1,1,1.41,1.387A1.4,1.4,0,0,1,1438.98,834.007Zm2.11-6.185a1.952,1.952,0,1,0-1.99-1.966A1.968,1.968,0,0,0,1441.09,827.822Zm0-3.324a1.373,1.373,0,1,1,0,2.745A1.373,1.373,0,1,1,1441.09,824.5Zm2.09,0a1.966,1.966,0,1,0-2-1.966A1.979,1.979,0,0,0,1443.18,824.5Zm0-3.353a1.387,1.387,0,1,1-1.41,1.387A1.4,1.4,0,0,1,1443.18,821.145Z" transform="translate(-1433.03 -802)"/>
</svg>
