<svg xmlns="http://www.w3.org/2000/svg" width="83.03" height="112" viewBox="0 0 83.03 112">
  <defs>
    <style>
      .cls-1 {
        fill: #1c5699;
        fill-rule: evenodd;
      }
    </style>
  </defs>
  <path class="cls-1" d="M1275.58,846.844l40.58,4.238a2.927,2.927,0,0,0,.31.017,2.225,2.225,0,0,0,2.32-2.171v-13.81a2.666,2.666,0,0,0-2.47-2.53l-41.37-3.626a2.581,2.581,0,0,0-2.09.731,1.97,1.97,0,0,0-.54,1.473l0.78,13.172A2.771,2.771,0,0,0,1275.58,846.844Zm-1.54-16.056a0.932,0.932,0,0,1,.67-0.236l41.47,3.63a1.07,1.07,0,0,1,.99.936v13.81a0.633,0.633,0,0,1-.7.571,0.944,0.944,0,0,1-.13-0.007l-40.59-4.238a1.171,1.171,0,0,1-1.03-1.012l-0.78-13.174A0.333,0.333,0,0,1,1274.04,830.788Zm3.05,14.205,37.29,3.865a2.194,2.194,0,0,0,.28.018,1.538,1.538,0,0,0,1.69-1.415V836.4a1.955,1.955,0,0,0-1.9-1.745l-38.03-3.385a1.953,1.953,0,0,0-1.62.53,1.145,1.145,0,0,0-.33.917l0.7,10.561A2.021,2.021,0,0,0,1277.09,844.993Zm-1.8-12.743a1.256,1.256,0,0,1,.91-0.326c0.05,0,.11,0,0.16.007l38.04,3.385a1.3,1.3,0,0,1,1.27,1.081v11.064a0.886,0.886,0,0,1-1.01.748,1.763,1.763,0,0,1-.21-0.013l-37.3-3.866a1.373,1.373,0,0,1-1.31-1.1l-0.7-10.561A0.547,0.547,0,0,1,1275.29,832.25Zm23.35-5.8,17.43,1.36c0.05,0,.1,0,0.15,0a2.2,2.2,0,0,0,2.15-1.814l0.62-3.7a1.864,1.864,0,0,0-.36-1.5,1.9,1.9,0,0,0-1.4-.717l-17.41-.987a2.205,2.205,0,0,0-2.3,1.8l-0.62,3.336a1.852,1.852,0,0,0,.36,1.494A1.966,1.966,0,0,0,1298.64,826.452Zm0.21-5.32a0.877,0.877,0,0,1,.88-0.7h0.01l17.41,0.986a0.539,0.539,0,0,1,.52.666l-0.63,3.717a0.867,0.867,0,0,1-.82.687l-17.47-1.361a0.581,0.581,0,0,1-.42-0.215,0.519,0.519,0,0,1-.1-0.439Zm47.24,35.717a47.935,47.935,0,0,1-1.63-12.747,29.266,29.266,0,0,0-.34-4.922c-0.88-4.836-2.16-7.844-3.42-8.046-2.29-.377-3.93.276-4.86,1.931-3,5.341,2.16,19.61,3.98,22.5,2.38,3.816,5.35,8.562,3.53,14.722-2.57,8.688-5.39,13.947-8.62,16.077-3.78,2.491-8.45,5.193-9.16,5.6a0.97,0.97,0,0,0-.72-0.416,36.557,36.557,0,0,0-4.82,1.609,10.43,10.43,0,0,0,.96-2.7l5.76-42.752,1.28-1.192a4.229,4.229,0,0,0,3.07-2.536c1.11-2.281-1.58-5.564-2.59-6.676a16.8,16.8,0,0,1,.33-4.958,12.11,12.11,0,0,0,1.88-3.733l0.12-.367-0.17-.318c1.27,0.053,1.71-.483,1.87-0.95l0.52-1.466,0.03-.115c0.15-.735-5.39-11-6.18-12.431l0.06-.054-0.08-.076a34.332,34.332,0,0,0,.85-4.92,17.807,17.807,0,0,0-.38-6.235l0.75-3.053-1.67-3.659,0.91-1.2-0.24-.446a9.8,9.8,0,0,0-2.9-3.486c-0.58-.611-2.08-1.166-4.25-1.261l-0.06,0a0.086,0.086,0,0,0,.02-0.045l0.8-1.22-29.6-.279a1.483,1.483,0,0,0-.28-0.026c-0.62,0-1.48.363-2.61,1.587a0.661,0.661,0,0,0-.54-0.282c-2.32,0-3.3,1.2-4.66,3.177-2.62,3.893-3.9,9.874-3.49,16.125l-4.91-.345a0.665,0.665,0,0,0-.69.483l-1.94,6.8-0.33,0-2.62,10.128,0.89,22.893L1264,885.416l-0.01.128c-0.07,4,2.11,6.817,6.47,8.383l39.95,5.061,0.1,0.012,0.1-.008a13.976,13.976,0,0,0,2.49-.431,5.8,5.8,0,0,0,.93-0.088,22.082,22.082,0,0,0,5.76-2.352l0.08-.245,0.77-.307-0.14-.32,4.02-1.1,0.77,0.085a3.833,3.833,0,0,0,1.97.487,6.725,6.725,0,0,0,2.79-.684c0.44-.205.89-0.4,1.36-0.593,2.93-1.23,6.58-2.762,10.33-9.684C1346.63,874.781,1348.22,864.971,1346.09,856.849Zm-1.45,15.168c-0.02.079-2.23,7.946-4.28,11.388a30.519,30.519,0,0,1-6.58,6.9,5.3,5.3,0,0,1-2.59.96,1.306,1.306,0,0,1,.47-1.565,16.576,16.576,0,0,1,2.51-1.773,7.889,7.889,0,0,0,1.39-.958,3.374,3.374,0,0,1,.59-0.528,11.736,11.736,0,0,0,2.73-2.942,34.72,34.72,0,0,0,2.3-4.7c0.46-1.048.94-2.145,1.45-3.224,3.28-6.824,2.36-12.678,1.3-15.061-0.32-.705-0.72-1.516-1.17-2.42a53.8,53.8,0,0,1-3.47-8.074,46.172,46.172,0,0,1-1.29-5.053c-0.25-1.183-.5-2.407-1.05-4.278a8.593,8.593,0,0,1,.97-7.031,1.9,1.9,0,0,1,1.43-.911,2.129,2.129,0,0,1,1.66,1.4,26.315,26.315,0,0,1,2.25,12.881c-0.26,3.84-.03,4.54.57,6.408a46.721,46.721,0,0,1,1.3,4.814A32.576,32.576,0,0,1,1344.64,872.017Zm-25.51,18.121a8.576,8.576,0,0,1-5.47,6.283,7.724,7.724,0,0,0,2.64-3.808c1.01-3.305,5.4-38.364,5.58-39.856l0.01-.049v-0.055l2.04,1.817Zm5.6-41.616-1.32-1.113-0.42,4.366,1.18,0.9-0.11.837-1.59-1.413,0.49-5.757,1.87,1.445Zm4.67-5.349a2.338,2.338,0,0,1-1.79,1.516h-0.38l-2.27,2.106-0.01.069-1.53-1.187a0.6,0.6,0,0,0,.07-0.185c0.41-1.93.75-2.63,2.11-3.251a4.375,4.375,0,0,0,2.34-2.677C1328.93,840.9,1329.75,842.45,1329.4,843.173Zm1.46-17.113-0.07,0-1.83-2.7-0.71,2.878-0.51.1,0.33,0.648-1.5,6.113,0.18,0.042a26.578,26.578,0,0,0-.11,4.576,3.4,3.4,0,0,1-1.72,3.077c-2.15.979-2.6,2.431-3.01,4.375a0.76,0.76,0,0,0,.27.763l-0.29,3.491-0.03-20.19,1.15-8a1.19,1.19,0,0,0,1.07.819l0.47-.023,0.28-.315c0.57-.63.88-2.152,1.42-5.236,0.04-.195.07-0.406,0.11-0.619,1.52,2.886,4.17,8.055,4.79,9.377Zm-5.43-32.439-0.86,1.139,1.83,4.019-0.71,2.929,0.06,0.208a15.768,15.768,0,0,1,.38,5.811c-0.21,1.768-.43,3-0.59,3.77l-0.57-.571-1.72,4.245a2.524,2.524,0,0,1-.65.1,24.717,24.717,0,0,1,.67-2.855,14.081,14.081,0,0,0,.75-3.594c-0.13-1.684-2.8-1.681-3.61-1.644l-1.65.056c-0.27-2.065-.9-8.223.39-12.009,1.67-4.862,3.4-4.314,4.06-4.108A6.424,6.424,0,0,1,1325.43,793.621Zm-6.92-2.763c0.15-.281.33-0.611,0.56-0.99,0.04,0,.09,0,0.13,0,0.27,0.008.48,0.013,0.66,0.03,0.29,0.012.54,0.033,0.79,0.059q-1.8,1.168-3.03,4.751c-1.69,4.955-.41,13.125-0.36,13.47l0.11,0.7,3.1-.105a4.673,4.673,0,0,1,1.94.253,25.241,25.241,0,0,1-.7,2.97,21.64,21.64,0,0,0-.74,3.263,1.435,1.435,0,0,0,.57,1.3,1.867,1.867,0,0,0,1.1.306,4.523,4.523,0,0,0,1.51-.307l0.18-.07c-0.11.643-.25,1.444-0.4,2.172a1.426,1.426,0,0,0-1.15-.847l-3.41-.185,0.7-4.5-5.14-.277a71.685,71.685,0,0,1,.06-9.923c0.33-6.317,1.6-8.6,2.84-10.816C1318.06,791.7,1318.29,791.285,1318.51,790.858Zm-27.71-2.253,26.99,0.271c-0.3.48-.53,0.889-0.72,1.25-0.22.417-.44,0.814-0.66,1.212-1.32,2.371-2.69,4.822-3.04,11.5a79.756,79.756,0,0,0-.09,9.777l-28.02-1.594c-0.58-2.052-2.41-9.829.78-16.07C1288.94,789.262,1290.53,788.666,1290.8,788.605Zm-15.71,20.023,5.14,0.362a0.684,0.684,0,0,0,.53-0.2,0.648,0.648,0,0,0,.19-0.526c-0.56-6.238.64-12.237,3.2-16.044,1.19-1.734,1.83-2.463,3.2-2.565a31.109,31.109,0,0,0-2.75,4.576c-3.35,6.542-1.69,14.338-.98,16.931l-5.51-.3-0.81,3.985c-0.48-.037-0.93-0.079-1.36-0.12-0.86-.08-1.69-0.142-2.55-0.172Zm-9.22,77.009,5.97-37.962-0.89-22.8,2.18-8.467c0.88,0.021,1.7.1,2.63,0.184,0.69,0.065,1.43.134,2.25,0.184l0.82,0.05,0.81-4,38.25,2.059-0.7,4.506,4.42,0.239-1.37,9.494,0.03,23.494c-1.58,12.6-4.75,37-5.52,39.542-0.99,3.24-4.3,4.669-7.11,4.6h0l-36.63-4.618C1267.53,890.859,1265.85,888.731,1265.87,885.637Zm8.65-22.184,2.8,0.319a2.518,2.518,0,0,0,.28.016,3.537,3.537,0,0,0,3.15-3.233,3.849,3.849,0,0,0-.7-2.936,2.5,2.5,0,0,0-1.71-.955c-0.45-.051-0.9-0.1-1.35-0.141-0.49-.048-0.97-0.1-1.47-0.154-1.61-.159-3.11,1.287-3.38,3.219a3.8,3.8,0,0,0,.7,2.914A2.463,2.463,0,0,0,1274.52,863.453Zm-0.78-3.643a1.934,1.934,0,0,1,1.61-1.85h0.01c0.48,0.056.97,0.105,1.47,0.155,0.44,0.044.89,0.087,1.35,0.14a0.892,0.892,0,0,1,.6.357,2.237,2.237,0,0,1,.37,1.708,2,2,0,0,1-1.55,1.868l-2.91-.326a0.84,0.84,0,0,1-.58-0.35A2.3,2.3,0,0,1,1273.74,859.81Zm16.4,1.746a3.79,3.79,0,0,0-.66-2.9,2.593,2.593,0,0,0-1.78-1.032c-0.49-.054-0.97-0.1-1.45-0.148s-0.95-.093-1.45-0.147c-1.6-.155-3.14,1.331-3.41,3.231a3.8,3.8,0,0,0,.66,2.906,2.6,2.6,0,0,0,1.77,1.029c0.94,0.079,1.9.185,2.84,0.29a2.27,2.27,0,0,0,.28.016A3.57,3.57,0,0,0,1290.14,861.556Zm-1.6-.247a1.952,1.952,0,0,1-1.7,1.887c-0.95-.107-1.93-0.214-2.86-0.293a0.977,0.977,0,0,1-.64-0.4,2.273,2.273,0,0,1-.35-1.7,2,2,0,0,1,1.64-1.876h0.01c0.49,0.054.97,0.1,1.45,0.148s0.95,0.092,1.43.145a1.006,1.006,0,0,1,.67.412A2.237,2.237,0,0,1,1288.54,861.309Zm2.02,0.237a3.765,3.765,0,0,0,.66,2.891,2.649,2.649,0,0,0,1.8,1.042l2.92,0.319a2.389,2.389,0,0,0,.28.016,3.591,3.591,0,0,0,3.25-3.25,3.827,3.827,0,0,0-.68-2.936,2.645,2.645,0,0,0-1.81-1.045c-0.49-.054-0.98-0.1-1.47-0.147s-0.96-.093-1.44-0.145C1292.42,858.1,1290.87,859.571,1290.56,861.546Zm6.24-1.373a1.076,1.076,0,0,1,.71.428,2.276,2.276,0,0,1,.36,1.72c-0.17,1.092-.97,1.972-1.75,1.888l-2.92-.319a1.08,1.08,0,0,1-.7-0.423,2.249,2.249,0,0,1-.34-1.672,2.083,2.083,0,0,1,1.63-1.92c0.03,0,.06,0,0.1,0,0.49,0.054.97,0.1,1.46,0.148S1296.32,860.12,1296.8,860.173Zm-23.52,11.7,2.78,0.319a2.27,2.27,0,0,0,.28.016,3.53,3.53,0,0,0,3.15-3.2,3.861,3.861,0,0,0-.69-2.894,2.539,2.539,0,0,0-1.72-1c-0.95-.107-1.89-0.213-2.81-0.321-1.61-.192-3.09,1.249-3.37,3.188a3.835,3.835,0,0,0,.68,2.909A2.53,2.53,0,0,0,1273.28,871.877Zm-0.78-3.668a1.931,1.931,0,0,1,1.58-1.825h0.01c0.91,0.108,1.86.214,2.8,0.321a0.94,0.94,0,0,1,.63.388,2.275,2.275,0,0,1,.37,1.678,1.991,1.991,0,0,1-1.55,1.842l-2.87-.326a0.9,0.9,0,0,1-.61-0.371A2.32,2.32,0,0,1,1272.5,868.209Zm8.29,3.766a2.549,2.549,0,0,0,1.71,1l0.27,0.03c0.85,0.1,1.72.194,2.59,0.316a2.561,2.561,0,0,0,.29.015,3.5,3.5,0,0,0,3.17-3.217,3.819,3.819,0,0,0-.67-2.928,2.63,2.63,0,0,0-1.83-1.038l-2.8-.313c-1.6-.187-3.11,1.255-3.43,3.216A3.88,3.88,0,0,0,1280.79,871.975Zm0.91-2.688a1.968,1.968,0,0,1,1.63-1.863h0.01l2.86,0.32a1,1,0,0,1,.66.411,2.282,2.282,0,0,1,.36,1.723,1.991,1.991,0,0,1-1.57,1.855c-0.04,0-.07,0-0.08,0-0.86-.123-1.75-0.222-2.62-0.32l-0.26-.029a0.948,0.948,0,0,1-.62-0.384A2.256,2.256,0,0,1,1281.7,869.287Zm10,4.776,0.28,0.032c0.85,0.1,1.72.193,2.61,0.315a2.389,2.389,0,0,0,.28.016,3.59,3.59,0,0,0,3.25-3.247,3.785,3.785,0,0,0-.67-2.915,2.629,2.629,0,0,0-1.79-1.042c-0.52-.058-1.05-0.122-1.57-0.186-0.45-.055-0.9-0.111-1.34-0.161-1.66-.193-3.2,1.267-3.51,3.243a3.864,3.864,0,0,0,.7,2.936A2.609,2.609,0,0,0,1291.7,874.063Zm-0.86-3.712a2.045,2.045,0,0,1,1.62-1.892,0.951,0.951,0,0,1,.1.005c0.44,0.049.88,0.1,1.33,0.16,0.53,0.063,1.06.13,1.59,0.187a1.028,1.028,0,0,1,.68.423,2.236,2.236,0,0,1,.36,1.7,2.051,2.051,0,0,1-1.65,1.894,0.69,0.69,0,0,1-.08,0c-0.88-.122-1.76-0.221-2.62-0.318l-0.29-.031a0.967,0.967,0,0,1-.66-0.4A2.328,2.328,0,0,1,1290.84,870.351Zm-13.28,4a2.56,2.56,0,0,0-1.72-1c-0.45-.053-0.92-0.112-1.38-0.172s-0.94-.121-1.4-0.174c-1.6-.187-3.1,1.236-3.37,3.16a3.761,3.761,0,0,0,.67,2.88,2.505,2.505,0,0,0,1.68.984c0.49,0.07.97,0.133,1.46,0.2,0.44,0.056.88,0.113,1.34,0.179a2.528,2.528,0,0,0,.28.017,3.5,3.5,0,0,0,3.13-3.178A3.86,3.86,0,0,0,1277.56,874.353Zm-0.91,2.656a1.948,1.948,0,0,1-1.53,1.816l-0.07,0c-0.45-.064-0.89-0.122-1.34-0.179-0.48-.062-0.96-0.125-1.46-0.2a0.9,0.9,0,0,1-.61-0.374,2.247,2.247,0,0,1-.35-1.68,1.862,1.862,0,0,1,1.49-1.8,0.545,0.545,0,0,1,.09.006c0.46,0.053.92,0.112,1.38,0.171s0.94,0.121,1.4.174a0.971,0.971,0,0,1,.63.387A2.281,2.281,0,0,1,1276.65,877.009Zm10.26-1.462a2.68,2.68,0,0,0-1.79-1.074c-0.94-.1-1.88-0.211-2.84-0.346-1.62-.192-3.15,1.252-3.42,3.173a3.8,3.8,0,0,0,.63,2.863,2.664,2.664,0,0,0,1.77,1.071c0.47,0.053.94,0.113,1.41,0.172s0.95,0.122,1.41.173a2.439,2.439,0,0,0,.33.022,3.455,3.455,0,0,0,3.14-3.169A3.846,3.846,0,0,0,1286.91,875.547Zm-0.96,2.649a1.921,1.921,0,0,1-1.54,1.806,0.869,0.869,0,0,1-.13-0.01c-0.47-.053-0.94-0.113-1.41-0.172s-0.95-.122-1.4-0.172a1.035,1.035,0,0,1-.67-0.436,2.177,2.177,0,0,1-.34-1.674,1.936,1.936,0,0,1,1.61-1.825h0.01c0.95,0.134,1.9.242,2.83,0.347a1.037,1.037,0,0,1,.69.441A2.263,2.263,0,0,1,1285.95,878.2Zm10.2-1.525a2.7,2.7,0,0,0-1.81-1.078c-0.97-.107-1.9-0.212-2.89-0.347-1.64-.189-3.21,1.282-3.48,3.178a3.87,3.87,0,0,0,.65,2.916,2.691,2.691,0,0,0,1.79,1.068c0.85,0.094,1.69.209,2.54,0.327l0.34,0.046a2.562,2.562,0,0,0,.29.016,3.512,3.512,0,0,0,3.22-3.219A3.86,3.86,0,0,0,1296.15,876.671Zm-0.95,2.673a1.98,1.98,0,0,1-1.62,1.854c-0.04,0-.07,0-0.09,0l-0.32-.043c-0.86-.12-1.71-0.236-2.56-0.33a1.058,1.058,0,0,1-.69-0.437,2.332,2.332,0,0,1-.35-1.726,1.94,1.94,0,0,1,1.6-1.828,0.69,0.69,0,0,1,.08,0c0.98,0.134,1.93.241,2.89,0.346a1.1,1.1,0,0,1,.71.448A2.314,2.314,0,0,1,1295.2,879.344Zm-20.57,2.008c-0.46-.053-0.91-0.113-1.37-0.172s-0.92-.12-1.37-0.172c-1.6-.225-3.11,1.186-3.39,3.1a3.966,3.966,0,0,0,.42,2.5,2.684,2.684,0,0,0,1.93,1.4c0.46,0.065.91,0.125,1.37,0.185s0.92,0.121,1.39.189a2.429,2.429,0,0,0,.34.024,3.4,3.4,0,0,0,3.08-3.13,3.837,3.837,0,0,0-.67-2.88A2.629,2.629,0,0,0,1274.63,881.352Zm0.8,3.694a1.859,1.859,0,0,1-1.48,1.755,0.872,0.872,0,0,1-.11-0.007c-0.47-.068-0.94-0.131-1.41-0.193-0.45-.057-0.89-0.116-1.34-0.182a1.086,1.086,0,0,1-.75-0.589,2.381,2.381,0,0,1-.24-1.491,1.863,1.863,0,0,1,1.45-1.755,1.169,1.169,0,0,1,.14.01c0.45,0.053.91,0.112,1.36,0.172s0.92,0.12,1.37.172a1.017,1.017,0,0,1,.65.416A2.309,2.309,0,0,1,1275.43,885.046Zm8.49-2.466c-0.95-.134-1.92-0.268-2.83-0.372-1.63-.232-3.17,1.2-3.45,3.131a3.88,3.88,0,0,0,.67,2.88,2.617,2.617,0,0,0,1.72,1.037l2.83,0.4a2.329,2.329,0,0,0,.34.023,3.429,3.429,0,0,0,3.11-3.143,3.828,3.828,0,0,0-.65-2.893A2.625,2.625,0,0,0,1283.92,882.58Zm0.79,3.718a1.881,1.881,0,0,1-1.62,1.775l-2.84-.4a0.989,0.989,0,0,1-.64-0.416,2.31,2.31,0,0,1-.37-1.692,1.922,1.922,0,0,1,1.52-1.78,0.754,0.754,0,0,1,.12.01c0.91,0.105,1.88.238,2.82,0.37a1.035,1.035,0,0,1,.66.433A2.282,2.282,0,0,1,1284.71,886.3Zm8.38-2.517c-0.95-.135-1.93-0.27-2.89-0.375-1.66-.221-3.19,1.215-3.47,3.146a3.819,3.819,0,0,0,.65,2.883,2.66,2.66,0,0,0,1.76,1.075c0.95,0.133,1.92.266,2.89,0.4a2.7,2.7,0,0,0,.34.022,3.509,3.509,0,0,0,3.16-3.169,3.858,3.858,0,0,0-.65-2.906A2.693,2.693,0,0,0,1293.09,883.781Zm0.84,3.733c-0.17,1.058-.96,1.914-1.68,1.811-0.97-.132-1.94-0.265-2.88-0.4a1.049,1.049,0,0,1-.69-0.443,2.269,2.269,0,0,1-.35-1.692,1.921,1.921,0,0,1,1.54-1.807,1.175,1.175,0,0,1,.13.01c0.97,0.106,1.93.238,2.87,0.372a1.076,1.076,0,0,1,.71.448A2.293,2.293,0,0,1,1293.93,887.514Zm-16.91-37.805a5.122,5.122,0,0,0-.6-0.057,2.557,2.557,0,0,0-2.53,2.341,2.757,2.757,0,0,0,.54,2.127,1.829,1.829,0,0,0,1.27.694l0.61,0.084,0.13,0a2.626,2.626,0,0,0,2.37-2.375,2.7,2.7,0,0,0-.51-2.083A1.9,1.9,0,0,0,1277.02,849.709Zm0.19,2.583a1.121,1.121,0,0,1-.77,1.011l0.04,0-0.62-.086a0.254,0.254,0,0,1-.18-0.111,1.235,1.235,0,0,1-.19-0.882,1.1,1.1,0,0,1,.74-0.989l0.11,0.007a3.551,3.551,0,0,1,.48.049,0.294,0.294,0,0,1,.21.136A1.155,1.155,0,0,1,1277.21,852.292Zm5.24,3.159a5.328,5.328,0,0,0,.63.057,1.729,1.729,0,0,0,.19.011,2.541,2.541,0,0,0,2.33-2.357,2.711,2.711,0,0,0-.47-2.1,1.988,1.988,0,0,0-1.43-.775,4.16,4.16,0,0,1-.51-0.051l-0.13,0a2.646,2.646,0,0,0-2.4,2.374,2.77,2.77,0,0,0,.52,2.111A1.9,1.9,0,0,0,1282.45,855.451Zm-0.19-2.61a1.13,1.13,0,0,1,.76-1.015c0.23,0.031.46,0.053,0.6,0.056a0.378,0.378,0,0,1,.22.15,1.2,1.2,0,0,1,.16.9,1.055,1.055,0,0,1-.73.991l-0.11-.007a4.348,4.348,0,0,1-.51-0.049,0.321,0.321,0,0,1-.2-0.134A1.229,1.229,0,0,1,1282.26,852.841Zm8.19-1.852c-0.11-.016-0.23-0.025-0.34-0.033-0.07,0-.15-0.01-0.26-0.024a2.6,2.6,0,0,0-2.58,2.371,2.8,2.8,0,0,0,.52,2.131,1.98,1.98,0,0,0,1.41.745,3.856,3.856,0,0,1,.49.049c0.06,0.006.13,0.01,0.19,0.01a2.636,2.636,0,0,0,2.39-2.36,2.75,2.75,0,0,0-.49-2.12A1.949,1.949,0,0,0,1290.45,850.989Zm-0.57,3.649v0a4.435,4.435,0,0,0-.56-0.058h-0.03a0.325,0.325,0,0,1-.23-0.141,1.218,1.218,0,0,1-.19-0.909,1.136,1.136,0,0,1,.78-1.015c0.12,0.015.23,0.025,0.34,0.033,0.08,0,.16.01,0.26,0.024a0.364,0.364,0,0,1,.25.156,1.178,1.178,0,0,1,.17.893A1.122,1.122,0,0,1,1289.88,854.638Zm8.2-2.968a2.924,2.924,0,0,0-.54-0.045,2.581,2.581,0,0,0-2.61,2.37,2.861,2.861,0,0,0,.53,2.147,2.038,2.038,0,0,0,1.43.758,3.539,3.539,0,0,1,.48.048,1.783,1.783,0,0,0,.2.01,2.6,2.6,0,0,0,2.41-2.387,2.752,2.752,0,0,0-.48-2.122A2.029,2.029,0,0,0,1298.08,851.67Zm-0.51,3.688v0a4.393,4.393,0,0,0-.57-0.058h-0.03a0.4,0.4,0,0,1-.24-0.153,1.273,1.273,0,0,1-.2-0.926,1.1,1.1,0,0,1,.81-1.011l0.12,0.006a4.61,4.61,0,0,1,.51.049,0.343,0.343,0,0,1,.24.156,1.169,1.169,0,0,1,.17.916A1.081,1.081,0,0,1,1297.57,855.358Zm16.28-2.241c-1.6-.144-3.19-0.3-4.77-0.445-1.36-.13-2.71-0.258-4.04-0.381-1.66-.184-3.28,1.326-3.58,3.288a3.834,3.834,0,0,0,.69,2.978,2.6,2.6,0,0,0,1.8,1c1.3,0.131,2.61.268,3.92,0.4,1.63,0.169,3.26.34,4.9,0.5a2.5,2.5,0,0,0,.28.014,3.737,3.737,0,0,0,3.36-3.33,3.917,3.917,0,0,0-.7-2.971A2.71,2.71,0,0,0,1313.85,853.117Zm0.96,3.783a2.215,2.215,0,0,1-1.76,1.981c-0.04,0-.07,0-0.11,0-1.64-.163-3.28-0.333-4.9-0.5q-1.965-.206-3.93-0.4a1,1,0,0,1-.68-0.4,2.252,2.252,0,0,1-.37-1.748,2.136,2.136,0,0,1,1.7-1.945,1.067,1.067,0,0,1,.12.006c1.34,0.123,2.69.252,4.04,0.38,1.59,0.151,3.18.3,4.76,0.446a1.106,1.106,0,0,1,.75.447A2.307,2.307,0,0,1,1314.81,856.9Zm-11.66,9.111c0.21,0.025.4,0.052,0.62,0.081a1.784,1.784,0,0,0,.2.01,2.656,2.656,0,0,0,2.43-2.387,2.694,2.694,0,0,0-.49-2.113,1.987,1.987,0,0,0-1.37-.778c-0.21-.026-0.39-0.051-0.61-0.082a2.6,2.6,0,0,0-2.63,2.374,2.7,2.7,0,0,0,.49,2.1A1.986,1.986,0,0,0,1303.15,866.011Zm0.59-3.68c0.19,0.027.38,0.053,0.62,0.081a0.381,0.381,0,0,1,.27.167,1.162,1.162,0,0,1,.17.889,1.124,1.124,0,0,1-.83,1.036h-0.01c-0.19-.028-0.39-0.054-0.62-0.083a0.43,0.43,0,0,1-.27-0.174,1.209,1.209,0,0,1-.18-0.879A1.139,1.139,0,0,1,1303.74,862.331Zm7.41-.84-0.1-.007a4.439,4.439,0,0,1-.54-0.048,2.594,2.594,0,0,0-2.63,2.377,2.721,2.721,0,0,0,.5,2.134,1.967,1.967,0,0,0,1.35.784l0.64,0.081c0.07,0.007.14,0.01,0.2,0.01a2.672,2.672,0,0,0,2.44-2.387,2.819,2.819,0,0,0-.48-2.126A2.039,2.039,0,0,0,1311.15,861.491Zm-0.58,3.732h-0.01l-0.64-.082a0.382,0.382,0,0,1-.26-0.17,1.24,1.24,0,0,1-.19-0.91,1.117,1.117,0,0,1,.91-1.03h0.01a5.338,5.338,0,0,0,.59.051,0.445,0.445,0,0,1,.25.183,1.253,1.253,0,0,1,.18.92A1.142,1.142,0,0,1,1310.57,865.223Zm-10.52,5.938-0.01.075a2.763,2.763,0,0,0,.5,2.044,2,2,0,0,0,1.37.782l0.56,0.079a2.065,2.065,0,0,0,.26.018,2.627,2.627,0,0,0,2.4-2.335l0.01-.095a2.764,2.764,0,0,0-.48-2.018,2.082,2.082,0,0,0-1.38-.834l-0.11-.007a3.382,3.382,0,0,1-.48-0.046A2.544,2.544,0,0,0,1300.05,871.161Zm1.61,0.168a1.012,1.012,0,0,1,.83-0.916h0.01a5.115,5.115,0,0,0,.6.055,0.537,0.537,0,0,1,.26.194,1.174,1.174,0,0,1,.17.88l-0.01.083a1.071,1.071,0,0,1-.79.933l-0.64-.085a0.375,0.375,0,0,1-.26-0.169,1.159,1.159,0,0,1-.18-0.881Zm6.79,3.5q0.285,0.042.6,0.081a1.892,1.892,0,0,0,.26.017,2.632,2.632,0,0,0,2.4-2.365,2.811,2.811,0,0,0-.47-2.124,2.081,2.081,0,0,0-1.39-.82c-0.12-.016-0.24-0.024-0.35-0.032-0.09,0-.17-0.01-0.26-0.021a2.623,2.623,0,0,0-2.66,2.348,2.785,2.785,0,0,0,.5,2.127A2.023,2.023,0,0,0,1308.45,874.833Zm0.58-3.677h0c0.13,0.015.24,0.024,0.36,0.031,0.09,0,.17.011,0.26,0.021a0.454,0.454,0,0,1,.29.19,1.2,1.2,0,0,1,.17.918,1.108,1.108,0,0,1-.8,1.015l-0.05,0c-0.21-.026-0.4-0.053-0.61-0.082a0.428,0.428,0,0,1-.29-0.179,1.163,1.163,0,0,1-.18-0.9A1.116,1.116,0,0,1,1309.03,871.156Zm0.9,6.543c-1.58-.188-3.16-0.384-4.73-0.579-1.33-.164-2.66-0.328-3.97-0.485-1.66-.224-3.24,1.232-3.55,3.2a3.878,3.878,0,0,0,.66,2.936,2.684,2.684,0,0,0,1.8,1.073c2.25,0.271,4.5.558,6.78,0.848l1.92,0.245a2.653,2.653,0,0,0,.34.021,3.578,3.578,0,0,0,3.26-3.213,3.864,3.864,0,0,0-.63-2.925A2.8,2.8,0,0,0,1309.93,877.7Zm0.91,3.792a1.948,1.948,0,0,1-1.79,1.861l-1.92-.244c-2.29-.291-4.54-0.579-6.79-0.848a1.053,1.053,0,0,1-.7-0.445,2.315,2.315,0,0,1-.36-1.732,2.028,2.028,0,0,1,1.62-1.87,0.885,0.885,0,0,1,.13.008c1.31,0.158,2.64.323,3.96,0.487,1.58,0.2,3.17.392,4.74,0.578a1.138,1.138,0,0,1,.77.486A2.241,2.241,0,0,1,1310.84,881.491Zm-6.82,3.566c-1.29-.153-2.59-0.333-3.89-0.513l-0.14-.018c-1.66-.216-3.24,1.22-3.55,3.177a3.879,3.879,0,0,0,.66,2.936,2.676,2.676,0,0,0,1.78,1.07l4.05,0.561a2.741,2.741,0,0,0,.35.022,3.549,3.549,0,0,0,3.25-3.2,3.892,3.892,0,0,0-.64-2.9A2.859,2.859,0,0,0,1304.02,885.057Zm0.91,3.791a1.991,1.991,0,0,1-1.65,1.844,1.019,1.019,0,0,1-.13-0.007l-4.05-.56a1.105,1.105,0,0,1-.71-0.444,2.359,2.359,0,0,1-.35-1.731,2.013,2.013,0,0,1,1.62-1.846,0.888,0.888,0,0,1,.11.006l0.13,0.018c1.31,0.181,2.62.363,3.91,0.514a1.2,1.2,0,0,1,.77.5A2.229,2.229,0,0,1,1304.93,888.848Zm7.12-93.64-18.8-.694,0.32-1.652,18.85,0.48Zm-0.76,4.158-18.8-.693,0.33-1.652,18.85,0.479Zm-0.54,4.266-18.82-.693,0.35-1.653,18.82,0.48Z" transform="translate(-1264 -787)"/>
</svg>
