<svg xmlns="http://www.w3.org/2000/svg" viewBox="0 0 89 110">
  <defs>
    <style>
      .cls-1 {
        fill: #155196;
        fill-rule: evenodd;
      }
    </style>
  </defs>
  <path class="cls-1" d="M892.584,813.314a4.767,4.767,0,0,0,2.19.979l0.1,0.01a6.518,6.518,0,0,0,.676.047,3.15,3.15,0,0,0,1.6-.4,1.617,1.617,0,0,0,.844-1.112v-0.218a2.331,2.331,0,0,0-.939-1.7,5.016,5.016,0,0,0-2.188-.95l-0.1-.009a4.014,4.014,0,0,0-2.3.323,1.651,1.651,0,0,0-.817,1.138v0.218A2.181,2.181,0,0,0,892.584,813.314Zm-0.456-1.807a1.157,1.157,0,0,1,.592-0.767,2.76,2.76,0,0,1,1.375-.338,3.15,3.15,0,0,1,.686.081,3.936,3.936,0,0,1,1.967.844,1.823,1.823,0,0,1,.769,1.3,0.315,0.315,0,0,1-.026.145,1.047,1.047,0,0,1-.563.758,2.927,2.927,0,0,1-2.055.258,4.373,4.373,0,0,1-1.973-.848,1.741,1.741,0,0,1-.768-1.295Zm8.26,22.834a4.751,4.751,0,0,0-2.2-.981,3.829,3.829,0,0,0-2.373.342,1.6,1.6,0,0,0-.809,1.074,0.818,0.818,0,0,0-.032.254,2.281,2.281,0,0,0,.964,1.7,4.814,4.814,0,0,0,2.2.951,7.138,7.138,0,0,0,.77.056,3.437,3.437,0,0,0,1.6-.371,1.559,1.559,0,0,0,.81-1.1,0.74,0.74,0,0,0,.032-0.255A2.189,2.189,0,0,0,900.388,834.341Zm-2.2,2.831a3.84,3.84,0,0,1-1.942-.846,1.743,1.743,0,0,1-.765-1.3l0-.145a1.073,1.073,0,0,1,.594-0.76,2.672,2.672,0,0,1,1.368-.309,3.075,3.075,0,0,1,.683.053,4.107,4.107,0,0,1,1.948.847,1.786,1.786,0,0,1,.793,1.295l-0.025.145a1.085,1.085,0,0,1-.594.76A2.924,2.924,0,0,1,898.19,837.172Zm-4.549-16.916a2.479,2.479,0,0,0,.4.034,1.016,1.016,0,0,0,1.2-.834,1.671,1.671,0,0,0-1.558-1.261c-0.9-.149-1.6.219-1.6,0.8A1.61,1.61,0,0,0,893.641,820.256Zm5.691,7.142c-0.887-.155-1.571.22-1.571,0.8a1.681,1.681,0,0,0,1.53,1.262,2.236,2.236,0,0,0,.383.033,1.042,1.042,0,0,0,1.216-.832A1.633,1.633,0,0,0,899.332,827.4Zm1.122-5.046a2.437,2.437,0,0,0,.4.034,1.016,1.016,0,0,0,1.2-.833,1.649,1.649,0,0,0-1.558-1.262c-0.909-.152-1.6.219-1.6,0.8A1.672,1.672,0,0,0,900.454,822.352Zm1.161-7.106a2.367,2.367,0,0,0,.4.035,1.017,1.017,0,0,0,1.2-.834,1.67,1.67,0,0,0-1.559-1.261c-0.909-.151-1.6.219-1.6,0.8A1.631,1.631,0,0,0,901.615,815.246Zm-2.218.165a4.527,4.527,0,0,0,2.188.952,3.867,3.867,0,0,0,.781.084,3.152,3.152,0,0,0,1.6-.4,1.617,1.617,0,0,0,.843-1.138V814.72a2.342,2.342,0,0,0-.938-1.7,4.9,4.9,0,0,0-2.185-.948,3.39,3.39,0,0,0-2.378.312,1.61,1.61,0,0,0-.844,1.139v0.219A2.2,2.2,0,0,0,899.4,815.411Zm-0.454-1.67a0.367,0.367,0,0,1,.026-0.172,1.146,1.146,0,0,1,.556-0.757,3.085,3.085,0,0,1,1.38-.314,6.361,6.361,0,0,1,.682.053,4.508,4.508,0,0,1,1.969.843,1.921,1.921,0,0,1,.77,1.326,0.338,0.338,0,0,1-.024.144,1.082,1.082,0,0,1-.563.759,3.421,3.421,0,0,1-2.056.258,4.481,4.481,0,0,1-1.97-.845A1.822,1.822,0,0,1,898.943,813.741Zm-1.642,6.885v0.22a2.335,2.335,0,0,0,.94,1.675,4.992,4.992,0,0,0,2.183.948,3.76,3.76,0,0,0,.78.057,3.136,3.136,0,0,0,1.629-.371,1.673,1.673,0,0,0,.825-1.2,0.906,0.906,0,0,0,.017-0.151,2.3,2.3,0,0,0-.963-1.673,4.767,4.767,0,0,0-2.187-.951,3.3,3.3,0,0,0-2.379.313A1.613,1.613,0,0,0,897.3,820.626Zm0.479,0.22a0.37,0.37,0,0,1,.028-0.173,1.083,1.083,0,0,1,.563-0.758,2.73,2.73,0,0,1,1.373-.311,5.746,5.746,0,0,1,.683.053,4.391,4.391,0,0,1,1.973.847,1.789,1.789,0,0,1,.766,1.294v0.163a1.189,1.189,0,0,1-.59.767,3.427,3.427,0,0,1-2.057.258,4.476,4.476,0,0,1-1.969-.845A1.875,1.875,0,0,1,897.78,820.846Zm3.77,6.389a4.5,4.5,0,0,0-2.186-.952,3.484,3.484,0,0,0-2.385.313,1.559,1.559,0,0,0-.808,1.073,0.783,0.783,0,0,0-.034.256,2.28,2.28,0,0,0,.965,1.7,4.815,4.815,0,0,0,2.2.952,7.391,7.391,0,0,0,.742.056,3.442,3.442,0,0,0,1.629-.372,1.558,1.558,0,0,0,.81-1.1,0.719,0.719,0,0,0,.033-0.255A2.234,2.234,0,0,0,901.55,827.235Zm-2.192,2.858a4.133,4.133,0,0,1-1.947-.875,1.777,1.777,0,0,1-.793-1.294l0.027-.146a1.07,1.07,0,0,1,.592-0.76,2.622,2.622,0,0,1,1.345-.309,3.105,3.105,0,0,1,.709.054,4.393,4.393,0,0,1,1.947.846A1.746,1.746,0,0,1,902,828.9l0,0.172a1.178,1.178,0,0,1-.588.758A3.6,3.6,0,0,1,899.358,830.093Zm-4.55-16.916a2.531,2.531,0,0,0,.341.024,1.061,1.061,0,0,0,1.253-.851,1.671,1.671,0,0,0-1.559-1.261c-0.895-.152-1.6.234-1.6,0.8A1.677,1.677,0,0,0,894.808,813.177Zm3.382,21.3c-0.91-.119-1.594.243-1.594,0.8a1.679,1.679,0,0,0,1.56,1.289,2.2,2.2,0,0,0,.371.033,1.03,1.03,0,0,0,1.2-.832A1.663,1.663,0,0,0,898.19,834.476Zm-9.991-1.8a0.762,0.762,0,0,0-.035.257,2.282,2.282,0,0,0,.965,1.7,4.762,4.762,0,0,0,2.2.952,7.361,7.361,0,0,0,.77.055,3.451,3.451,0,0,0,1.6-.37,1.565,1.565,0,0,0,.807-1.1,0.707,0.707,0,0,0,.034-0.258,2.231,2.231,0,0,0-.962-1.671,4.518,4.518,0,0,0-2.185-.951,3.413,3.413,0,0,0-2.387.313A1.537,1.537,0,0,0,888.2,832.678Zm3.186,2.425a4.141,4.141,0,0,1-1.947-.875,1.747,1.747,0,0,1-.767-1.293v-0.146a1.074,1.074,0,0,1,.593-0.759,2.681,2.681,0,0,1,1.373-.31,3.071,3.071,0,0,1,.681.053,4.368,4.368,0,0,1,1.947.848,1.739,1.739,0,0,1,.765,1.293l0,0.172a1.176,1.176,0,0,1-.587.758A3.761,3.761,0,0,1,891.385,835.1Zm1.1-7.74a2.416,2.416,0,0,0,.4.034,1.018,1.018,0,0,0,1.2-.833,1.649,1.649,0,0,0-1.56-1.263c-0.891-.156-1.6.22-1.6,0.8A1.706,1.706,0,0,0,892.482,827.363Zm-0.009,1.115a3.444,3.444,0,0,0,.756.057,3.155,3.155,0,0,0,1.63-.37,1.679,1.679,0,0,0,.824-1.2,0.916,0.916,0,0,0,.018-0.153,2.29,2.29,0,0,0-.965-1.673,4.72,4.72,0,0,0-2.185-.95,3.309,3.309,0,0,0-2.381.312,1.467,1.467,0,0,0-.8,1.085,0.611,0.611,0,0,0-.04.271,2.3,2.3,0,0,0,.964,1.675A4.721,4.721,0,0,0,892.473,828.478Zm-2.641-2.795a1.13,1.13,0,0,1,.6-0.76,2.565,2.565,0,0,1,1.342-.309,6.376,6.376,0,0,1,.71.052,4.366,4.366,0,0,1,1.946.848,1.792,1.792,0,0,1,.768,1.294v0.172a1.113,1.113,0,0,1-.59.758,3.261,3.261,0,0,1-2.054.258,4.677,4.677,0,0,1-1.973-.845,1.869,1.869,0,0,1-.769-1.3Zm-2.37,21.709a1.676,1.676,0,0,0,1.562,1.289,2.491,2.491,0,0,0,.339.024,1.063,1.063,0,0,0,1.255-.852,1.672,1.672,0,0,0-1.559-1.26C888.167,846.442,887.462,846.826,887.462,847.392Zm-0.433-7.57a0.649,0.649,0,0,1-.013.11l-0.014.109a2.285,2.285,0,0,0,.964,1.7,4.808,4.808,0,0,0,2.268.959,6.964,6.964,0,0,0,.7.048,3.443,3.443,0,0,0,1.6-.37,1.488,1.488,0,0,0,.81-1.1,0.719,0.719,0,0,0,.033-0.257,2.245,2.245,0,0,0-.936-1.672,5.12,5.12,0,0,0-2.188-.978l-0.1-.01a3.772,3.772,0,0,0-2.31.35A1.6,1.6,0,0,0,887.029,839.822Zm5.865,1.2-0.025.145a1.067,1.067,0,0,1-.6.76,2.671,2.671,0,0,1-2.03.255,3.833,3.833,0,0,1-1.968-.845,1.747,1.747,0,0,1-.767-1.294V839.9a1.07,1.07,0,0,1,.59-0.758,2.741,2.741,0,0,1,1.374-.312,3.062,3.062,0,0,1,.68.053,4.189,4.189,0,0,1,1.972.846A1.823,1.823,0,0,1,892.894,841.02Zm-6.158,19.786c-0.887-.153-1.571.22-1.571,0.8a1.675,1.675,0,0,0,1.53,1.261,2.365,2.365,0,0,0,.4.035,1.019,1.019,0,0,0,1.2-.834A1.669,1.669,0,0,0,886.736,860.806Zm2.215-.167a4.724,4.724,0,0,0-2.182-.948,3.345,3.345,0,0,0-2.384.312,1.533,1.533,0,0,0-.8,1.082,0.6,0.6,0,0,0-.042.274,2.305,2.305,0,0,0,.966,1.674,4.744,4.744,0,0,0,2.183.949,3.526,3.526,0,0,0,.756.057,3.152,3.152,0,0,0,1.63-.37,1.549,1.549,0,0,0,.8-1.087,0.633,0.633,0,0,0,.038-0.27A2.3,2.3,0,0,0,888.951,860.639Zm0.459,1.844a1.13,1.13,0,0,1-.595.762,3.426,3.426,0,0,1-2.051.257,4.407,4.407,0,0,1-1.948-.847,1.835,1.835,0,0,1-.793-1.3l0.025-.171a1.115,1.115,0,0,1,.6-0.76,2.6,2.6,0,0,1,1.342-.309,6.357,6.357,0,0,1,.709.053,4.367,4.367,0,0,1,1.946.846,1.8,1.8,0,0,1,.769,1.294v0.171ZM887.9,853.7c-0.907-.153-1.6.218-1.6,0.8a1.634,1.634,0,0,0,1.559,1.262,2.474,2.474,0,0,0,.4.035,1.016,1.016,0,0,0,1.2-.835A1.67,1.67,0,0,0,887.9,853.7Zm3.155,1.751a0.505,0.505,0,0,1,.013-0.112l0.013-.107a2.285,2.285,0,0,0-.963-1.7,4.744,4.744,0,0,0-2.187-.949,3.446,3.446,0,0,0-2.379.311,1.611,1.611,0,0,0-.845,1.139v0.217a2.287,2.287,0,0,0,.937,1.674,4.738,4.738,0,0,0,2.187.95,3.849,3.849,0,0,0,.779.085,3.135,3.135,0,0,0,1.629-.4A1.655,1.655,0,0,0,891.053,855.451Zm-0.479-.083a1.155,1.155,0,0,1-.592.768,2.821,2.821,0,0,1-2.055.259,4.512,4.512,0,0,1-1.973-.846,1.822,1.822,0,0,1-.768-1.3,0.479,0.479,0,0,1,.025-0.171,1.1,1.1,0,0,1,.588-0.757,2.883,2.883,0,0,1,1.35-.314,5.968,5.968,0,0,1,.681.054,4.128,4.128,0,0,1,1.975.875,1.742,1.742,0,0,1,.765,1.293Zm0.811-22.961c-0.9-.148-1.6.221-1.6,0.8a1.668,1.668,0,0,0,1.558,1.261,2.212,2.212,0,0,0,.373.032,1.03,1.03,0,0,0,1.2-.832A1.618,1.618,0,0,0,891.385,832.407Zm-11.407,26.41c-0.906-.152-1.6.221-1.6,0.8a1.67,1.67,0,0,0,1.559,1.262,2.348,2.348,0,0,0,.392.035,1.027,1.027,0,0,0,1.209-.834A1.644,1.644,0,0,0,879.978,858.817Zm8.645-18.532a1.675,1.675,0,0,0,1.56,1.289,2.128,2.128,0,0,0,.376.034,1.045,1.045,0,0,0,1.22-.832,1.687,1.687,0,0,0-1.562-1.29C889.307,839.366,888.624,839.73,888.623,840.285Zm9.465,8.239a4.8,4.8,0,0,0-2.186-.95,3.779,3.779,0,0,0-.782-0.057,3.439,3.439,0,0,0-1.6.368,1.621,1.621,0,0,0-.845,1.14v0.218a2.281,2.281,0,0,0,.937,1.673,4.765,4.765,0,0,0,2.187.951,3.9,3.9,0,0,0,.78.084,3.072,3.072,0,0,0,1.6-.4,1.618,1.618,0,0,0,.843-1.112v-0.218A2.246,2.246,0,0,0,898.088,848.524Zm-4.9.548a1.143,1.143,0,0,1,.557-0.756A3.064,3.064,0,0,1,895.12,848a5.792,5.792,0,0,1,.683.054,4.25,4.25,0,0,1,1.972.873,1.822,1.822,0,0,1,.769,1.3,0.324,0.324,0,0,1-.026.144,1.036,1.036,0,0,1-.563.758,2.837,2.837,0,0,1-2.055.259,4.529,4.529,0,0,1-1.972-.845,1.829,1.829,0,0,1-.768-1.3A0.471,0.471,0,0,1,893.185,849.072Zm46.532,12.133a10.684,10.684,0,0,0,1.858-1.956,2.471,2.471,0,0,0,.449-1.975c-0.209-.85-0.348-4.919-0.348-4.962l-0.067-1.262-4.745,3.6-0.189.137-0.858,8.472-0.165,1.829,1.286-1.3C936.95,863.776,938.087,862.629,939.717,861.205Zm1.02-3.636a1.325,1.325,0,0,1-.249.944,11.244,11.244,0,0,1-1.631,1.693c-0.59.5-1.127,0.991-1.557,1.393l0.587-6.057,2.511-1.9,0.029,0.464A32.432,32.432,0,0,0,940.737,857.569Zm-41.489-16.154a5.043,5.043,0,0,0-2.2-.95l-0.1-.01a4,4,0,0,0-2.294.326,1.645,1.645,0,0,0-.812,1.115l-0.014.109a0.741,0.741,0,0,0-.014.131,2.2,2.2,0,0,0,.961,1.673,4.833,4.833,0,0,0,2.188.978l0.1,0.01a6.5,6.5,0,0,0,.678.047,3.146,3.146,0,0,0,1.6-.4,1.611,1.611,0,0,0,.844-1.112v-0.219A2.325,2.325,0,0,0,899.248,841.415Zm0.458,1.705a0.365,0.365,0,0,1-.026.143,1.031,1.031,0,0,1-.563.756,2.937,2.937,0,0,1-2.055.261,4.416,4.416,0,0,1-1.973-.848,1.748,1.748,0,0,1-.768-1.3l0-.136a1.148,1.148,0,0,1,.592-0.768,2.764,2.764,0,0,1,1.374-.337,3.143,3.143,0,0,1,.686.081,3.932,3.932,0,0,1,1.967.844A1.82,1.82,0,0,1,899.706,843.12Zm-2.78,12.51a4.742,4.742,0,0,0-2.187-.951,3.306,3.306,0,0,0-2.378.312,1.473,1.473,0,0,0-.807,1.089,0.661,0.661,0,0,0-.036.269,2.3,2.3,0,0,0,.962,1.673,4.816,4.816,0,0,0,2.184.95,3.381,3.381,0,0,0,.757.058,3.143,3.143,0,0,0,1.629-.371,1.681,1.681,0,0,0,.823-1.206,0.811,0.811,0,0,0,.016-0.15A2.292,2.292,0,0,0,896.926,855.63Zm-4.9.548a1.124,1.124,0,0,1,.593-0.761,2.6,2.6,0,0,1,1.344-.308,6.429,6.429,0,0,1,.71.052,4.4,4.4,0,0,1,1.947.847,1.789,1.789,0,0,1,.764,1.294v0.173a1.109,1.109,0,0,1-.589.758,3.481,3.481,0,0,1-2.057.258,4.491,4.491,0,0,1-1.969-.844,1.875,1.875,0,0,1-.769-1.3Zm3.413-13.8A1.68,1.68,0,0,0,897,843.673a2.661,2.661,0,0,0,.34.023,1.064,1.064,0,0,0,1.256-.851,1.673,1.673,0,0,0-1.561-1.262C896.143,841.431,895.435,841.817,895.435,842.382Zm0.4,8.368a2.35,2.35,0,0,0,.4.035,1.016,1.016,0,0,0,1.2-.835,1.7,1.7,0,0,0-1.56-1.26c-0.9-.151-1.6.218-1.6,0.8A1.636,1.636,0,0,0,895.833,850.75ZM893.574,862.9c-0.9-.152-1.6.22-1.6,0.8a1.674,1.674,0,0,0,1.559,1.262,2.213,2.213,0,0,0,.389.035,1.009,1.009,0,0,0,1.184-.834A1.619,1.619,0,0,0,893.574,862.9Zm56.062-13.118,0.428,0.15-0.033-.117,0.527,0.037,1.107-.528,0.7-2.233,0.035-.061-0.427-1.109,0.294-.031-0.382-.224-0.027-.08-0.085,0-0.038.015-0.974-.561-1.389.114-0.2.384,0.559-1.875-0.378-1.176,0.258-.03-0.346-.221-0.027-.081-0.148.017-0.973-.562-1.361.113-1.154,2.123-0.084,1.6,1.408,0.8v0.12l0.184-.013,0.4,0.194-0.079-.161,0.5,0.036,1.025-.492-0.714,1.343-0.112,1.6,1.442,0.833Zm-2.379-5.655,0.632-1.18,0.248-.2,0.748-.073,0.342,0.9-0.535,1.917-0.772.422-0.528-.046-0.154-1.031Zm2.65,3.431,0.65-1.213,0.2-.17,0.748-.072,0.341,0.9-0.553,1.937-0.756.4-0.525-.046-0.137-.917Zm-64.039-.631v0.219a2.179,2.179,0,0,0,.933,1.673,4.807,4.807,0,0,0,2.2.98l0.109,0.011c0.231,0.022.445,0.044,0.66,0.044a3.157,3.157,0,0,0,1.6-.4,1.556,1.556,0,0,0,.843-1.111v-0.22a2.33,2.33,0,0,0-.939-1.7,4.9,4.9,0,0,0-2.246-.954,3.951,3.951,0,0,0-2.317.318A1.611,1.611,0,0,0,885.868,846.928Zm5.864,1.2a0.329,0.329,0,0,1-.024.145,1.045,1.045,0,0,1-.564.759,2.817,2.817,0,0,1-2.055.259,4.49,4.49,0,0,1-1.972-.846,1.825,1.825,0,0,1-.768-1.3,0.322,0.322,0,0,1,.026-0.144,1.031,1.031,0,0,1,.563-0.76,2.766,2.766,0,0,1,1.374-.337,3.231,3.231,0,0,1,.686.08,3.922,3.922,0,0,1,1.966.845A1.818,1.818,0,0,1,891.732,848.125Zm4.036,14.613a4.526,4.526,0,0,0-2.187-.951,3.6,3.6,0,0,0-.756-0.084,3.152,3.152,0,0,0-1.629.4,1.542,1.542,0,0,0-.81,1.073,0.8,0.8,0,0,0-.033.256,2.29,2.29,0,0,0,.964,1.7,4.743,4.743,0,0,0,2.183.949,3.535,3.535,0,0,0,.756.057,3.47,3.47,0,0,0,1.631-.369,1.548,1.548,0,0,0,.8-1.086,0.633,0.633,0,0,0,.038-0.27A2.228,2.228,0,0,0,895.768,862.738Zm0.452,1.84a1.167,1.167,0,0,1-.587.759,3.62,3.62,0,0,1-2.059.26,4.144,4.144,0,0,1-1.946-.874,1.745,1.745,0,0,1-.766-1.3v-0.144a1.074,1.074,0,0,1,.593-0.762,2.7,2.7,0,0,1,1.371-.308,3.088,3.088,0,0,1,.682.053,4.377,4.377,0,0,1,1.947.848,1.738,1.738,0,0,1,.764,1.294Zm-1.55-6.721a2.446,2.446,0,0,0,.4.034,1.018,1.018,0,0,0,1.2-.833,1.671,1.671,0,0,0-1.558-1.262c-0.888-.154-1.6.221-1.6,0.8A1.707,1.707,0,0,0,894.67,857.857ZM919,851.948a2.319,2.319,0,0,0,.391.033,1.092,1.092,0,0,0,1.287-.886,1.765,1.765,0,0,0-1.642-1.315c-0.966-.155-1.678.217-1.678,0.826A1.739,1.739,0,0,0,919,851.948Zm12.784-27.39a2.46,2.46,0,0,0,.394.032,1.1,1.1,0,0,0,1.284-.859,1.751,1.751,0,0,0-1.641-1.343c-0.959-.152-1.681.234-1.68,0.826A1.74,1.74,0,0,0,931.782,824.558Zm-1.37,5.236c-0.943-.155-1.677.228-1.677,0.826a1.75,1.75,0,0,0,1.639,1.344,2.7,2.7,0,0,0,.4.032,1.083,1.083,0,0,0,1.276-.886A1.733,1.733,0,0,0,930.412,829.794Zm-0.985-5.071a5.1,5.1,0,0,0,2.349,1.036c0.269,0.027.537,0.053,0.78,0.053a3.485,3.485,0,0,0,1.711-.4,1.736,1.736,0,0,0,.864-1.155,0.917,0.917,0,0,0,.031-0.282,2.181,2.181,0,0,0-.972-1.687l-0.044-.093a5.244,5.244,0,0,0-2.371-1.011,4.209,4.209,0,0,0-2.471.347,1.751,1.751,0,0,0-.868,1.192v0.218A2.3,2.3,0,0,0,929.427,824.723Zm-0.483-1.928a1.124,1.124,0,0,1,.614-0.81,3.093,3.093,0,0,1,1.458-.339,7.342,7.342,0,0,1,.739.053,4.59,4.59,0,0,1,2.08.9,1.885,1.885,0,0,1,.818,1.377,0.407,0.407,0,0,1-.025.172,1.126,1.126,0,0,1-.617.812,3,3,0,0,1-1.455.338,7.1,7.1,0,0,1-.736-0.053,4.754,4.754,0,0,1-2.079-.9,1.97,1.97,0,0,1-.795-1.406Zm3.822,6.806a5.366,5.366,0,0,0-2.32-1,3.59,3.59,0,0,0-2.512.337,1.6,1.6,0,0,0-.869,1.159,0.675,0.675,0,0,0-.035.256,2.423,2.423,0,0,0,1.015,1.78,4.723,4.723,0,0,0,2.3,1.006,4.385,4.385,0,0,0,.831.085,3.483,3.483,0,0,0,1.712-.4,1.8,1.8,0,0,0,.868-1.191v-0.245A2.389,2.389,0,0,0,932.766,829.6Zm0.483,1.955a1.217,1.217,0,0,1-.611.81,3.131,3.131,0,0,1-2.2.26,4.282,4.282,0,0,1-2.08-.9,1.88,1.88,0,0,1-.819-1.376,0.5,0.5,0,0,1,.025-0.174,1.131,1.131,0,0,1,.621-0.788,2.7,2.7,0,0,1,1.449-.335,3.171,3.171,0,0,1,.711.054,4.768,4.768,0,0,1,2.1.9,1.922,1.922,0,0,1,.8,1.377v0.173Zm-15.874-11.327a2.451,2.451,0,0,0,.394.032,1.1,1.1,0,0,0,1.284-.859,1.75,1.75,0,0,0-1.641-1.343,1.719,1.719,0,0,0-1.465.326,0.7,0.7,0,0,0-.213.5A1.744,1.744,0,0,0,917.375,820.229Zm4.837,2.289a4.966,4.966,0,0,0,2.321,1,4.113,4.113,0,0,0,.807.084,3.471,3.471,0,0,0,1.708-.424,1.711,1.711,0,0,0,.881-1.261,0.8,0.8,0,0,0,.017-0.151,2.419,2.419,0,0,0-1.017-1.782,4.97,4.97,0,0,0-2.322-1,3.633,3.633,0,0,0-2.515.34,1.722,1.722,0,0,0-.881,1.262,1.016,1.016,0,0,0-.015.151A2.407,2.407,0,0,0,922.212,822.518Zm-0.5-1.855,0.013-.1a1.193,1.193,0,0,1,.619-0.814,3,3,0,0,1,1.453-.337,3.65,3.65,0,0,1,.739.08,4.564,4.564,0,0,1,2.077.9,1.915,1.915,0,0,1,.811,1.451l-0.013.1a1.193,1.193,0,0,1-.618.813,3.129,3.129,0,0,1-2.192.257,4.3,4.3,0,0,1-2.08-.9A1.913,1.913,0,0,1,921.714,820.663Zm2.852,1.69a2.406,2.406,0,0,0,.391.032,1.092,1.092,0,0,0,1.287-.886,1.754,1.754,0,0,0-1.641-1.344c-0.967-.15-1.706.245-1.706,0.855A1.768,1.768,0,0,0,924.566,822.353Zm4.039,29.465a4.8,4.8,0,0,0-2.324-1.006,3.728,3.728,0,0,0-2.515.314,1.633,1.633,0,0,0-.863,1.153,0.839,0.839,0,0,0-.035.286,2.418,2.418,0,0,0,1.019,1.78,5.3,5.3,0,0,0,2.313,1.008c0.273,0.027.544,0.054,0.816,0.054a3.5,3.5,0,0,0,1.713-.4,1.749,1.749,0,0,0,.868-1.191V853.6A2.4,2.4,0,0,0,928.605,851.818Zm0.482,1.92a1.274,1.274,0,0,1-.619.821,2.8,2.8,0,0,1-1.454.336,6.71,6.71,0,0,1-.738-0.053,4.556,4.556,0,0,1-2.079-.9,1.873,1.873,0,0,1-.819-1.375,0.418,0.418,0,0,1,.025-0.175,1.128,1.128,0,0,1,.617-0.809,2.919,2.919,0,0,1,1.456-.34,6.759,6.759,0,0,1,.706.053,4.6,4.6,0,0,1,2.086.931,1.838,1.838,0,0,1,.816,1.375Zm2.273-16.732a4.952,4.952,0,0,0-2.3-1,4.371,4.371,0,0,0-.831-0.084,3.467,3.467,0,0,0-1.707.424,1.693,1.693,0,0,0-.873,1.194v0.218a2.39,2.39,0,0,0,.992,1.784,5.036,5.036,0,0,0,2.319,1,4.139,4.139,0,0,0,.808.084,3.478,3.478,0,0,0,1.705-.422,1.526,1.526,0,0,0,.864-1.146,0.653,0.653,0,0,0,.036-0.268A2.409,2.409,0,0,0,931.36,837.006Zm0.508,1.782a0.527,0.527,0,0,1-.022.172,1.19,1.19,0,0,1-.619.813,3.165,3.165,0,0,1-2.166.258,4.272,4.272,0,0,1-2.079-.9,1.88,1.88,0,0,1-.821-1.376l0-.163a1.352,1.352,0,0,1,.615-0.82,3.1,3.1,0,0,1,1.458-.34,3.411,3.411,0,0,1,.737.081,4.567,4.567,0,0,1,2.081.9A1.88,1.88,0,0,1,931.868,838.788ZM927.2,859.225a4.978,4.978,0,0,0-2.311-1.036l-0.124-.01a4,4,0,0,0-2.409.354,1.744,1.744,0,0,0-.868,1.192v0.244a2.3,2.3,0,0,0,.99,1.754,5.079,5.079,0,0,0,2.357,1.036,7.7,7.7,0,0,0,.773.054,3.474,3.474,0,0,0,1.707-.4,1.646,1.646,0,0,0,.866-1.156,0.9,0.9,0,0,0,.031-0.281A2.328,2.328,0,0,0,927.2,859.225Zm0.5,1.754a0.4,0.4,0,0,1-.023.172,1.132,1.132,0,0,1-.618.812,3.856,3.856,0,0,1-2.166.286,4.788,4.788,0,0,1-2.106-.9,1.973,1.973,0,0,1-.795-1.377V859.8a1.127,1.127,0,0,1,.614-0.809,3.1,3.1,0,0,1,1.458-.339,7.377,7.377,0,0,1,.737.053,4.584,4.584,0,0,1,2.081.9A1.936,1.936,0,0,1,927.706,860.979ZM915.02,820.4a5.1,5.1,0,0,0,2.377,1.038c0.26,0.026.519,0.051,0.752,0.051a3.478,3.478,0,0,0,1.71-.4,1.582,1.582,0,0,0,.863-1.152,0.854,0.854,0,0,0,.034-0.285,2.333,2.333,0,0,0-1.016-1.752,4.971,4.971,0,0,0-2.309-1.036l-0.1-.009a4.161,4.161,0,0,0-2.43.353,1.74,1.74,0,0,0-.868,1.19v0.219A2.294,2.294,0,0,0,915.02,820.4Zm-0.483-1.922a1.283,1.283,0,0,1,.614-0.818,3.1,3.1,0,0,1,1.459-.339,6.71,6.71,0,0,1,.738.053,4.58,4.58,0,0,1,2.078.9,1.936,1.936,0,0,1,.822,1.376,0.384,0.384,0,0,1-.027.174,1.126,1.126,0,0,1-.617.812,3.61,3.61,0,0,1-2.164.283,4.554,4.554,0,0,1-2.08-.9,1.923,1.923,0,0,1-.82-1.4Zm11.714,33.51c-0.943-.152-1.678.246-1.678,0.854a1.769,1.769,0,0,0,1.641,1.316,2.7,2.7,0,0,0,.421.034,1.053,1.053,0,0,0,1.256-.86A1.743,1.743,0,0,0,926.251,851.983Zm2.784-14.81c-0.957-.153-1.678.243-1.678,0.854a1.744,1.744,0,0,0,1.64,1.344,2.52,2.52,0,0,0,.388.031,1.093,1.093,0,0,0,1.29-.886A1.772,1.772,0,0,0,929.035,837.173Zm0.948,7.238a4.986,4.986,0,0,0-2.321-1,3.486,3.486,0,0,0-2.515.339,1.713,1.713,0,0,0-.872,1.168,0.72,0.72,0,0,1-.011.1,0.749,0.749,0,0,0-.014.141,2.41,2.41,0,0,0,1.016,1.781,4.959,4.959,0,0,0,2.322,1.006,4.086,4.086,0,0,0,.807.056,3.5,3.5,0,0,0,1.707-.395,1.692,1.692,0,0,0,.872-1.173l0.013-.108a0.753,0.753,0,0,0,.014-0.132A2.427,2.427,0,0,0,929.983,844.411Zm0.5,1.833a0.608,0.608,0,0,0-.018.122,1.1,1.1,0,0,1-.622.789,3.036,3.036,0,0,1-2.186.282,4.582,4.582,0,0,1-2.079-.9,1.961,1.961,0,0,1-.821-1.378l0.025-.172a1.184,1.184,0,0,1,.618-0.813,3,3,0,0,1,1.454-.338,3.56,3.56,0,0,1,.737.081,4.287,4.287,0,0,1,2.078.9A1.923,1.923,0,0,1,930.483,846.244Zm-2.855-1.665c-0.945-.157-1.678.245-1.678,0.854a1.817,1.817,0,0,0,1.641,1.343,2.567,2.567,0,0,0,.4.032,1.1,1.1,0,0,0,1.3-.887A1.764,1.764,0,0,0,927.628,844.579Zm-19.983,27.463a2.56,2.56,0,0,0,.4.033,1.084,1.084,0,0,0,1.277-.887,1.8,1.8,0,0,0-1.641-1.343c-0.946-.152-1.678.245-1.678,0.853A1.749,1.749,0,0,0,907.645,872.042Zm-0.951-7.241a4.806,4.806,0,0,0,2.324,1.006,4.24,4.24,0,0,0,.8.083,3.482,3.482,0,0,0,1.713-.4,1.808,1.808,0,0,0,.867-1.192,0.509,0.509,0,0,1,.013-0.1,0.976,0.976,0,0,0,.014-0.142,2.417,2.417,0,0,0-1.017-1.782,5.242,5.242,0,0,0-2.334-1.007,4.259,4.259,0,0,0-2.507.343,1.75,1.75,0,0,0-.869,1.193,0.757,0.757,0,0,1-.012.109l-0.014.108A2.425,2.425,0,0,0,906.694,864.8Zm-0.506-1.782,0.026-.146a1.129,1.129,0,0,1,.621-0.815,2.709,2.709,0,0,1,1.45-.335,7.359,7.359,0,0,1,.737.053,4.6,4.6,0,0,1,2.081.9,1.888,1.888,0,0,1,.82,1.376l-0.026.175a1.128,1.128,0,0,1-.618.811,3.007,3.007,0,0,1-1.454.338c-0.218,0-.438-0.022-0.738-0.052a4.663,4.663,0,0,1-2.077-.9A2.005,2.005,0,0,1,906.188,863.019Zm2.861,1.617a2.466,2.466,0,0,0,.393.032,1.09,1.09,0,0,0,1.286-.885,1.772,1.772,0,0,0-1.641-1.316c-0.953-.154-1.677.233-1.677,0.826A1.739,1.739,0,0,0,909.049,864.636Zm-0.975-7.241a5.226,5.226,0,0,0,2.361,1.037,7.86,7.86,0,0,0,.8.053,3.476,3.476,0,0,0,1.682-.4,1.581,1.581,0,0,0,.864-1.154,0.848,0.848,0,0,0,.034-0.284A2.329,2.329,0,0,0,912.8,854.9a4.968,4.968,0,0,0-2.334-1.039,4.323,4.323,0,0,0-2.48.344,1.586,1.586,0,0,0-.864,1.156,0.869,0.869,0,0,0-.033.283A2.3,2.3,0,0,0,908.074,857.4Zm-0.483-1.919a1.243,1.243,0,0,1,.644-0.82,2.912,2.912,0,0,1,1.427-.337,6.908,6.908,0,0,1,.738.052,4.578,4.578,0,0,1,2.08.9,1.931,1.931,0,0,1,.82,1.377l0,0.166a1.239,1.239,0,0,1-.646.82,3.828,3.828,0,0,1-2.164.284,4.555,4.555,0,0,1-2.08-.9,1.927,1.927,0,0,1-.82-1.376Zm-2.273,16.731a4.957,4.957,0,0,0,2.3,1,4.363,4.363,0,0,0,.831.084,3.212,3.212,0,0,0,1.707-.424,1.713,1.713,0,0,0,.873-1.166V871.46a2.4,2.4,0,0,0-.994-1.782,5.045,5.045,0,0,0-2.32-1,3.59,3.59,0,0,0-2.511.337,1.611,1.611,0,0,0-.871,1.16,0.772,0.772,0,0,0-.03.253A2.422,2.422,0,0,0,905.318,872.207Zm-0.509-1.781a0.48,0.48,0,0,1,.026-0.173,1.1,1.1,0,0,1,.622-0.788,2.673,2.673,0,0,1,1.45-.333,3.258,3.258,0,0,1,.711.052,4.552,4.552,0,0,1,2.078.9,1.875,1.875,0,0,1,.822,1.376v0.173a1.226,1.226,0,0,1-.614.81,3.13,3.13,0,0,1-2.2.259,4.3,4.3,0,0,1-2.08-.9A1.889,1.889,0,0,1,904.809,870.426Zm20.064-11.037c-0.962-.154-1.678.233-1.678,0.826a1.739,1.739,0,0,0,1.641,1.343,2.374,2.374,0,0,0,.395.033,1.1,1.1,0,0,0,1.283-.858A1.752,1.752,0,0,0,924.873,859.389ZM958.764,851c-0.06-.08-4.2-5.7-7.083-9.653a18.846,18.846,0,0,0,.508-1.935,23.121,23.121,0,0,0,.434-5.007c-0.086-3.8-1.722-4.208-2.42-4.208a1.457,1.457,0,0,0-.35.038l-0.164.058,0,0.046a1.294,1.294,0,0,0-.47.315c-3.959,2.912-5.074,3.524-5.289,3.532a0.537,0.537,0,0,1-.07-0.265,5.774,5.774,0,0,1,0-1.52c0.074-1.14,1.454-9.1,1.536-9.405l1.541-7.9,0.951-.6,0.19-.137,1.077-4.745-1.025-.119,0.961-4.16-0.352-.254c-0.1-.1-15.542-11.335-28.184-15.082-8.806-2.61-20.077-3-26.011-3-2.289,0-3.863.056-4.433,0.081l-0.024.121h0l-0.081-.12-6.939,2.513-0.328.133-0.8,3.53-0.546-.061-0.8,4.217-0.1.47,0.79,0.437L873.733,849.2l-2.634,17.16-0.5.387-0.055.194a25.683,25.683,0,0,0-.489,2.6c-0.14.95-.006,1.548,0.4,1.778l-0.026.3c-0.052.593-.115,1.311-0.157,1.688-0.085.973,0.1,1.15,0.913,1.741l0.108,0.084c0.089,0.068.2,0.149,0.325,0.243l0.106,0.08c0.725,0.54,2.427,1.805,4.707,3.352,1.453,1,3.175,2.105,4.981,3.189,1.38,0.825,2.822,1.641,4.681,2.644,1.389,0.739,2.8,1.445,4.571,2.29l0.055,0.026,0.865-.466,0.008-.061c0.014-.107.028-0.219,0.043-0.336,0,0.66.014,1.2,0.014,1.248l0,0.078,0.827,0.351,0.86-.463,0.009-.061c0.009-.077.02-0.159,0.032-0.243,0.018,0.6.052,1.093,0.054,1.134l0,0.069,0.55,0.277,0.813-.468,0.058-.088c0.015-.1.029-0.209,0.045-0.321,0.013,0.631.04,1.168,0.043,1.21l0,0.074,0.692,0.3,0.783-.466,0.057-.086c0.026-.176.054-0.375,0.086-0.588,0,0.765.026,1.421,0.027,1.472l0,0.075,0.609,0.273,0.862-.494,0.007-.06c0.02-.148.04-0.308,0.062-0.479,0,0.707.023,1.292,0.024,1.339l0,0.079,0.694,0.286,0.743-.551,0.15-1.429,0.138,2.409,0.827,0.341,0.684-.606c0.015-.113.028-0.233,0.045-0.356,0,0.634.014,1.143,0.014,1.188l0,0.072,0.064,0.032a24,24,0,0,0,3.043,1.151c1.224,0.39,2.6.811,4.358,1.254,5.721,1.516,16.058,2.943,16.1,2.943l0.321,0.033,5.8-5.539,0.2-.248,0.105-2.2,0.793-.644,0.148-.133,0.051-.132a17.015,17.015,0,0,0,.738-2.143,1.589,1.589,0,0,0-.419-1.826l0.68-4.648,0.887-.813,0.18-.185,0-.127a4.175,4.175,0,0,0,.208-0.986c0.394-2.114,1.444-7.728,2.088-9.926,0.445-1.56,2.186-2.769,4.223-4.181a35.031,35.031,0,0,0,3.928-3,6.08,6.08,0,0,0,1.071-1.249l7.8,2.735,0.608,0.719,4.525-11.122,0.027-.063Zm-6.619,8.785-5.421-1.913,0.129-.237a25.443,25.443,0,0,0,1.178-2.7Zm-46.5-68.766-0.187-.022-1.512-.184,3.781-1.463,2.07,0.177C908.162,790.063,906.207,790.791,905.644,791.015Zm-4.023-.48,3.619-1.4,0.8,0.069-3.7,1.418ZM946.5,851.079c-1.048-1.236-1.895-2.233-2.317-2.728l-0.078-.09a2.327,2.327,0,0,1-.363-0.576,4.67,4.67,0,0,1-.248-2.433c0.031-.266.077-0.538,0.135-0.812,0.027-.125.059-0.25,0.105-0.423l0.024-.1c0.032-.127.065-0.252,0.1-0.378a14.834,14.834,0,0,1,.749-1.922l0.041-.093a8.007,8.007,0,0,1,2.539-3.07,0.781,0.781,0,0,1,1.053.4l0.258,0.385c0.181,0.272.384,0.58,0.634,0.921,0.349,0.514.787,1.094,1.325,1.75,2.506,3.445,6.06,8.268,7.022,9.574l-3.449,8.475-5.483-6.472,0,0Zm-4.481-26.511a16.7,16.7,0,0,0,1.867-.635c-0.55,3.2-1.264,7.428-1.341,8.338a8.947,8.947,0,0,0,0,1.915,1.374,1.374,0,0,0,1.361,1.318c1.064,0,6.344-3.986,6.325-4,0.237,0,1.017.212,1.068,2.933a21.152,21.152,0,0,1-.4,4.705c-0.05.2-.094,0.389-0.134,0.566-0.022.1-.044,0.2-0.065,0.291-0.56-.77-1.022-1.414-1.343-1.871-0.081-.129-0.162-0.242-0.243-0.348l-0.1.074,0.028-.17a1.563,1.563,0,0,0-1.341-.748l-0.1,0a2.943,2.943,0,0,0-1.887.9,1.563,1.563,0,0,0-.239-0.462l-0.325-.361-4.628,1.914-0.272.135-1.684,8.579-0.233,1.13,3.918-1.359a4.7,4.7,0,0,0,.144.491c0.042,0.12.093,0.238,0.146,0.355,0.038,0.082.083,0.163,0.14,0.268l0.051,0.1a1.208,1.208,0,0,0,.057.107,9.39,9.39,0,0,0-.82,3.03,9.073,9.073,0,0,0,.028,2.592,3.357,3.357,0,0,0,.983,2.114,1.88,1.88,0,0,0,1.04.465c2.214,0.247,2.76-2.613,2.856-3.359l0.16,0.189a25.216,25.216,0,0,1-1.379,3.268,7.568,7.568,0,0,1-1.568,2.253,36.155,36.155,0,0,1-3.655,2.784l-0.308.218c-2.157,1.516-4.018,2.826-4.585,4.814-0.631,2.155-1.6,7.272-2.07,9.731l-0.166,1-0.835.768-1.438.689C934.356,861.64,940.827,827.974,942.021,824.568Zm2.525,14.128a2.689,2.689,0,0,1-.387,1.045l-0.073.017v0.1a10.53,10.53,0,0,0-.662,1.168l-0.072.156a20.192,20.192,0,0,0-1.012,2.128,5.454,5.454,0,0,0-.47,1.643,6.757,6.757,0,0,1-.219,1.253l-1.586.564,1.3-6.755ZM943.3,854.152a7.6,7.6,0,0,1-.049-1.818,3.354,3.354,0,0,0,2.279,1.492c-0.111.534-.46,1.779-1.325,1.779h0a0.808,0.808,0,0,1-.347-0.134A2.326,2.326,0,0,1,943.3,854.152Zm1.043-2.566a2.83,2.83,0,0,1-.185-1.228l1.877,2.221A2.14,2.14,0,0,1,944.34,851.586ZM896.268,878.1l12.194-69.724,5.023,1.554-12.641,69.829,0.3,0.383,22.363,8.583,1.339,0.44,14.014-70.9a11.567,11.567,0,0,0,2.43.665,18.761,18.761,0,0,0,4.152-1.982l-1.291,5.444a15.914,15.914,0,0,1-2.653.927c-0.676.085-1.015,0.128-6.607,28.806-2.765,14.177-5.38,28.126-5.392,28.2l-0.241,1.286,2.769-1.325-0.647,4.175-0.1.67,0.66,0.058a0.543,0.543,0,0,1-.019.428c-0.224.787-.5,1.508-0.609,1.82l-0.92.764-0.23.24L930.1,890.65l-5.2,4.971c-2.63-.356-10.933-1.615-15.631-2.85-1.891-.511-3.247-0.909-4.266-1.25a25.054,25.054,0,0,1-2.449-.887c0.033-.274.073-0.578,0.113-0.891,0.063-.482.129-0.985,0.174-1.441,0.083-.658.137-1.285,0.164-1.668a1.5,1.5,0,0,0-.235-1.023,1.035,1.035,0,0,0-.624-0.437,1.725,1.725,0,0,0-.569.032,1.549,1.549,0,0,0-.3.137,1.721,1.721,0,0,0-.217-0.613,0.928,0.928,0,0,0-.6-0.4,0.9,0.9,0,0,0-.57.024,1.145,1.145,0,0,0-.272.091,1.284,1.284,0,0,0-.155-0.351,1.2,1.2,0,0,0-.638-0.394,1.287,1.287,0,0,0-.562.029,1.163,1.163,0,0,0-.214.08,1.5,1.5,0,0,0-.175-0.359,1.031,1.031,0,0,0-.619-0.4,1.239,1.239,0,0,0-.554.028,0.943,0.943,0,0,0-.288.118,1.13,1.13,0,0,0-.161-0.343,1.074,1.074,0,0,0-.643-0.428,1.322,1.322,0,0,0-.562.028,0.878,0.878,0,0,0-.187.075,0.984,0.984,0,0,0-.154-0.309,1.086,1.086,0,0,0-1.179-.363,1.462,1.462,0,0,0-.36.165,1.507,1.507,0,0,0-.214-0.585,1.083,1.083,0,0,0-.644-0.427,1.273,1.273,0,0,0-.567.03,1.38,1.38,0,0,0-.683.477,4.619,4.619,0,0,0-.319,1.449c-0.046.383-.113,0.847-0.183,1.326-0.05.346-.1,0.7-0.148,1.038-1.2-.592-2.441-1.206-3.686-1.887-1.449-.754-2.968-1.608-4.642-2.609-1.713-1.02-3.412-2.1-4.914-3.128-2.445-1.651-4.162-2.936-4.729-3.4-0.159-.106-0.321-0.214-0.469-0.333-0.362-.261-0.392-0.283-0.371-0.536,0.08-.762.217-2.665,0.217-2.665l0.13-1.13-0.617.261a1.161,1.161,0,0,0,.025-0.161c0.149-.953.322-1.767,0.412-2.185l-0.031-.021,0.328-.22,0.235-.205,2.733-17.71,7.532-49.608,2.024,0.674-10.7,68.125,0.354,0.248,20.927,8.807M947.3,811.882l-0.326,1.594-0.939.623-0.239.147h0a38.592,38.592,0,0,1-4.511,2.4c-0.146-.021-0.785-0.193-3.02-0.9L914.78,808.1l-0.6-.19h0c-11.757-3.873-24.484-8.1-31.849-10.558l-0.352-.178,0.358-1.818c10.034,3.259,58.3,18.913,59.459,18.913a9.6,9.6,0,0,0,3.513-1.186A21.237,21.237,0,0,0,947.3,811.882Zm-64.678,48.612a1.173,1.173,0,0,1-.587.758,3.673,3.673,0,0,1-2.06.261,4.162,4.162,0,0,1-1.947-.874,1.749,1.749,0,0,1-.765-1.293V859.2a1.067,1.067,0,0,1,.588-0.758,2.742,2.742,0,0,1,1.374-.31,3.137,3.137,0,0,1,.682.052,4.533,4.533,0,0,1,1.972.844,1.78,1.78,0,0,1,.757,1.369Zm-4.9.55a4.751,4.751,0,0,0,2.187.95,3.765,3.765,0,0,0,.78.057,3.431,3.431,0,0,0,1.6-.37,1.464,1.464,0,0,0,.806-1.086,0.613,0.613,0,0,0,.04-0.271,2.233,2.233,0,0,0-.962-1.671,4.521,4.521,0,0,0-2.186-.951,3.327,3.327,0,0,0-2.386.312,1.717,1.717,0,0,0-.75.878l9.237-57.928c5.884,1.957,13.273,4.412,20.718,6.874L894.948,876.41l-19.561-8.21,1.374-8.751A2.351,2.351,0,0,0,877.721,861.044Zm59.59-43.24-14.06,69.421-20.615-7.945,12.442-68.713m26.568-4.318c-0.179-.116-0.487-0.3-0.926-0.556l-0.542-.321c0.951-.386,2.7-1.136,2.781-1.183,0.1-.088.037-0.2-0.227-0.519l-0.057-.068-3.272,1.347c-0.559-.318-1.205-0.68-1.977-1.1l0.934-.392c1.047-.439,2.238-0.939,2.333-1.015,0.027-.059.057-0.125-0.288-0.536l-0.056-.068-3.759,1.538c-0.571-.289-1.181-0.618-1.832-0.969l-0.006,0c0.44-.188,1.081-0.458,1.687-0.715,1.738-.733,1.741-0.736,1.771-0.765,0.069-.071.1-0.17-0.265-0.6l-0.056-.066-4.056,1.672-1.611-.842c0.719-.31,2.118-0.9,3.007-1.27,0.467-.2.793-0.334,0.843-0.365,0.073-.073.1-0.171-0.29-0.626l-0.056-.066-4.435,1.835-1.667-.864,0.47-.2c3.509-1.461,3.518-1.471,3.547-1.5,0.059-.062.129-0.131-0.291-0.619,1.141,0.6,2.4,1.316,3.711,2.132,3.778,2.35,6.894,4.374,8.006,5.107ZM928.615,799.2l-1.4-.7,2.177-.92c0.879-.372,1.616-0.683,1.675-0.719,0.061-.06.135-0.135-0.318-0.654l-0.056-.064-4.489,1.834-0.78-.4c-0.876-.45-1.561-0.8-2.054-1.045l5.009-1.441a45.488,45.488,0,0,1,4.825,2.246Zm-7.4-2.865,0.9,0.437s1.158,0.6,3.339,1.706l0,0.013,0.261,0.1q2.473,1.266,6.486,3.349c2.523,1.3,6.138,3.218,9.023,4.949,0.135,0.081.184,0.111,0.2,0.115l0.145,0.111,4.475-2.071,0.217-.109c0.539,0.372.962,0.67,1.25,0.877a10.231,10.231,0,0,1-4.217,2.039c-0.316.1-.612,0.193-0.9,0.289A153.664,153.664,0,0,0,919.842,796a15.171,15.171,0,0,0,1.971-.866,0.236,0.236,0,0,0,.139-0.265,1.526,1.526,0,0,0-1.288-.281l-2.264.827-0.563-.221a16.2,16.2,0,0,0,2.136-.931,0.235,0.235,0,0,0,.141-0.265,1.572,1.572,0,0,0-1.326-.275l-2.493.888-0.147-.053a14.486,14.486,0,0,0,1.906-.84,0.235,0.235,0,0,0,.139-0.266c-0.055-.186-0.488-0.288-1.326-0.273l-2.273.84-0.179-.058a16.7,16.7,0,0,0,1.721-.76,0.234,0.234,0,0,0,.139-0.265c-0.057-.187-0.488-0.267-1.327-0.274l-2.251.756-0.1-.028a12.316,12.316,0,0,0,1.615-.734,0.238,0.238,0,0,0,.142-0.267c-0.056-.185-0.47-0.279-1.3-0.273l-1.131.4a1.634,1.634,0,0,0,.183-0.107,0.223,0.223,0,0,0,.127-0.256c-0.021-.065-0.086-0.241-1.2-0.257l-1.735.621-0.142-.034a6.364,6.364,0,0,0,.9-0.427,0.229,0.229,0,0,0,.129-0.259c-0.021-.064-0.049-0.279-1.157-0.253l-1.522.563q-0.825-.18-1.659-0.345c0.5-.19,4.833-1.81,6.091-2.054l0.667,0.057,0.031-.168a60.675,60.675,0,0,1,7.561,1.657,58.962,58.962,0,0,1,7.938,3.1ZM947,808.563c-2.065,1.131-3.36,1.739-4.136,2.1l-0.352.167,0.27-1.7c0.264-.088.533-0.175,0.821-0.264a15.071,15.071,0,0,0,3.681-1.531Zm-41.289-12.438a2.536,2.536,0,0,0-.038,1.818c0.228,0.288.768-.029,0.864-0.156l1.132-4.56,0.538,0.121c-0.09.511-.29,1.563-0.712,3.4a2.669,2.669,0,0,0-.034,1.914,0.385,0.385,0,0,0,.311.15,0.929,0.929,0,0,0,.6-0.319l1.179-4.829,0.412,0.1c-0.1.553-.325,1.69-0.769,3.634a2.941,2.941,0,0,0-.036,2.091,0.4,0.4,0,0,0,.328.157,0.984,0.984,0,0,0,.642-0.341l1.28-5.162,0.026,0.007c0.15,0.04.3,0.081,0.452,0.124-0.122.657-.352,1.805-0.773,3.669a2.9,2.9,0,0,0-.039,2.067,0.4,0.4,0,0,0,.325.157,1,1,0,0,0,.648-0.344l1.252-5.121,0.5,0.161c-0.1.543-.323,1.666-0.764,3.6a2.955,2.955,0,0,0-.037,2.091,0.41,0.41,0,0,0,.328.158,0.993,0.993,0,0,0,.644-0.342l1.223-5.032,0.476,0.166c-0.124.656-.351,1.774-0.743,3.506a2.913,2.913,0,0,0-.025,2.067,0.394,0.394,0,0,0,.321.155,0.982,0.982,0,0,0,.638-0.343l1.214-4.862,0.469,0.182c-0.1.551-.328,1.7-0.78,3.672a2.963,2.963,0,0,0-.022,2.092,0.4,0.4,0,0,0,.323.155,0.971,0.971,0,0,0,.634-0.34l1.246-5.018a149.066,149.066,0,0,1,22.8,12.212l-0.338,2.132L883.46,792.532l0.408-1.8a111.26,111.26,0,0,1,22.5,2.214C906.281,793.431,906.089,794.417,905.709,796.125Zm36.12,16.3,0.057-.044,0.363,0.115,0.06-.38c0.259-.141.576-0.291,1.017-0.5,0.717-.338,1.783-0.84,3.357-1.681l-0.165.729,0.2,0.019a16.724,16.724,0,0,1-2.031,1.21,7.888,7.888,0,0,1-2.89,1.048c-0.461-.014-10.785-3.2-57.368-18.3l-1.354-.438,0.146-.636,58.5,18.778Zm-42.884-22.2,3.383-1.315,0.01,0c0.368,0.025.74,0.053,1.121,0.082l-3.426,1.362Zm-4.112-.45,0,0.014-0.22-.022-0.935-.087,2.69-1.041q0.627,0.009,1.262.029Zm1.385,0.152,3.066-1.2q0.69,0.03,1.4.069l-3.228,1.261Zm-4.772-.439,2.192-.857,0.946,0-2.36.924Zm-1.782-.141,1.738-.675,0.328-.007-1.786.7Zm8.728,96.813v0h0v0h0Zm15.936-59.871a1.753,1.753,0,0,0,1.641,1.345,2.712,2.712,0,0,0,.4.032,1.1,1.1,0,0,0,1.3-.885,1.788,1.788,0,0,0-1.668-1.318C915.064,825.316,914.328,825.7,914.328,826.291Zm-3.9,30.938a2.357,2.357,0,0,0,.395.033,1.1,1.1,0,0,0,1.285-.859,1.754,1.754,0,0,0-1.643-1.343c-0.956-.156-1.677.234-1.677,0.827A1.74,1.74,0,0,0,910.427,857.229Zm4.164-22.189a2.558,2.558,0,0,0,.4.032,1.083,1.083,0,0,0,1.276-.887,1.769,1.769,0,0,0-1.641-1.344c-0.942-.151-1.678.247-1.678,0.855A1.749,1.749,0,0,0,914.591,835.04Zm-2.326.166a4.95,4.95,0,0,0,2.3,1,4.429,4.429,0,0,0,.833.085,3.206,3.206,0,0,0,1.707-.426,1.684,1.684,0,0,0,.873-1.193v-0.218a2.394,2.394,0,0,0-.992-1.784,5.056,5.056,0,0,0-2.32-1,3.575,3.575,0,0,0-2.511.337,1.519,1.519,0,0,0-.863,1.143,0.623,0.623,0,0,0-.039.271A2.4,2.4,0,0,0,912.265,835.206Zm1.587-3.078a3.343,3.343,0,0,1,.712.053,4.585,4.585,0,0,1,2.08.9,1.878,1.878,0,0,1,.82,1.376l0,0.163a1.346,1.346,0,0,1-.616.82,3.334,3.334,0,0,1-2.2.259,4.293,4.293,0,0,1-2.081-.9,1.885,1.885,0,0,1-.82-1.377,0.467,0.467,0,0,1,.026-0.172,1.18,1.18,0,0,1,.618-0.813A2.908,2.908,0,0,1,913.852,832.128Zm-0.212-4.33a4.666,4.666,0,0,0,2.324,1.007,4.185,4.185,0,0,0,.807.084,3.5,3.5,0,0,0,1.713-.4,1.809,1.809,0,0,0,.866-1.191,0.58,0.58,0,0,1,.012-0.1,0.783,0.783,0,0,0,.016-0.143,2.425,2.425,0,0,0-1.018-1.782,5.212,5.212,0,0,0-2.346-1.007,4.284,4.284,0,0,0-2.489.341,1.685,1.685,0,0,0-.873,1.194,0.612,0.612,0,0,1-.014.109l-0.012.109A2.417,2.417,0,0,0,913.64,827.8Zm5.228-.745-0.025.173a1.125,1.125,0,0,1-.618.811,2.988,2.988,0,0,1-1.454.339,7.152,7.152,0,0,1-.734-0.053,4.566,4.566,0,0,1-2.083-.929,1.873,1.873,0,0,1-.809-1.428l0.015-.094a1.129,1.129,0,0,1,.621-0.815,2.712,2.712,0,0,1,1.45-.335,3.473,3.473,0,0,1,.737.054,4.551,4.551,0,0,1,2.077.9A1.956,1.956,0,0,1,918.868,827.053Zm-7.062,22.77a2.643,2.643,0,0,0,.424.035,1.052,1.052,0,0,0,1.255-.86,1.741,1.741,0,0,0-1.641-1.344c-0.944-.149-1.677.247-1.678,0.854A1.766,1.766,0,0,0,911.806,849.823Zm-2.327.2a5.26,5.26,0,0,0,2.366,1.009c0.264,0.027.527,0.053,0.765,0.053a3.5,3.5,0,0,0,1.706-.4,1.7,1.7,0,0,0,.873-1.195V849.27a2.389,2.389,0,0,0-.99-1.78,4.773,4.773,0,0,0-2.323-1.006,3.746,3.746,0,0,0-2.519.315,1.8,1.8,0,0,0-.863,1.155,0.877,0.877,0,0,0-.032.282A2.427,2.427,0,0,0,909.479,850.018Zm-0.507-1.782a0.416,0.416,0,0,1,.024-0.175,1.135,1.135,0,0,1,.618-0.811,3.023,3.023,0,0,1,1.455-.337,7.2,7.2,0,0,1,.733.053,4.851,4.851,0,0,1,2.085.929,1.87,1.87,0,0,1,.793,1.375l0,0.148a1.133,1.133,0,0,1-.62.81,3.06,3.06,0,0,1-2.19.285,4.578,4.578,0,0,1-2.081-.9A1.878,1.878,0,0,1,908.972,848.236Zm4.24-5.791a2.513,2.513,0,0,0,.389.031,1.091,1.091,0,0,0,1.288-.884,1.751,1.751,0,0,0-1.641-1.344c-0.956-.148-1.676.244-1.676,0.855A1.761,1.761,0,0,0,913.212,842.445Zm-2.353.168a5.058,5.058,0,0,0,2.322,1,4.081,4.081,0,0,0,.806.056,3.482,3.482,0,0,0,1.705-.394,1.6,1.6,0,0,0,.867-1.157,0.707,0.707,0,0,0,.034-0.257,2.422,2.422,0,0,0-1.017-1.781,4.958,4.958,0,0,0-2.3-1,4.584,4.584,0,0,0-.832-0.084,3.462,3.462,0,0,0-1.709.424,1.689,1.689,0,0,0-.872,1.194v0.218A2.4,2.4,0,0,0,910.859,842.613Zm-0.484-1.955a1.182,1.182,0,0,1,.613-0.811,3.092,3.092,0,0,1,1.459-.341,3.707,3.707,0,0,1,.738.081,4.258,4.258,0,0,1,2.078.9,1.877,1.877,0,0,1,.82,1.376,0.5,0.5,0,0,1-.024.173,1.184,1.184,0,0,1-.618.812,3.186,3.186,0,0,1-2.164.258,4.769,4.769,0,0,1-2.105-.9,1.922,1.922,0,0,1-.8-1.375v-0.174Zm3.9,16.843-0.014.105a0.739,0.739,0,0,0-.015.133,2.415,2.415,0,0,0,1.02,1.781,5.009,5.009,0,0,0,2.32,1,3.962,3.962,0,0,0,.806.086,3.216,3.216,0,0,0,1.708-.424,1.712,1.712,0,0,0,.881-1.261,0.728,0.728,0,0,0,.018-0.152,2.425,2.425,0,0,0-1.018-1.782,4.977,4.977,0,0,0-2.322-1,3.6,3.6,0,0,0-2.515.34A1.689,1.689,0,0,0,914.277,857.5Zm0.49,0.164,0.014-.1a1.19,1.19,0,0,1,.614-0.812,3.067,3.067,0,0,1,1.458-.312,3.7,3.7,0,0,1,.739.051,4.6,4.6,0,0,1,2.079.9,1.88,1.88,0,0,1,.819,1.375,0.475,0.475,0,0,1-.025.173,1.181,1.181,0,0,1-.617.813,3.164,3.164,0,0,1-2.192.258,4.407,4.407,0,0,1-2.078-.9A1.918,1.918,0,0,1,914.767,857.665Zm-32.53-11a2.367,2.367,0,0,0,.4.035,1.016,1.016,0,0,0,1.2-.834,1.669,1.669,0,0,0-1.557-1.26c-0.895-.155-1.6.221-1.6,0.8A1.641,1.641,0,0,0,882.237,846.665Zm-1.056-6.94a4.984,4.984,0,0,0,2.279.987,6.734,6.734,0,0,0,.688.048,3.073,3.073,0,0,0,1.6-.4,1.624,1.624,0,0,0,.844-1.112v-0.219a2.251,2.251,0,0,0-.938-1.7,4.743,4.743,0,0,0-2.2-.952l-0.1-.01a3.951,3.951,0,0,0-2.263.324,1.611,1.611,0,0,0-.845,1.139v0.219A2.242,2.242,0,0,0,881.181,839.725Zm4.93-.692a0.346,0.346,0,0,1-.025.145,1.045,1.045,0,0,1-.564.759,2.819,2.819,0,0,1-2.055.258,4.5,4.5,0,0,1-1.971-.846,1.816,1.816,0,0,1-.77-1.3,0.317,0.317,0,0,1,.027-0.145,1.038,1.038,0,0,1,.562-0.758,2.752,2.752,0,0,1,1.373-.338,3.019,3.019,0,0,1,.686.081,3.929,3.929,0,0,1,1.967.844A1.825,1.825,0,0,1,886.111,839.033Zm-4.271-.734a1.678,1.678,0,0,0,1.563,1.289,2.691,2.691,0,0,0,.34.024,1.061,1.061,0,0,0,1.254-.851,1.672,1.672,0,0,0-1.558-1.261C882.543,837.349,881.84,837.733,881.84,838.3Zm-1.8,8.532a4.508,4.508,0,0,0,2.187.951,3.407,3.407,0,0,0,.755.085,3.17,3.17,0,0,0,1.629-.4,1.678,1.678,0,0,0,.817-1.111,0.786,0.786,0,0,1,.012-0.111l0.013-.107a2.282,2.282,0,0,0-.964-1.7,4.73,4.73,0,0,0-2.187-.949,3.469,3.469,0,0,0-2.378.31,1.475,1.475,0,0,0-.808,1.09,0.676,0.676,0,0,0-.035.268A2.224,2.224,0,0,0,880.044,846.831Zm-0.454-1.843a1.178,1.178,0,0,1,.588-0.758,2.878,2.878,0,0,1,1.349-.313,6.411,6.411,0,0,1,.71.053,4.136,4.136,0,0,1,1.948.877,1.736,1.736,0,0,1,.764,1.293l0,0.145a1.064,1.064,0,0,1-.59.758,2.828,2.828,0,0,1-2.056.259,4.509,4.509,0,0,1-1.972-.846,1.779,1.779,0,0,1-.757-1.372Zm4.665,8.5a0.625,0.625,0,0,0,.039-0.271,2.3,2.3,0,0,0-.962-1.673,4.741,4.741,0,0,0-2.185-.95,3.535,3.535,0,0,0-.756-0.057,3.134,3.134,0,0,0-1.629.37,1.539,1.539,0,0,0-.8,1.086,0.629,0.629,0,0,0-.038.269,2.289,2.289,0,0,0,.964,1.674,4.789,4.789,0,0,0,2.183.95,3.53,3.53,0,0,0,.756.057,3.153,3.153,0,0,0,1.629-.37A1.538,1.538,0,0,0,884.255,853.49Zm-0.467-.1a1.122,1.122,0,0,1-.594.76,3.4,3.4,0,0,1-2.052.258,4.391,4.391,0,0,1-1.947-.848,1.8,1.8,0,0,1-.766-1.295l0-.17a1.132,1.132,0,0,1,.593-0.762,2.689,2.689,0,0,1,1.371-.308,6.391,6.391,0,0,1,.682.052,4.4,4.4,0,0,1,1.948.847,1.8,1.8,0,0,1,.766,1.295v0.171Zm31.083,18.578c-0.956-.155-1.678.245-1.678,0.855a1.74,1.74,0,0,0,1.641,1.317,2.593,2.593,0,0,0,.413.034,1.071,1.071,0,0,0,1.266-.861A1.753,1.753,0,0,0,914.871,871.967Zm-32.527-39.32a4.851,4.851,0,0,0,2.281.96,6.686,6.686,0,0,0,.686.047,3.427,3.427,0,0,0,1.6-.37,1.614,1.614,0,0,0,.846-1.138v-0.218a2.244,2.244,0,0,0-.937-1.673,4.766,4.766,0,0,0-2.2-.98l-0.1-.01a3.754,3.754,0,0,0-2.295.353,1.607,1.607,0,0,0-.814,1.111,0.541,0.541,0,0,1-.014.108l-0.013.109A2.282,2.282,0,0,0,882.344,832.647Zm4.928-.72a0.322,0.322,0,0,1-.025.145,1.042,1.042,0,0,1-.562.758,2.809,2.809,0,0,1-2.061.257,3.854,3.854,0,0,1-1.969-.846,1.746,1.746,0,0,1-.766-1.3l0-.134a1.15,1.15,0,0,1,.6-0.767,2.725,2.725,0,0,1,1.373-.311,3.071,3.071,0,0,1,.681.053,4.207,4.207,0,0,1,1.972.845A1.823,1.823,0,0,1,887.272,831.927Zm-6.159,19.784c-0.882-.153-1.572.22-1.572,0.8a1.677,1.677,0,0,0,1.532,1.261,2.474,2.474,0,0,0,.4.035,1.017,1.017,0,0,0,1.2-.835A1.672,1.672,0,0,0,881.113,851.711Zm5.746-33.442a2.462,2.462,0,0,0,.4.035,1.017,1.017,0,0,0,1.2-.834,1.65,1.65,0,0,0-1.559-1.262c-0.886-.154-1.572.221-1.572,0.8A1.683,1.683,0,0,0,886.859,818.269Zm-1.055-6.941a4.753,4.753,0,0,0,2.186.951,3.839,3.839,0,0,0,.78.083,3.148,3.148,0,0,0,1.628-.4,1.643,1.643,0,0,0,.814-1.115l0.029-.212a2.284,2.284,0,0,0-.965-1.7,4.742,4.742,0,0,0-2.185-.95,3.769,3.769,0,0,0-.78-0.057,3.442,3.442,0,0,0-1.6.369,1.618,1.618,0,0,0-.844,1.139v0.219A2.273,2.273,0,0,0,885.8,811.328Zm-0.456-1.671a0.363,0.363,0,0,1,.027-0.173,1.145,1.145,0,0,1,.557-0.756,3.059,3.059,0,0,1,1.379-.314,5.827,5.827,0,0,1,.682.053,4.378,4.378,0,0,1,1.973.847,1.787,1.787,0,0,1,.767,1.321l0,0.137a1.215,1.215,0,0,1-.593.767,3.429,3.429,0,0,1-2.056.258,4.485,4.485,0,0,1-1.97-.845A1.825,1.825,0,0,1,885.348,809.657Zm2.671,1.5a2.494,2.494,0,0,0,.4.035,1.017,1.017,0,0,0,1.2-.834,1.67,1.67,0,0,0-1.559-1.261c-0.9-.154-1.6.219-1.6,0.8A1.63,1.63,0,0,0,888.019,811.162Zm-4.512,14.38a4.754,4.754,0,0,0,2.2.951,7.4,7.4,0,0,0,.771.056,3.448,3.448,0,0,0,1.6-.372,1.555,1.555,0,0,0,.808-1.1,0.7,0.7,0,0,0,.034-0.254,2.243,2.243,0,0,0-.962-1.673,4.513,4.513,0,0,0-2.187-.951,3.394,3.394,0,0,0-2.386.313,1.664,1.664,0,0,0-.807,1.072,0.786,0.786,0,0,0-.034.256A2.287,2.287,0,0,0,883.507,825.542Zm4.916-.648-0.012.1a1.18,1.18,0,0,1-.589.759,3.725,3.725,0,0,1-2.059.26,4.129,4.129,0,0,1-1.947-.875,1.742,1.742,0,0,1-.767-1.293V823.7a1.072,1.072,0,0,1,.6-0.76,2.671,2.671,0,0,1,1.369-.309,3.071,3.071,0,0,1,.682.053,4.384,4.384,0,0,1,1.947.847A1.735,1.735,0,0,1,888.423,824.894Zm-3.755-6.46a4.72,4.72,0,0,0,2.184.95,3.457,3.457,0,0,0,.755.058,3.126,3.126,0,0,0,1.629-.372,1.524,1.524,0,0,0,.8-1.083,0.611,0.611,0,0,0,.04-0.272,2.3,2.3,0,0,0-.965-1.673,4.744,4.744,0,0,0-2.183-.95,3.5,3.5,0,0,0-2.386.314,1.54,1.54,0,0,0-.8,1.085,0.615,0.615,0,0,0-.04.272A2.288,2.288,0,0,0,884.668,818.434Zm-0.481-1.672,0.025-.174a1.123,1.123,0,0,1,.593-0.76,2.628,2.628,0,0,1,1.344-.308,6.394,6.394,0,0,1,.71.052,4.4,4.4,0,0,1,1.947.848,1.794,1.794,0,0,1,.766,1.294l0,0.172a1.119,1.119,0,0,1-.6.759,3.4,3.4,0,0,1-2.05.257,4.367,4.367,0,0,1-1.948-.847A1.828,1.828,0,0,1,884.187,816.762ZM883,831.192a1.681,1.681,0,0,0,1.563,1.29,2.713,2.713,0,0,0,.341.023,1.056,1.056,0,0,0,1.253-.823,1.679,1.679,0,0,0-1.563-1.29C883.687,830.274,883,830.635,883,831.192Zm1.163-7.08a1.67,1.67,0,0,0,1.558,1.262,2.116,2.116,0,0,0,.373.033,1.03,1.03,0,0,0,1.2-.832,1.618,1.618,0,0,0-1.532-1.261C884.855,823.159,884.164,823.533,884.164,824.112Zm37.617,13.025a2.562,2.562,0,0,0,.412.034,1.071,1.071,0,0,0,1.266-.861,1.753,1.753,0,0,0-1.642-1.345c-0.951-.144-1.678.246-1.678,0.855A1.741,1.741,0,0,0,921.781,837.137Zm-5.568,29.623a2.543,2.543,0,0,0,.4.032,1.084,1.084,0,0,0,1.277-.885,1.737,1.737,0,0,0-1.64-1.344c-0.947-.159-1.679.245-1.678,0.854A1.752,1.752,0,0,0,916.213,866.76Zm-25.724-48.229v0.218a2.288,2.288,0,0,0,.936,1.673,4.756,4.756,0,0,0,2.186.951,3.875,3.875,0,0,0,.781.084,3.06,3.06,0,0,0,1.6-.4,1.613,1.613,0,0,0,.844-1.139v-0.19a2.253,2.253,0,0,0-.937-1.7,4.742,4.742,0,0,0-2.187-.95,3.464,3.464,0,0,0-2.378.312A1.613,1.613,0,0,0,890.489,818.531Zm0.482,0.219a0.4,0.4,0,0,1,.025-0.171,1.138,1.138,0,0,1,.555-0.757,3.08,3.08,0,0,1,1.381-.314,5.715,5.715,0,0,1,.682.053,4.5,4.5,0,0,1,1.97.844,1.83,1.83,0,0,1,.77,1.325,0.315,0.315,0,0,1-.027.145,1.083,1.083,0,0,1-.562.759,2.735,2.735,0,0,1-1.373.311,6.7,6.7,0,0,1-.682-0.053,4.53,4.53,0,0,1-1.973-.845A1.823,1.823,0,0,1,890.971,818.75Zm21.938,46.122a0.609,0.609,0,0,0-.04.271,2.42,2.42,0,0,0,1.018,1.782,4.983,4.983,0,0,0,2.3,1.006,4.382,4.382,0,0,0,.834.056,3.482,3.482,0,0,0,1.707-.4,1.7,1.7,0,0,0,.87-1.2v-0.218a2.4,2.4,0,0,0-.991-1.783,5.07,5.07,0,0,0-2.32-1,3.625,3.625,0,0,0-2.513.339A1.579,1.579,0,0,0,912.909,864.872Zm0.469,0.272a0.494,0.494,0,0,1,.024-0.172,1.182,1.182,0,0,1,.618-0.813,3.018,3.018,0,0,1,1.456-.338,3.315,3.315,0,0,1,.709.08,4.274,4.274,0,0,1,2.08.9,1.887,1.887,0,0,1,.82,1.377v0.17a1.272,1.272,0,0,1-.612.813,3.248,3.248,0,0,1-2.2.258,4.54,4.54,0,0,1-2.081-.9A1.878,1.878,0,0,1,913.378,865.144Zm11.036,8.863a4.956,4.956,0,0,0-2.294-1,3.709,3.709,0,0,0-2.514.337,1.528,1.528,0,0,0-.865,1.157,0.673,0.673,0,0,0-.036.257,2.391,2.391,0,0,0,.992,1.783,5.254,5.254,0,0,0,2.321,1,4.347,4.347,0,0,0,.836.082,3.16,3.16,0,0,0,1.676-.422,1.519,1.519,0,0,0,.863-1.142,0.615,0.615,0,0,0,.04-0.273A2.423,2.423,0,0,0,924.414,874.007Zm0.511,1.946a1.3,1.3,0,0,1-.645.822,3.237,3.237,0,0,1-2.166.258,4.281,4.281,0,0,1-2.078-.9,1.88,1.88,0,0,1-.821-1.376l0-.164a1.3,1.3,0,0,1,.647-0.821,2.89,2.89,0,0,1,1.426-.311,3.466,3.466,0,0,1,.738.053,4.571,4.571,0,0,1,2.08.9,1.88,1.88,0,0,1,.82,1.375Zm-1.459-9.156c-0.938-.154-1.676.23-1.676,0.825a1.749,1.749,0,0,0,1.639,1.344,2.559,2.559,0,0,0,.4.032,1.086,1.086,0,0,0,1.279-.886A1.731,1.731,0,0,0,923.466,866.8Zm-1.378,7.377c-0.96-.155-1.678.245-1.678,0.853a1.741,1.741,0,0,0,1.641,1.344,2.543,2.543,0,0,0,.391.032,1.091,1.091,0,0,0,1.287-.886A1.8,1.8,0,0,0,922.088,874.174Zm-4.469-14.82a2.528,2.528,0,0,0,.389.032,1.093,1.093,0,0,0,1.289-.886,1.8,1.8,0,0,0-1.641-1.343c-0.964-.155-1.681.245-1.681,0.854A1.745,1.745,0,0,0,917.619,859.354Zm5.54-29.6a2.663,2.663,0,0,0,.4.031,1.083,1.083,0,0,0,1.277-.885,1.742,1.742,0,0,0-1.64-1.344c-0.949-.152-1.678.247-1.678,0.854A1.814,1.814,0,0,0,923.159,829.758Zm-4.725,5.544v0.246a2.4,2.4,0,0,0,.992,1.784,5.368,5.368,0,0,0,2.332,1c0.272,0.028.549,0.055,0.795,0.055a3.486,3.486,0,0,0,1.708-.4,1.656,1.656,0,0,0,.869-1.158,0.863,0.863,0,0,0,.03-0.254,2.412,2.412,0,0,0-1.013-1.779,4.723,4.723,0,0,0-2.3-1.008,3.663,3.663,0,0,0-2.544.316A1.8,1.8,0,0,0,918.434,835.3Zm0.51,0.072a1.216,1.216,0,0,1,.614-0.809,3.078,3.078,0,0,1,1.457-.339,7.318,7.318,0,0,1,.735.052,4.589,4.589,0,0,1,2.086.931,1.835,1.835,0,0,1,.817,1.374,0.338,0.338,0,0,1-.025.145,1.131,1.131,0,0,1-.623.816,3.574,3.574,0,0,1-2.161.281,4.58,4.58,0,0,1-2.078-.9,1.878,1.878,0,0,1-.821-1.377v-0.174Zm6.874,31.228a5.357,5.357,0,0,0-2.4-1.012,4.188,4.188,0,0,0-2.439.346,1.673,1.673,0,0,0-.864,1.155,0.759,0.759,0,0,0-.035.257,2.423,2.423,0,0,0,1.015,1.78,4.664,4.664,0,0,0,2.323,1.006,4.1,4.1,0,0,0,.81.085,3.5,3.5,0,0,0,1.712-.4,1.818,1.818,0,0,0,.867-1.192v-0.246A2.386,2.386,0,0,0,925.818,866.6Zm0.485,1.956a1.123,1.123,0,0,1-.614.809,3.1,3.1,0,0,1-1.457.341c-0.217,0-.433-0.023-0.734-0.053a4.611,4.611,0,0,1-2.087-.931,1.837,1.837,0,0,1-.816-1.375,0.365,0.365,0,0,1,.023-0.146,1.138,1.138,0,0,1,.623-0.814,2.706,2.706,0,0,1,1.45-.336,3.542,3.542,0,0,1,.737.053,4.755,4.755,0,0,1,2.077.9,1.922,1.922,0,0,1,.8,1.377v0.175Zm-9.1,3.248a4.664,4.664,0,0,0-2.3-1.009,4.466,4.466,0,0,0-.833-0.083,3.5,3.5,0,0,0-1.711.4,1.819,1.819,0,0,0-.868,1.192v0.244a2.394,2.394,0,0,0,.992,1.784,5.37,5.37,0,0,0,2.354,1.007c0.267,0.027.535,0.054,0.773,0.054a3.511,3.511,0,0,0,1.706-.394,1.54,1.54,0,0,0,.868-1.16,0.737,0.737,0,0,0,.032-0.256A2.407,2.407,0,0,0,917.2,871.806Zm0.5,1.779a0.32,0.32,0,0,1-.025.145,1.129,1.129,0,0,1-.622.815,2.661,2.661,0,0,1-1.45.335,3.2,3.2,0,0,1-.711-0.053,4.578,4.578,0,0,1-2.079-.9,1.887,1.887,0,0,1-.821-1.377v-0.173a1.225,1.225,0,0,1,.614-0.811,3.1,3.1,0,0,1,1.457-.338,6.725,6.725,0,0,1,.733.052,4.573,4.573,0,0,1,2.088.931A1.837,1.837,0,0,1,917.705,873.585Zm2.67-29.043a2.483,2.483,0,0,0,.4.033,1.079,1.079,0,0,0,1.275-.858,1.739,1.739,0,0,0-1.64-1.344c-0.925-.152-1.678.243-1.678,0.826A1.752,1.752,0,0,0,920.375,844.542Zm-3.309-1.873a0.857,0.857,0,0,0-.034.284,2.334,2.334,0,0,0,1.013,1.752,5.008,5.008,0,0,0,2.364,1.039c0.264,0.027.527,0.053,0.769,0.053a3.486,3.486,0,0,0,1.712-.4,1.75,1.75,0,0,0,.866-1.191v-0.245a2.3,2.3,0,0,0-.99-1.754,5.124,5.124,0,0,0-2.408-1.041,4.127,4.127,0,0,0-2.433.352A1.726,1.726,0,0,0,917.066,842.669Zm0.475,0.284a0.423,0.423,0,0,1,.024-0.173,1.132,1.132,0,0,1,.617-0.812,3.023,3.023,0,0,1,1.455-.337c0.224,0,.448.024,0.737,0.052a4.791,4.791,0,0,1,2.078.9,1.975,1.975,0,0,1,.8,1.377v0.174a1.122,1.122,0,0,1-.615.809,3.09,3.09,0,0,1-1.457.341c-0.224,0-.445-0.024-0.736-0.053a4.582,4.582,0,0,1-2.081-.9A1.933,1.933,0,0,1,917.541,842.953Zm-1.855,7.121a0.765,0.765,0,0,0-.035.257,2.393,2.393,0,0,0,.99,1.782,4.891,4.891,0,0,0,2.323,1,4.281,4.281,0,0,0,.836.085,3.38,3.38,0,0,0,1.681-.4,1.646,1.646,0,0,0,.865-1.156,0.877,0.877,0,0,0,.032-0.282,2.423,2.423,0,0,0-1.018-1.782,5.3,5.3,0,0,0-2.333-1.009,4.365,4.365,0,0,0-2.474.342A1.526,1.526,0,0,0,915.686,850.074Zm0.472,0.12a1.258,1.258,0,0,1,.651-0.823,2.616,2.616,0,0,1,1.423-.334,3.532,3.532,0,0,1,.737.052,4.584,4.584,0,0,1,2.08.9,1.872,1.872,0,0,1,.819,1.376l0,0.165a1.239,1.239,0,0,1-.645.82,3.831,3.831,0,0,1-2.161.286,4.6,4.6,0,0,1-2.086-.931,1.843,1.843,0,0,1-.818-1.376Zm6.969-19.265a4.238,4.238,0,0,0,.834.058,3.5,3.5,0,0,0,1.708-.4,1.687,1.687,0,0,0,.873-1.194v-0.218a2.39,2.39,0,0,0-.991-1.784,5.063,5.063,0,0,0-2.323-1,3.514,3.514,0,0,0-2.51.339,1.54,1.54,0,0,0-.869,1.128,0.831,0.831,0,0,0-.035.284,2.418,2.418,0,0,0,1.02,1.781A4.941,4.941,0,0,0,923.127,830.929Zm-2.8-2.789a0.369,0.369,0,0,1,.026-0.17,1.18,1.18,0,0,1,.617-0.813,2.921,2.921,0,0,1,1.455-.338,3.382,3.382,0,0,1,.709.081,4.25,4.25,0,0,1,2.08.9,1.875,1.875,0,0,1,.82,1.376l0,0.164a1.239,1.239,0,0,1-.619.794,2.793,2.793,0,0,1-1.453.337,3.485,3.485,0,0,1-.739-0.053,4.559,4.559,0,0,1-2.077-.9A1.882,1.882,0,0,1,920.324,828.14Z" transform="translate(-870 -787)"/>
</svg>
