<svg id="display_systems" data-name="display systems" xmlns="http://www.w3.org/2000/svg" width="88.38" height="104.437" viewBox="0 0 88.38 104.437">
  <defs>
    <style>
      .cls-1 {
        fill: #155196;
      }

      .cls-1, .cls-2, .cls-3, .cls-4 {
        fill-rule: evenodd;
      }

      .cls-2 {
        fill: #fff;
      }

      .cls-3 {
        fill: none;
        stroke: #155196;
        stroke-width: 1px;
      }

      .cls-4 {
        fill: #024592;
        opacity: 0.37;
      }
    </style>
  </defs>
  <path class="cls-1" d="M1117.01,863.456a0.745,0.745,0,1,0-.84.743A0.824,0.824,0,0,0,1117.01,863.456Zm-1.26,3.966a0.776,0.776,0,0,0,.85-0.713,0.82,0.82,0,0,0-.63-0.912A0.824,0.824,0,0,0,1115.75,867.422Zm-1.27-10.872a0.794,0.794,0,0,0-.66-0.908,0.829,0.829,0,0,0-.84.747,0.8,0.8,0,0,0,.65.907A0.844,0.844,0,0,0,1114.48,856.55Zm4.65,11.313a0.818,0.818,0,0,0,.85-0.715,0.784,0.784,0,0,0-.63-0.915A0.826,0.826,0,0,0,1119.13,867.863Zm-5.07-8.061a0.745,0.745,0,1,0-1.47-.165,0.764,0.764,0,0,0,.63.91A0.809,0.809,0,0,0,1114.06,859.8Zm3.37,0.4a0.8,0.8,0,0,0-.65-0.91,0.79,0.79,0,0,0-.82.744,0.765,0.765,0,0,0,.62.911A0.83,0.83,0,0,0,1117.43,860.2Zm-10.05-1.165a0.727,0.727,0,1,0-1.43-.193,0.808,0.808,0,0,0,.62.906A0.759,0.759,0,0,0,1107.38,859.036Zm13.02,4.854a0.75,0.75,0,1,0-.85.716A0.8,0.8,0,0,0,1120.4,863.89Zm-10.08-1.242a0.744,0.744,0,1,0-1.47-.167A0.742,0.742,0,1,0,1110.32,862.648Zm3.32,0.4a0.741,0.741,0,1,0-1.46-.168,0.774,0.774,0,0,0,.62.882A0.764,0.764,0,0,0,1113.64,863.052Zm-5.84-7.257a0.8,0.8,0,0,0-.62-0.9,0.809,0.809,0,0,0-.84.744,0.753,0.753,0,0,0,.62.877A0.767,0.767,0,0,0,1107.8,855.8Zm1.28,10.776a0.743,0.743,0,0,0,.82-0.709,0.729,0.729,0,1,0-1.44-.171A0.764,0.764,0,0,0,1109.08,866.571Zm1.62-7.167a0.748,0.748,0,0,0-.62-0.878,0.738,0.738,0,0,0-.81.713,0.755,0.755,0,0,0,.62.908A0.78,0.78,0,0,0,1110.7,859.4Zm1.71,7.606a0.788,0.788,0,0,0,.82-0.711,0.779,0.779,0,0,0-.63-0.911A0.823,0.823,0,0,0,1112.41,867.01Zm-1.29-10.852a0.742,0.742,0,1,0-1.47-.162,0.8,0.8,0,0,0,.62.907A0.824,0.824,0,0,0,1111.12,856.158Zm6.73,0.784a0.745,0.745,0,1,0-1.47-.163,0.729,0.729,0,0,0,.62.882A0.775,0.775,0,0,0,1117.85,856.942Zm9.05-15.919a0.761,0.761,0,0,0-.63-0.911,0.869,0.869,0,0,0-.89.761,0.76,0.76,0,0,0,.64.911A0.819,0.819,0,0,0,1126.9,841.023Zm-0.44,3.37a0.819,0.819,0,0,0-.64-0.94,0.882,0.882,0,0,0-.88.788,0.787,0.787,0,0,0,.66.91A0.825,0.825,0,0,0,1126.46,844.393Zm-5.64,16.207a0.771,0.771,0,0,0-.63-0.912,0.817,0.817,0,0,0-.85.747A0.75,0.75,0,1,0,1120.82,860.6Zm6.97-26.354a0.746,0.746,0,0,0-.63-0.91,0.9,0.9,0,0,0-.89.795,0.791,0.791,0,0,0,.67.908A0.82,0.82,0,0,0,1127.79,834.246Zm0.48-3.379a0.8,0.8,0,0,0-.67-0.937,0.908,0.908,0,0,0-.89.8,0.808,0.808,0,0,0,.67.936A0.892,0.892,0,0,0,1128.27,830.867Zm-2.68,20.2a0.8,0.8,0,0,0-.66-0.912,0.817,0.817,0,0,0-.86.755,0.777,0.777,0,0,0,.64.912A0.83,0.83,0,0,0,1125.59,851.066Zm1.76-13.415a0.747,0.747,0,0,0-.64-0.911,0.839,0.839,0,0,0-.88.763,0.792,0.792,0,0,0,.66.938A0.86,0.86,0,0,0,1127.35,837.651Zm-1.34,10.081a0.757,0.757,0,0,0-.63-0.913,0.86,0.86,0,0,0-.89.758A0.767,0.767,0,1,0,1126.01,847.732Zm-3.46,20.571a0.785,0.785,0,0,0,.82-0.742,0.777,0.777,0,0,0-.63-0.916,0.834,0.834,0,0,0-.85.744A0.81,0.81,0,0,0,1122.55,868.3Zm1.28-4.007a0.783,0.783,0,0,0-.64-0.916,0.8,0.8,0,0,0-.85.745,0.742,0.742,0,0,0,.63.888A0.787,0.787,0,0,0,1123.83,864.3Zm-2.56-6.961a0.782,0.782,0,0,0-.66-0.911,0.824,0.824,0,0,0-.2,1.632A0.817,0.817,0,0,0,1121.27,857.335Zm3.87-2.935a0.783,0.783,0,0,0-.66-0.913,0.841,0.841,0,0,0-.85.751,0.8,0.8,0,0,0,.63.914A0.849,0.849,0,0,0,1125.14,854.4Zm-0.87,6.6a0.763,0.763,0,1,0-1.51-.166,0.8,0.8,0,0,0,.63.915A0.846,0.846,0,0,0,1124.27,861Zm0.42-3.3a0.8,0.8,0,0,0-.63-0.913,0.847,0.847,0,0,0-.88.75,0.785,0.785,0,0,0,.66.913A0.809,0.809,0,0,0,1124.69,857.7Zm-41.5-14.3a0.766,0.766,0,0,0-.6-0.864,0.749,0.749,0,0,0-.76.739A0.692,0.692,0,1,0,1083.19,843.4Zm10.41,14.794a0.736,0.736,0,0,0,.8-0.708,0.766,0.766,0,0,0-.61-0.872,0.752,0.752,0,0,0-.77.708A0.718,0.718,0,0,0,1093.6,858.191Zm-4.46-10.954a0.735,0.735,0,0,0-.63-0.865,0.8,0.8,0,0,0-.16,1.577A0.745,0.745,0,0,0,1089.14,847.237Zm-7.72,6.352a0.77,0.77,0,0,0,.77-0.705,0.752,0.752,0,0,0-.61-0.865,0.724,0.724,0,0,0-.76.706A0.751,0.751,0,0,0,1081.42,853.589Zm10.89-6a0.717,0.717,0,1,0-1.41-.155,0.752,0.752,0,0,0,.61.868A0.8,0.8,0,0,0,1092.31,847.586Zm-3.89,6.016a0.783,0.783,0,0,0-.61-0.9,0.743,0.743,0,0,0-.76.735,0.756,0.756,0,0,0,.6.868A0.746,0.746,0,0,0,1088.42,853.6Zm3.54-2.827a0.717,0.717,0,1,0-1.41-.158,0.769,0.769,0,0,0,.61.868A0.8,0.8,0,0,0,1091.96,850.775Zm-0.38,3.187a0.784,0.784,0,0,0-.61-0.9,0.742,0.742,0,0,0-.76.735,0.733,0.733,0,0,0,.6.869A0.745,0.745,0,0,0,1091.58,853.962Zm-1.15,3.862a0.79,0.79,0,0,0,.8-0.708,0.756,0.756,0,0,0-.61-0.869A0.806,0.806,0,0,0,1090.43,857.824Zm38.28-30.4a0.761,0.761,0,0,0-.67-0.907,0.824,0.824,0,0,0-.85.8,0.743,0.743,0,0,0,.63.909A0.872,0.872,0,0,0,1128.71,827.428Zm-41.4,30.029a0.741,0.741,0,0,0,.76-0.705,0.8,0.8,0,0,0-.61-0.9,0.741,0.741,0,0,0-.76.733A0.763,0.763,0,0,0,1087.31,857.457Zm-4.81-7.714a0.679,0.679,0,1,0-.76.707A0.739,0.739,0,0,0,1082.5,849.743Zm0.35-3.172a0.747,0.747,0,0,0-.61-0.863,0.787,0.787,0,0,0-.76.736,0.765,0.765,0,0,0,.61.863A0.746,0.746,0,0,0,1082.85,846.571Zm1.65,7.378a0.794,0.794,0,0,0,.8-0.734,0.74,0.74,0,0,0-.61-0.839,0.7,0.7,0,0,0-.76.706A0.742,0.742,0,0,0,1084.5,853.949Zm1.49-7.06a0.729,0.729,0,0,0-.6-0.836,0.774,0.774,0,0,0-.8.71,0.749,0.749,0,0,0,.61.865A0.79,0.79,0,0,0,1085.99,846.889Zm20.2,16.068a0.762,0.762,0,0,0,.81-0.712,0.808,0.808,0,0,0-.62-0.906,0.778,0.778,0,0,0-.81.739A0.75,0.75,0,0,0,1106.19,862.957Zm-20.58-12.888a0.712,0.712,0,0,0-.57-0.867,0.785,0.785,0,0,0-.79.708,0.737,0.737,0,0,0,.6.866A0.72,0.72,0,0,0,1085.61,850.069Zm16.38-1.463a0.767,0.767,0,0,0-.62-0.9,0.79,0.79,0,0,0-.81.744A0.723,0.723,0,1,0,1101.99,848.606Zm-0.38,3.206a0.78,0.78,0,0,0-.62-0.873A0.82,0.82,0,1,0,1101.61,851.812Zm-6.85,2.51a0.759,0.759,0,0,0-.59-0.9,0.784,0.784,0,0,0-.8.739,0.772,0.772,0,0,0,.61.87A0.755,0.755,0,0,0,1094.76,854.322Zm9.73,1.083a0.767,0.767,0,0,0-.62-0.875,0.791,0.791,0,0,0-.81.713,0.773,0.773,0,0,0,.62.9A0.782,0.782,0,0,0,1104.49,855.405Zm0.38-3.209a0.736,0.736,0,0,0-.62-0.9,0.821,0.821,0,0,0-.19,1.618A0.78,0.78,0,0,0,1104.87,852.2Zm-1.57,7.155a0.767,0.767,0,0,0,.81-0.712,0.8,0.8,0,0,0-.62-0.9,0.776,0.776,0,0,0-.81.711A0.766,0.766,0,0,0,1103.3,859.351Zm-3.27-.4a0.738,0.738,0,0,0,.81-0.711,0.769,0.769,0,0,0-.61-0.875,0.738,0.738,0,0,0-.81.711A0.76,0.76,0,0,0,1100.03,858.955Zm1.19-3.912a0.8,0.8,0,0,0-.61-0.9,0.788,0.788,0,0,0-.81.741,0.8,0.8,0,0,0,.62.9A0.779,0.779,0,0,0,1101.22,855.043Zm-2.49-6.786a0.776,0.776,0,0,0-.61-0.9,0.8,0.8,0,0,0-.81.743A0.719,0.719,0,1,0,1098.73,848.257Zm-3.22-.35a0.739,0.739,0,0,0-.61-0.87,0.819,0.819,0,0,0-.19,1.612A0.793,0.793,0,0,0,1095.51,847.907Zm-0.38,3.195a0.7,0.7,0,1,0-1.38-.131,0.729,0.729,0,0,0,.59.871A0.771,0.771,0,0,0,1095.13,851.1Zm1.68,7.484a0.782,0.782,0,0,0,.81-0.71,0.8,0.8,0,0,0-.62-0.9,0.794,0.794,0,0,0-.8.737A0.775,0.775,0,0,0,1096.81,858.586Zm1.19-3.9a0.8,0.8,0,0,0-.61-0.9,0.771,0.771,0,0,0-.81.739,0.716,0.716,0,0,0,.62.873A0.751,0.751,0,0,0,1098,854.681Zm0.35-3.224a0.733,0.733,0,0,0-.61-0.871,0.806,0.806,0,0,0-.81.74A0.719,0.719,0,1,0,1098.35,851.457Zm-9.58-1.035a0.731,0.731,0,0,0-.61-0.868A0.8,0.8,0,1,0,1088.77,850.422Zm5.77-35.549a0.771,0.771,0,0,0,.65.888,0.833,0.833,0,0,0,.8-0.787,0.76,0.76,0,0,0-.62-0.89A0.861,0.861,0,0,0,1094.54,814.873Zm-2.06-4.314a0.856,0.856,0,0,0-.8.787,0.768,0.768,0,0,0,.62.889,0.8,0.8,0,0,0,.79-0.789A0.744,0.744,0,0,0,1092.48,810.559Zm1.73,7.635a0.7,0.7,0,0,0,.61.863,0.834,0.834,0,0,0,.79-0.785,0.72,0.72,0,0,0-.61-0.863A0.773,0.773,0,0,0,1094.21,818.194Zm-4.95-7.806a0.82,0.82,0,0,0-.79.787,0.717,0.717,0,0,0,.61.858,0.818,0.818,0,0,0,.79-0.786A0.737,0.737,0,0,0,1089.26,810.388Zm1.35,10.854a0.715,0.715,0,0,0,.61.889,0.832,0.832,0,0,0,.79-0.781,0.72,0.72,0,0,0-.61-0.862A0.77,0.77,0,0,0,1090.61,821.242Zm0.71-6.575a0.768,0.768,0,0,0,.61.888,0.813,0.813,0,0,0,.8-0.786,0.725,0.725,0,0,0-.62-0.888A0.816,0.816,0,0,0,1091.32,814.667Zm-0.37,3.289a0.754,0.754,0,0,0,.61.889,0.862,0.862,0,0,0,.82-0.785,0.718,0.718,0,0,0-.63-0.86A0.792,0.792,0,0,0,1090.95,817.956Zm2.85,3.533a0.731,0.731,0,0,0,.65.861,0.82,0.82,0,0,0,.8-0.755,0.762,0.762,0,0,0-.62-0.891A0.858,0.858,0,0,0,1093.8,821.489Zm6.55,0.462a0.774,0.774,0,0,0,.62.895,0.875,0.875,0,0,0,.83-0.788,0.774,0.774,0,0,0-.62-0.895A0.833,0.833,0,0,0,1100.35,821.951Zm0.37-3.332a0.769,0.769,0,0,0,.65.892,0.825,0.825,0,0,0,.8-0.788,0.731,0.731,0,0,0-.62-0.895A0.875,0.875,0,0,0,1100.72,818.619Zm-1.71-7.693a0.856,0.856,0,0,0-.8.818,0.733,0.733,0,0,0,.62.863,0.834,0.834,0,0,0,.83-0.792A0.771,0.771,0,0,0,1099.01,810.926Zm-1.57,7.481a0.739,0.739,0,0,0,.64.862,0.822,0.822,0,0,0,.81-0.786,0.742,0.742,0,0,0-.62-0.864A0.853,0.853,0,0,0,1097.44,818.407Zm31.71,5.58a0.743,0.743,0,0,0-.63-0.909,0.879,0.879,0,0,0-.89.8,0.761,0.761,0,0,0,.64.936A0.878,0.878,0,0,0,1129.15,823.987Zm-33.41-13.231a0.828,0.828,0,0,0-.8.789,0.731,0.731,0,0,0,.62.889,0.845,0.845,0,0,0,.79-0.816A0.713,0.713,0,0,0,1095.74,810.756Zm2.07,4.322a0.766,0.766,0,0,0,.65.89,0.827,0.827,0,0,0,.8-0.789,0.729,0.729,0,0,0-.62-0.892A0.877,0.877,0,0,0,1097.81,815.078Zm-10.08,2.667a0.764,0.764,0,0,0,.64.886,0.834,0.834,0,0,0,.79-0.783,0.716,0.716,0,0,0-.63-0.858A0.817,0.817,0,0,0,1087.73,817.745Zm-6.31-.426a0.722,0.722,0,0,0,.61.857,0.761,0.761,0,0,0,.76-0.751,0.716,0.716,0,0,0-.61-0.856A0.773,0.773,0,0,0,1081.42,817.319Zm0.34-3.243a0.736,0.736,0,0,0,.61.856,0.833,0.833,0,0,0,.78-0.782,0.726,0.726,0,0,0-.63-0.854A0.788,0.788,0,0,0,1081.76,814.076Zm-0.67,6.485a0.738,0.738,0,0,0,.6.884,0.784,0.784,0,0,0,.76-0.777,0.737,0.737,0,0,0-.61-0.856A0.757,0.757,0,0,0,1081.09,820.561Zm-2.45-6.692a0.709,0.709,0,0,0,.6.855,0.775,0.775,0,0,0,.76-0.752,0.747,0.747,0,0,0-.61-0.882A0.808,0.808,0,0,0,1078.64,813.869Zm1.09-4.021a0.764,0.764,0,0,0-.76.753,0.73,0.73,0,0,0,.58.883,0.816,0.816,0,0,0,.78-0.782A0.719,0.719,0,0,0,1079.73,809.848Zm-1.43,7.259a0.765,0.765,0,0,0,.6.882,0.806,0.806,0,0,0,.76-0.776,0.72,0.72,0,0,0-.6-0.855A0.759,0.759,0,0,0,1078.3,817.107Zm4.58-7.088a0.816,0.816,0,0,0-.78.784,0.728,0.728,0,0,0,.6.855,0.817,0.817,0,0,0,.79-0.784A0.719,0.719,0,0,0,1082.88,810.019Zm4.51,11.006a0.74,0.74,0,0,0,.61.86,0.814,0.814,0,0,0,.8-0.753,0.769,0.769,0,0,0-.61-0.888A0.851,0.851,0,0,0,1087.39,821.025Zm0.71-6.564a0.75,0.75,0,0,0,.61.886,0.8,0.8,0,0,0,.79-0.783,0.759,0.759,0,0,0-.61-0.887A0.837,0.837,0,0,0,1088.1,814.461Zm-2.05-4.271a0.838,0.838,0,0,0-.79.785,0.766,0.766,0,0,0,.61.885,0.819,0.819,0,0,0,.79-0.785A0.764,0.764,0,0,0,1086.05,810.19Zm15.07,5.091a0.772,0.772,0,0,0,.62.894,0.855,0.855,0,0,0,.83-0.792,0.755,0.755,0,0,0-.62-0.893A0.836,0.836,0,0,0,1101.12,815.281Zm-16.19-1a0.73,0.73,0,0,0,.6.857,0.834,0.834,0,0,0,.79-0.783,0.722,0.722,0,0,0-.6-0.857A0.8,0.8,0,0,0,1084.93,814.282Zm-0.37,3.251a0.724,0.724,0,0,0,.6.858,0.786,0.786,0,0,0,.8-0.754,0.723,0.723,0,0,0-.61-0.858A0.789,0.789,0,0,0,1084.56,817.533Zm-0.34,3.274a0.738,0.738,0,0,0,.61.858,0.8,0.8,0,0,0,.79-0.751,0.768,0.768,0,0,0-.61-0.886A0.811,0.811,0,0,0,1084.22,820.807Zm12.85,0.9a0.771,0.771,0,0,0,.62.892,0.81,0.81,0,0,0,.8-0.784,0.7,0.7,0,0,0-.62-0.865A0.8,0.8,0,0,0,1097.07,821.706Zm21.39-8.778a0.761,0.761,0,0,0,.63.9,0.883,0.883,0,0,0,.88-0.83,0.758,0.758,0,0,0-.66-0.9A0.869,0.869,0,0,0,1118.46,812.928Zm-0.43,3.429a0.746,0.746,0,0,0,.66.9,0.844,0.844,0,0,0,.84-0.826,0.753,0.753,0,0,0-.66-0.9A0.885,0.885,0,0,0,1118.03,816.357Zm1.74-7.693a0.892,0.892,0,0,0-.88.805,0.752,0.752,0,0,0,.67.927,0.94,0.94,0,0,0,.84-0.831A0.722,0.722,0,0,0,1119.77,808.664Zm-5.18,7.461a0.747,0.747,0,0,0,.63.9,0.9,0.9,0,0,0,.88-0.8,0.78,0.78,0,0,0-.66-0.9A0.858,0.858,0,0,0,1114.59,816.125Zm0.41-3.42a0.79,0.79,0,0,0,.66.925,0.866,0.866,0,0,0,.84-0.827,0.727,0.727,0,0,0-.62-0.9A0.892,0.892,0,0,0,1115,812.705Zm2.59,7.049a0.774,0.774,0,0,0,.66.9,0.854,0.854,0,0,0,.85-0.8,0.73,0.73,0,0,0-.63-0.9A0.889,0.889,0,0,0,1117.59,819.754Zm3.47,0.237a0.761,0.761,0,0,0,.66.9,0.847,0.847,0,0,0,.85-0.8,0.758,0.758,0,0,0-.63-0.932A0.923,0.923,0,0,0,1121.06,819.991Zm-4.78-11.512a0.872,0.872,0,0,0-.85.8,0.769,0.769,0,0,0,.66.925,0.922,0.922,0,0,0,.85-0.829A0.742,0.742,0,0,0,1116.28,808.479Zm9.17,4.841a0.774,0.774,0,0,0,.67.931,0.929,0.929,0,0,0,.88-0.834,0.793,0.793,0,0,0-.67-0.931A0.908,0.908,0,0,0,1125.45,813.32Zm1.32-4.28a0.905,0.905,0,0,0-.88.807,0.794,0.794,0,0,0,.66.931,0.932,0.932,0,0,0,.89-0.835A0.734,0.734,0,0,0,1126.77,809.04Zm-1.79,7.751a0.782,0.782,0,0,0,.67.9,0.878,0.878,0,0,0,.88-0.8,0.775,0.775,0,0,0-.66-0.932A0.905,0.905,0,0,0,1124.98,816.791Zm-3.05-3.666a0.76,0.76,0,0,0,.67.9,0.91,0.91,0,0,0,.88-0.8,0.793,0.793,0,0,0-.67-0.93A0.905,0.905,0,0,0,1121.93,813.125Zm-0.43,3.434a0.74,0.74,0,0,0,.66.9,0.829,0.829,0,0,0,.85-0.8,0.718,0.718,0,0,0-.63-0.9A0.891,0.891,0,0,0,1121.5,816.559Zm3.05,3.67a0.771,0.771,0,0,0,.66.9,0.9,0.9,0,0,0,.88-0.83,0.756,0.756,0,0,0-.66-0.9A0.892,0.892,0,0,0,1124.55,820.229Zm-1.3-11.376a0.9,0.9,0,0,0-.88.806,0.791,0.791,0,0,0,.66.928,0.965,0.965,0,0,0,.89-0.834A0.737,0.737,0,0,0,1123.25,808.853Zm-12.07,7.069a0.753,0.753,0,0,0,.62.9,0.9,0.9,0,0,0,.88-0.8,0.789,0.789,0,0,0-.66-0.925A0.845,0.845,0,0,0,1111.18,815.922Zm-4.18,6.491a0.74,0.74,0,0,0,.62.9,0.84,0.84,0,0,0,.84-0.79,0.783,0.783,0,0,0-.63-0.9A0.834,0.834,0,0,0,1107,822.413Zm0.8-6.724a0.772,0.772,0,0,0,.63.925,0.878,0.878,0,0,0,.84-0.822,0.758,0.758,0,0,0-.63-0.9A0.839,0.839,0,0,0,1107.8,815.689Zm-2.12-4.371a0.841,0.841,0,0,0-.84.8,0.756,0.756,0,0,0,.62.894,0.84,0.84,0,0,0,.84-0.795A0.749,0.749,0,0,0,1105.68,811.318Zm1.72,7.749a0.761,0.761,0,0,0,.62.9,0.838,0.838,0,0,0,.84-0.792,0.739,0.739,0,0,0-.62-0.9A0.838,0.838,0,0,0,1107.4,819.067Zm-3.73,3.129a0.706,0.706,0,0,0,.62.867,0.848,0.848,0,0,0,.83-0.789,0.743,0.743,0,0,0-.65-0.866A0.8,0.8,0,0,0,1103.67,822.2Zm0.37-3.339a0.729,0.729,0,0,0,.65.866,0.8,0.8,0,0,0,.8-0.79,0.687,0.687,0,0,0-.61-0.867A0.835,0.835,0,0,0,1104.04,818.857Zm0.4-3.371a0.757,0.757,0,0,0,.62.895,0.839,0.839,0,0,0,.84-0.793,0.737,0.737,0,0,0-.62-0.895A0.839,0.839,0,0,0,1104.44,815.486Zm9.72,4.029a0.773,0.773,0,0,0,.66.9,0.837,0.837,0,0,0,.84-0.795,0.744,0.744,0,0,0-.65-0.9A0.879,0.879,0,0,0,1114.16,819.515Zm-1.74-7.8a0.881,0.881,0,0,0-.84.8,0.747,0.747,0,0,0,.65.9,0.883,0.883,0,0,0,.85-0.8A0.756,0.756,0,0,0,1112.42,811.71Zm1.33,11.192a0.763,0.763,0,0,0,.63.9,0.9,0.9,0,0,0,.88-0.794,0.766,0.766,0,0,0-.66-0.9A0.853,0.853,0,0,0,1113.75,822.9Zm-4.7-11.389a0.843,0.843,0,0,0-.84.8,0.724,0.724,0,0,0,.62.9,0.847,0.847,0,0,0,.84-0.8A0.738,0.738,0,0,0,1109.05,811.513Zm-6.73-.39a0.834,0.834,0,0,0-.8.819,0.7,0.7,0,0,0,.62.865,0.878,0.878,0,0,0,.83-0.793A0.765,0.765,0,0,0,1102.32,811.123Zm8.45,8.154a0.714,0.714,0,0,0,.63.9,0.817,0.817,0,0,0,.84-0.793,0.754,0.754,0,0,0-.63-0.9A0.851,0.851,0,0,0,1110.77,819.277Zm-0.43,3.382a0.773,0.773,0,0,0,.65.9,0.853,0.853,0,0,0,.84-0.791,0.766,0.766,0,0,0-.65-0.9A0.876,0.876,0,0,0,1110.34,822.659Zm-29.93,4.376a0.741,0.741,0,0,0,.6.858,0.754,0.754,0,0,0,.76-0.744,0.734,0.734,0,0,0-.6-0.859A0.756,0.756,0,0,0,1080.41,827.035Zm38.72,20a0.792,0.792,0,0,0-.66-0.907,0.827,0.827,0,0,0-.85.754,0.8,0.8,0,0,0,.63.908A0.853,0.853,0,0,0,1119.13,847.037Zm-0.44,3.324a0.754,0.754,0,0,0-.63-0.909,0.782,0.782,0,0,0-.85.752,0.735,0.735,0,0,0,.62.881A0.772,0.772,0,0,0,1118.69,850.361Zm-1.27,4.042a0.81,0.81,0,0,0,.85-0.75,0.749,0.749,0,1,0-1.48-.16A0.784,0.784,0,0,0,1117.42,854.4Zm1.06-14.168a0.776,0.776,0,0,0,.66.9,0.83,0.83,0,0,0,.85-0.757,0.79,0.79,0,0,0-.66-0.906A0.83,0.83,0,0,0,1118.48,840.235Zm1.07-2.423a0.835,0.835,0,0,0,.85-0.788,0.771,0.771,0,0,0-.63-0.907,0.885,0.885,0,0,0-.88.789A0.789,0.789,0,0,0,1119.55,837.812Zm-0.01,5.9a0.74,0.74,0,0,0-.63-0.909,0.817,0.817,0,0,0-.85.756,0.752,0.752,0,0,0,.63.908A0.827,0.827,0,0,0,1119.54,843.713Zm-3.84-2.878a0.841,0.841,0,0,0,.85-0.784,0.723,0.723,0,0,0-.63-0.878,0.818,0.818,0,0,0-.85.756A0.75,0.75,0,0,0,1115.7,840.835Zm5.13,13.928a0.8,0.8,0,0,0,.85-0.751,0.763,0.763,0,0,0-.63-0.911,0.85,0.85,0,0,0-.88.752A0.8,0.8,0,0,0,1120.83,854.763Zm-8.09-11.7a0.744,0.744,0,0,0-.62-0.9,0.81,0.81,0,0,0-.85.754,0.792,0.792,0,0,0,.63.9A0.805,0.805,0,0,0,1112.74,843.062Zm-0.41,3.286a0.718,0.718,0,0,0-.62-0.878,0.845,0.845,0,0,0-.85.751,0.775,0.775,0,0,0,.62.878A0.813,0.813,0,0,0,1112.33,846.348Zm-0.02-5.848a0.8,0.8,0,0,0,.84-0.754,0.735,0.735,0,0,0-.62-0.876,0.8,0.8,0,0,0-.85.755A0.761,0.761,0,0,0,1112.31,840.5Zm3.83,2.9a0.774,0.774,0,0,0-.66-0.9,0.8,0.8,0,0,0-.82.753,0.749,0.749,0,0,0,.63.9A0.832,0.832,0,0,0,1116.14,843.4Zm-0.42,3.291a0.783,0.783,0,0,0-.66-0.9,0.793,0.793,0,0,0-.81.749,0.753,0.753,0,0,0,.62.908A0.837,0.837,0,0,0,1115.72,846.692Zm-1.67,7.323a0.785,0.785,0,0,0,.81-0.747,0.714,0.714,0,0,0-.62-0.88,0.821,0.821,0,0,0-.85.72A0.794,0.794,0,0,0,1114.05,854.015Zm1.23-4a0.752,0.752,0,0,0-.63-0.908,0.767,0.767,0,0,0-.81.749,0.726,0.726,0,0,0,.62.878A0.8,0.8,0,0,0,1115.28,850.011Zm1.46-23.473a0.783,0.783,0,0,0,.66.9,0.841,0.841,0,0,0,.85-0.792,0.765,0.765,0,0,0-.63-0.9A0.868,0.868,0,0,0,1116.74,826.538Zm-4.83,23.092a0.727,0.727,0,0,0-.62-0.878,0.763,0.763,0,0,0-.81.72,0.739,0.739,0,0,0,.62.906A0.785,0.785,0,0,0,1111.91,849.63Zm6.12-27.278a0.845,0.845,0,0,0-.85.794,0.744,0.744,0,0,0,.63.9,0.87,0.87,0,0,0,.88-0.8A0.782,0.782,0,0,0,1118.03,822.352Zm-1.7,7.544a0.733,0.733,0,0,0,.63.9,0.866,0.866,0,0,0,.88-0.792,0.751,0.751,0,0,0-.66-0.874A0.824,0.824,0,0,0,1116.33,829.9Zm-0.44,3.357a0.787,0.787,0,0,0,.66.9,0.851,0.851,0,0,0,.85-0.76,0.745,0.745,0,0,0-.66-0.9A0.858,0.858,0,0,0,1115.89,833.253Zm6.24,17.461a0.78,0.78,0,0,0-.66-0.91,0.823,0.823,0,0,0-.85.752,0.8,0.8,0,0,0,.63.911A0.852,0.852,0,0,0,1122.13,850.714Zm-6.64-14.107a0.756,0.756,0,0,0,.62.9,0.878,0.878,0,0,0,.88-0.787,0.787,0.787,0,0,0-.66-0.9A0.828,0.828,0,0,0,1115.49,836.607Zm3.84-3.061a0.769,0.769,0,0,0,.63.906,0.888,0.888,0,0,0,.88-0.791,0.78,0.78,0,0,0-.66-0.9A0.886,0.886,0,0,0,1119.33,833.546Zm-5.14-8.051a0.857,0.857,0,0,0-.87.764,0.788,0.788,0,0,0,.66.928,0.865,0.865,0,0,0,.84-0.819A0.736,0.736,0,0,0,1114.19,825.5Zm9.25,15.222a0.821,0.821,0,0,0-.66-0.937,0.865,0.865,0,0,0-.86.787,0.753,0.753,0,0,0,.64.91A0.858,0.858,0,0,0,1123.44,840.717Zm-10.53-11.077a0.784,0.784,0,0,0,.66.9,0.871,0.871,0,0,0,.84-0.789,0.784,0.784,0,0,0-.65-0.9A0.832,0.832,0,0,0,1112.91,829.64Zm9.64,17.745a0.755,0.755,0,0,0-.63-0.911,0.864,0.864,0,0,0-.89.756,0.794,0.794,0,0,0,.66.909A0.817,0.817,0,0,0,1122.55,847.385Zm-2.78-17.2a0.748,0.748,0,0,0,.63.906,0.882,0.882,0,0,0,.88-0.793,0.773,0.773,0,0,0-.66-0.9A0.848,0.848,0,0,0,1119.77,830.182Zm4.11,7.169a0.8,0.8,0,0,0-.66-0.936,0.878,0.878,0,0,0-.88.79,0.776,0.776,0,0,0,.66.907A0.859,0.859,0,0,0,1123.88,837.351Zm-3.7-10.562a0.769,0.769,0,0,0,.66.9,0.817,0.817,0,0,0,.85-0.794,0.739,0.739,0,0,0-.63-0.9A0.9,0.9,0,0,0,1120.18,826.789Zm1.32-4.195a0.881,0.881,0,0,0-.88.8,0.749,0.749,0,0,0,.66.9,0.82,0.82,0,0,0,.85-0.8A0.752,0.752,0,0,0,1121.5,822.594Zm1.49,21.459a0.778,0.778,0,0,0-.66-0.909,0.846,0.846,0,0,0-.85.756,0.789,0.789,0,0,0,.63.91A0.857,0.857,0,0,0,1122.99,844.053Zm1.78-19.484a0.9,0.9,0,0,0,.88-0.827,0.778,0.778,0,0,0-.66-0.9,0.9,0.9,0,0,0-.89.8A0.8,0.8,0,0,0,1124.77,824.569Zm-45.34,24.821a0.766,0.766,0,0,0-.6-0.863,0.744,0.744,0,0,0-.76.733,0.729,0.729,0,0,0,.6.835A0.718,0.718,0,0,0,1079.43,849.39Zm48.64-28.952a0.8,0.8,0,0,0,.67.933,0.9,0.9,0,0,0,.88-0.83,0.758,0.758,0,0,0-.66-0.906A0.9,0.9,0,0,0,1128.07,820.438Zm-17.38,33.19a0.769,0.769,0,0,0,.84-0.719,0.8,0.8,0,0,0-.65-0.906,0.784,0.784,0,0,0-.81.746A0.733,0.733,0,0,0,1110.69,853.628Zm-30.95-7.376a0.676,0.676,0,1,0-1.32-.129,0.773,0.773,0,0,0,.57.864A0.743,0.743,0,0,0,1079.74,846.252Zm43.92-19.213a0.8,0.8,0,0,0,.67.934,0.918,0.918,0,0,0,.88-0.8,0.771,0.771,0,0,0-.66-0.906A0.854,0.854,0,0,0,1123.66,827.039Zm-43.57,16.043a0.763,0.763,0,0,0-.6-0.861A0.814,0.814,0,1,0,1080.09,843.082Zm-1.58,8.581a0.742,0.742,0,0,0-.76.7,0.75,0.75,0,0,0,.6.863,0.707,0.707,0,0,0,.73-0.7A0.725,0.725,0,0,0,1078.51,851.663Zm-3.44,9.8a0.794,0.794,0,0,0-.57-0.864,0.731,0.731,0,0,0-.76.7,0.769,0.769,0,0,0,.6.863A0.735,0.735,0,0,0,1075.07,861.465Zm-0.89,2.229a0.719,0.719,0,0,0-.76.67,0.753,0.753,0,0,0,.6.863,0.7,0.7,0,0,0,.73-0.695A0.747,0.747,0,0,0,1074.18,863.694Zm55.15-19.873a0.838,0.838,0,0,0-.89.759,0.77,0.77,0,0,0,.63.914,0.842,0.842,0,0,0,.89-0.76A0.763,0.763,0,0,0,1129.33,843.821Zm-53.95,14.548a0.731,0.731,0,0,0-.56-0.837,0.693,0.693,0,0,0-.76.672,0.744,0.744,0,0,0,.6.863A0.7,0.7,0,0,0,1075.38,858.369Zm53.6-44.853a0.774,0.774,0,0,0,.67.932,0.894,0.894,0,0,0,.89-0.835,0.761,0.761,0,0,0-.67-0.9A0.9,0.9,0,0,0,1128.98,813.516ZM1075.7,855.27a0.735,0.735,0,0,0-.57-0.836,0.7,0.7,0,0,0-.75.7,0.724,0.724,0,0,0,.59.834A0.688,0.688,0,0,0,1075.7,855.27Zm54.42-44.3a0.9,0.9,0,0,0,.88-0.837,0.741,0.741,0,0,0-.66-0.9,0.89,0.89,0,0,0-.89.837A0.762,0.762,0,0,0,1130.12,810.967Zm-1.61,6.026a0.8,0.8,0,0,0,.67.934,0.922,0.922,0,0,0,.92-0.835,0.768,0.768,0,0,0-.67-0.9A0.92,0.92,0,0,0,1128.51,816.993Zm-5.29,13.447a0.772,0.772,0,0,0,.66.906,0.8,0.8,0,0,0,.86-0.764,0.749,0.749,0,0,0-.63-0.908A0.874,0.874,0,0,0,1123.22,830.44Zm-17.15,11.972a0.776,0.776,0,0,0-.62-0.9,0.8,0.8,0,0,0-.83.75,0.777,0.777,0,0,0,.62.9A0.834,0.834,0,0,0,1106.07,842.412Zm2.52,6.866a0.751,0.751,0,0,0-.62-0.876,0.825,0.825,0,0,0-.22,1.625A0.814,0.814,0,0,0,1108.59,849.278Zm-2.94-9.39a0.8,0.8,0,0,0,.81-0.751,0.766,0.766,0,0,0-.63-0.9,0.835,0.835,0,0,0-.83.753A0.77,0.77,0,0,0,1105.65,839.888Zm3.3,0.306a0.833,0.833,0,0,0,.85-0.753,0.789,0.789,0,0,0-.63-0.9,0.812,0.812,0,0,0-.84.782A0.761,0.761,0,0,0,1108.95,840.194Zm0.02,5.809a0.711,0.711,0,0,0-.61-0.876,0.8,0.8,0,0,0-.82.749,0.736,0.736,0,0,0,.62.875A0.768,0.768,0,0,0,1108.97,846Zm0.42-3.28a0.74,0.74,0,0,0-.62-0.874,0.81,0.81,0,0,0-.85.751,0.76,0.76,0,0,0,.65.874A0.784,0.784,0,0,0,1109.39,842.723Zm-2.02,10.547a0.823,0.823,0,1,0-.62-0.877A0.747,0.747,0,0,0,1107.37,853.27Zm-1.7-7.584a0.747,0.747,0,0,0-.63-0.9,0.784,0.784,0,0,0-.8.747,0.736,0.736,0,0,0,.62.9A0.8,0.8,0,0,0,1105.67,845.686Zm17.11-11.848a0.789,0.789,0,0,0,.66.907,0.875,0.875,0,0,0,.89-0.793,0.788,0.788,0,0,0-.67-0.906A0.888,0.888,0,0,0,1122.78,833.838Zm-21.03,10.632a0.793,0.793,0,0,0-.81.746,0.753,0.753,0,0,0,.62.871,0.79,0.79,0,0,0,.81-0.744A0.72,0.72,0,0,0,1101.75,844.47Zm1.03-2.368a0.74,0.74,0,1,0-.84.749A0.841,0.841,0,0,0,1102.78,842.1Zm0.37-3.269a0.775,0.775,0,0,0-.61-0.9,0.82,0.82,0,0,0-.84.752,0.781,0.781,0,0,0,.62.9A0.816,0.816,0,0,0,1103.15,838.833Zm1.33,10.84a0.8,0.8,0,0,0,.8-0.746,0.751,0.751,0,0,0-.61-0.874,0.814,0.814,0,0,0-.84.747A0.754,0.754,0,0,0,1104.48,849.673Zm-0.38-24.956a0.834,0.834,0,0,0-.84.788,0.769,0.769,0,0,0,.62.9,0.831,0.831,0,0,0,.84-0.788A0.785,0.785,0,0,0,1104.1,824.717Zm-13.92,12.9a0.707,0.707,0,0,0-.61-0.865A0.818,0.818,0,1,0,1090.18,837.62Zm-0.34,3.218a0.749,0.749,0,0,0-.61-0.866,0.794,0.794,0,0,0-.79.743,0.735,0.735,0,0,0,.6.865A0.766,0.766,0,0,0,1089.84,840.838Zm-2.02-17.313a0.764,0.764,0,0,0-.76.777,0.7,0.7,0,0,0,.6.861,0.8,0.8,0,0,0,.77-0.777A0.721,0.721,0,0,0,1087.82,823.525Zm1.06,19.662a0.769,0.769,0,0,0-.79.713,0.713,0.713,0,1,0,1.4.152A0.748,0.748,0,0,0,1088.88,843.187Zm-2.19-15.635a0.745,0.745,0,0,0,.6.861,0.809,0.809,0,0,0,.79-0.778,0.73,0.73,0,0,0-.6-0.861A0.809,0.809,0,0,0,1086.69,827.552Zm-0.01,12.976a0.757,0.757,0,0,0-.6-0.864,0.8,0.8,0,0,0-.8.742,0.748,0.748,0,0,0,.61.864A0.793,0.793,0,0,0,1086.68,840.528Zm-0.34-9.76a0.744,0.744,0,0,0,.61.862,0.754,0.754,0,0,0,.76-0.746,0.7,0.7,0,0,0-.6-0.861A0.762,0.762,0,0,0,1086.34,830.768Zm-0.34,3.215a0.727,0.727,0,0,0,.58.863,0.767,0.767,0,0,0,.79-0.745,0.754,0.754,0,0,0-.61-0.863A0.774,0.774,0,0,0,1086,833.983Zm6.05,9.517a0.752,0.752,0,0,0-.77.714,0.74,0.74,0,0,0,.58.9,0.765,0.765,0,0,0,.8-0.742A0.73,0.73,0,0,0,1092.05,843.5Zm0.98-2.354a0.743,0.743,0,0,0-.61-0.867,0.776,0.776,0,0,0-.79.744,0.751,0.751,0,0,0,.61.867A0.776,0.776,0,0,0,1093.03,841.146Zm0.35-3.223a0.709,0.709,0,0,0-.61-0.867,0.756,0.756,0,0,0-.77.717,0.734,0.734,0,0,0,.61.894A0.759,0.759,0,0,0,1093.38,837.923Zm-3.86-6.892a0.707,0.707,0,0,0,.58.865,0.772,0.772,0,0,0,.8-0.748,0.705,0.705,0,0,0-.61-0.864A0.77,0.77,0,0,0,1089.52,831.031Zm1.51-7.257a0.787,0.787,0,0,0-.79.753,0.722,0.722,0,0,0,.61.862,0.8,0.8,0,0,0,.79-0.752A0.73,0.73,0,0,0,1091.03,823.774Zm-1.88,10.507a0.763,0.763,0,0,0,.61.864,0.788,0.788,0,0,0,.8-0.747,0.746,0.746,0,0,0-.61-0.864A0.8,0.8,0,0,0,1089.15,834.281Zm0.72-6.5a0.758,0.758,0,0,0,.61.891,0.809,0.809,0,0,0,.79-0.779,0.752,0.752,0,0,0-.61-0.863A0.8,0.8,0,0,0,1089.87,827.781Zm-9.88,9.7a0.756,0.756,0,0,0,.76-0.74,0.719,0.719,0,0,0-.58-0.862,0.764,0.764,0,0,0-.76.741A0.705,0.705,0,0,0,1079.99,837.479Zm-2.03-17.137a0.766,0.766,0,0,0,.61.883,0.8,0.8,0,0,0,.75-0.775,0.729,0.729,0,0,0-.6-0.855A0.758,0.758,0,0,0,1077.96,820.342Zm7.77,22.531a0.79,0.79,0,0,0-.79.713,0.7,0.7,0,1,0,1.37.153A0.711,0.711,0,0,0,1085.73,842.873Zm-5.66-12.632a0.743,0.743,0,0,0,.6.859,0.752,0.752,0,0,0,.76-0.743,0.735,0.735,0,0,0-.6-0.859A0.753,0.753,0,0,0,1080.07,830.241Zm2.86,9.116a0.756,0.756,0,0,0-.76.74,0.7,0.7,0,1,0,1.37.123A0.763,0.763,0,0,0,1082.93,839.357Zm9.41-4.807a0.747,0.747,0,0,0,.62.866,0.763,0.763,0,0,0,.79-0.748,0.741,0.741,0,0,0-.61-0.866A0.814,0.814,0,0,0,1092.34,834.55Zm-13.96-11.721a0.756,0.756,0,0,0-.75.746,0.724,0.724,0,0,0,.6.856,0.754,0.754,0,0,0,.75-0.745A0.705,0.705,0,0,0,1078.38,822.829Zm1.35,10.617a0.735,0.735,0,0,0,.6.858,0.822,0.822,0,0,0,.19-1.6A0.78,0.78,0,0,0,1079.73,833.446Zm1.78-10.394a0.777,0.777,0,0,0-.76.747,0.746,0.746,0,0,0,.6.885,0.8,0.8,0,0,0,.76-0.774A0.741,0.741,0,0,0,1081.51,823.052Zm3.16,0.222a0.818,0.818,0,0,0-.79.777,0.74,0.74,0,0,0,.61.859,0.763,0.763,0,0,0,.76-0.748A0.729,0.729,0,0,0,1084.67,823.274Zm-1.13,4.019a0.743,0.743,0,0,0,.61.86,0.783,0.783,0,0,0,.76-0.747,0.769,0.769,0,0,0-.61-0.887A0.781,0.781,0,0,0,1083.54,827.293Zm0.34,9.748a0.739,0.739,0,0,0-.6-0.862,0.751,0.751,0,0,0-.76.741,0.731,0.731,0,0,0,.57.864A0.762,0.762,0,0,0,1083.88,837.041Zm3.15,0.3a0.774,0.774,0,0,0-.61-0.89,0.751,0.751,0,0,0-.76.742,0.7,0.7,0,0,0,.57.865A0.79,0.79,0,0,0,1087.03,837.343Zm-3.83-6.838a0.741,0.741,0,0,0,.61.859,0.77,0.77,0,0,0,.76-0.744,0.744,0.744,0,0,0-.61-0.861A0.755,0.755,0,0,0,1083.2,830.505Zm-0.34,3.209a0.728,0.728,0,0,0,.57.862,0.761,0.761,0,0,0,.79-0.744,0.729,0.729,0,0,0-.6-0.861A0.752,0.752,0,0,0,1082.86,833.714Zm9.86-2.418a0.775,0.775,0,0,0,.61.892,0.819,0.819,0,0,0,.8-0.75,0.775,0.775,0,0,0-.61-0.892A0.783,0.783,0,0,0,1092.72,831.3Zm13.09,1.109a0.743,0.743,0,0,0,.62.9,0.819,0.819,0,0,0,.81-0.782,0.711,0.711,0,0,0-.62-0.872A0.8,0.8,0,0,0,1105.81,832.405Zm-0.41,3.307a0.759,0.759,0,0,0,.62.872,0.8,0.8,0,0,0,.84-0.754,0.751,0.751,0,0,0-.62-0.872A0.79,0.79,0,0,0,1105.4,835.712Zm-2.54-6.872a0.746,0.746,0,0,0,.65.867,0.793,0.793,0,0,0,.8-0.755,0.748,0.748,0,0,0-.62-0.9A0.844,0.844,0,0,0,1102.86,828.84Zm-23.79,10.949a0.752,0.752,0,0,0,.57.862,0.789,0.789,0,0,0,.79-0.712,0.732,0.732,0,0,0-.6-0.861A0.756,0.756,0,0,0,1079.07,839.789Zm21.71-15.292a0.794,0.794,0,0,0-.8.784,0.713,0.713,0,0,0,.61.867,0.814,0.814,0,0,0,.8-0.784A0.705,0.705,0,0,0,1100.78,824.5Zm1.7,7.646a0.757,0.757,0,0,0,.62.869,0.822,0.822,0,0,0,.84-0.755,0.78,0.78,0,0,0-.65-0.9A0.816,0.816,0,0,0,1102.48,832.143Zm-0.37,3.272a0.736,0.736,0,0,0,.61.9,0.8,0.8,0,0,0,.81-0.779,0.731,0.731,0,0,0-.62-0.871A0.79,0.79,0,0,0,1102.11,835.415ZM1107.43,825a0.827,0.827,0,0,0-.84.76,0.77,0.77,0,0,0,.62.9,0.814,0.814,0,0,0,.84-0.789A0.748,0.748,0,0,0,1107.43,825Zm2.1,4.359a0.768,0.768,0,0,0,.65.9,0.839,0.839,0,0,0,.85-0.759,0.8,0.8,0,0,0-.66-0.927A0.9,0.9,0,0,0,1109.53,829.355Zm-3.34-.259a0.766,0.766,0,0,0,.65.9,0.826,0.826,0,0,0,.81-0.784,0.741,0.741,0,0,0-.63-0.9A0.846,0.846,0,0,0,1106.19,829.1Zm5.9,7.213a0.79,0.79,0,0,0,.63.9,0.827,0.827,0,0,0,.84-0.784,0.749,0.749,0,0,0-.62-0.9A0.845,0.845,0,0,0,1112.09,836.309Zm-1.31-11.063a0.863,0.863,0,0,0-.85.762,0.765,0.765,0,0,0,.66.9,0.83,0.83,0,0,0,.84-0.79A0.739,0.739,0,0,0,1110.78,825.246Zm-1.63,7.45a0.713,0.713,0,0,0,.62.874,0.8,0.8,0,0,0,.84-0.757,0.77,0.77,0,0,0-.65-0.9A0.819,0.819,0,0,0,1109.15,832.7Zm-9.58-4.114a0.762,0.762,0,0,0,.62.867,0.822,0.822,0,0,0,.83-0.755,0.761,0.761,0,0,0-.62-0.9A0.826,0.826,0,0,0,1099.57,828.582Zm9.17,7.428a0.713,0.713,0,0,0,.62.873,0.855,0.855,0,0,0,.85-0.755,0.785,0.785,0,0,0-.66-0.9A0.8,0.8,0,0,0,1108.74,836.01Zm-13.16-1.163a0.749,0.749,0,0,0,.61.867,0.789,0.789,0,0,0,.8-0.749,0.778,0.778,0,0,0-.61-0.895A0.808,0.808,0,0,0,1095.58,834.847Zm0.66,6.609a0.711,0.711,0,0,0-.61-0.869,0.8,0.8,0,0,0-.8.746,0.759,0.759,0,0,0,.61.868A0.768,0.768,0,0,0,1096.24,841.456Zm16.26-8.5a0.773,0.773,0,0,0,.63.9,0.851,0.851,0,0,0,.87-0.76,0.771,0.771,0,0,0-.65-0.9A0.814,0.814,0,0,0,1112.5,832.961Zm-17.25,10.853a0.758,0.758,0,0,0-.77.742,0.726,0.726,0,0,0,.61.87,0.757,0.757,0,0,0,.77-0.743A0.711,0.711,0,0,0,1095.25,843.814Zm1.37-5.588a0.778,0.778,0,0,0-.62-0.9,0.787,0.787,0,0,0-.8.747,0.778,0.778,0,0,0,.62.9A0.793,0.793,0,0,0,1096.62,838.226Zm-3.53-10.188a0.731,0.731,0,0,0,.61.892,0.829,0.829,0,0,0,.8-0.779,0.746,0.746,0,0,0-.61-0.866A0.777,0.777,0,0,0,1093.09,828.038Zm2.86,3.548a0.741,0.741,0,0,0,.62.867,0.8,0.8,0,0,0,.8-0.751,0.777,0.777,0,0,0-.62-0.895A0.8,0.8,0,0,0,1095.95,831.586ZM1094.26,824a0.808,0.808,0,0,0-.8.781,0.7,0.7,0,0,0,.61.863,0.805,0.805,0,0,0,.8-0.753A0.756,0.756,0,0,0,1094.26,824Zm5.61,14.532a0.722,0.722,0,1,0-1.42-.148A0.722,0.722,0,1,0,1099.87,838.529Zm-0.38,3.236a0.745,0.745,0,0,0-.62-0.87,0.786,0.786,0,0,0-.8.747,0.753,0.753,0,0,0,.61.87A0.8,0.8,0,0,0,1099.49,841.765Zm-3.16-13.442a0.755,0.755,0,0,0,.61.866,0.813,0.813,0,0,0,.8-0.753,0.759,0.759,0,0,0-.61-0.893A0.791,0.791,0,0,0,1096.33,828.323Zm2.49,6.794a0.779,0.779,0,0,0,.62.9,0.811,0.811,0,0,0,.8-0.751,0.736,0.736,0,0,0-.62-0.9A0.809,0.809,0,0,0,1098.82,835.117Zm-0.33,9.011a0.783,0.783,0,0,0-.8.744,0.754,0.754,0,0,0,.61.871,0.744,0.744,0,0,0,.81-0.717A0.8,0.8,0,0,0,1098.49,844.128Zm0.71-12.277a0.771,0.771,0,0,0,.61.9,0.838,0.838,0,0,0,.83-0.782,0.733,0.733,0,0,0-.64-0.867A0.792,0.792,0,0,0,1099.2,831.851Zm-1.7-7.6a0.816,0.816,0,0,0-.8.755,0.738,0.738,0,0,0,.61.893,0.813,0.813,0,0,0,.8-0.783A0.705,0.705,0,0,0,1097.5,824.247Zm31.57,27.2a0.777,0.777,0,0,0-.64-0.914,0.823,0.823,0,0,0-.89.756,0.778,0.778,0,0,0,.64.914A0.87,0.87,0,0,0,1129.07,851.449Zm-57.43,7.25a0.7,0.7,0,0,0,.72-0.7,0.712,0.712,0,0,0-.56-0.835,0.7,0.7,0,0,0-.76.7A0.755,0.755,0,0,0,1071.64,858.7Zm2.68-57.352a0.868,0.868,0,0,0,.78-0.812,0.743,0.743,0,0,0-.6-0.849,0.9,0.9,0,0,0-.78.814A0.726,0.726,0,0,0,1074.32,801.347Zm-0.48,35.552a0.756,0.756,0,0,0,.76-0.71,0.678,0.678,0,1,0-1.33-.148A0.7,0.7,0,0,0,1073.84,836.9Zm-0.94,9.419a0.737,0.737,0,0,0,.73-0.7,0.751,0.751,0,0,0-.57-0.859A0.8,0.8,0,0,0,1072.9,846.318Zm-0.94,9.316a0.722,0.722,0,0,0,.72-0.7,0.746,0.746,0,0,0-.57-0.862,0.731,0.731,0,0,0-.75.7A0.774,0.774,0,0,0,1071.96,855.634Zm0.62-6.218a0.708,0.708,0,0,0,.73-0.7,0.719,0.719,0,0,0-.59-0.832,0.708,0.708,0,0,0-.73.7A0.727,0.727,0,0,0,1072.58,849.416Zm-0.31,3.124a0.733,0.733,0,0,0,.73-0.7,0.753,0.753,0,0,0-.57-0.861A0.794,0.794,0,0,0,1072.27,852.54Zm0.94-9.35a0.8,0.8,0,0,0,.16-1.565,0.743,0.743,0,0,0-.75.734A0.726,0.726,0,0,0,1073.21,843.19Zm3.4-33.542a0.81,0.81,0,0,0-.75.78,0.717,0.717,0,0,0,.57.854,0.777,0.777,0,0,0,.78-0.782A0.732,0.732,0,0,0,1076.61,809.648Zm-1.84-5.819a0.713,0.713,0,0,0-.6-0.849,0.783,0.783,0,0,0-.75.781,0.7,0.7,0,0,0,.6.85A0.811,0.811,0,0,0,1074.77,803.829Zm0.68,17.177a0.851,0.851,0,0,0,.78-0.775,0.73,0.73,0,0,0-.6-0.855A0.838,0.838,0,0,0,1075.45,821.006Zm-1.3,12.731a0.793,0.793,0,0,0,.79-0.714,0.687,0.687,0,1,0-1.35-.117A0.72,0.72,0,0,0,1074.15,833.737Zm0.99-9.532a0.788,0.788,0,0,0,.76-0.772,0.709,0.709,0,0,0-.6-0.827,0.757,0.757,0,0,0-.76.745A0.737,0.737,0,0,0,1075.14,824.205Zm-0.65,6.365a0.813,0.813,0,0,0,.16-1.6,0.81,0.81,0,0,0-.76.742A0.739,0.739,0,0,0,1074.49,830.57Zm0.32-3.166a0.772,0.772,0,0,0,.75-0.743,0.744,0.744,0,0,0-.57-0.857,0.761,0.761,0,0,0-.76.743A0.714,0.714,0,0,0,1074.81,827.4Zm-1.28,12.656a0.764,0.764,0,0,0,.75-0.737A0.687,0.687,0,1,0,1073.53,840.06Zm2.68,33.213a0.684,0.684,0,0,0-.73.663,0.8,0.8,0,0,0,.57.868,0.7,0.7,0,0,0,.76-0.664A0.75,0.75,0,0,0,1076.21,873.273Zm-4.89-11.484a0.729,0.729,0,0,0,.73-0.7,0.758,0.758,0,0,0-.57-0.863,0.693,0.693,0,0,0-.73.695A0.767,0.767,0,0,0,1071.32,861.789Zm4.6,14.518a0.707,0.707,0,0,0-.76.663,0.786,0.786,0,0,0,.6.868,0.7,0.7,0,0,0,.73-0.663A0.757,0.757,0,0,0,1075.92,876.307Zm0.97-9.166a0.728,0.728,0,0,0-.76.7,0.789,0.789,0,0,0,.57.867,0.74,0.74,0,0,0,.76-0.7A0.8,0.8,0,0,0,1076.89,867.141Zm2.36,6.553a0.692,0.692,0,0,0-.73.665,0.764,0.764,0,0,0,.57.868,0.707,0.707,0,0,0,.76-0.665A0.759,0.759,0,0,0,1079.25,873.694Zm-5.39-6.936a0.694,0.694,0,0,0-.76.668,0.78,0.78,0,0,0,.6.864,0.711,0.711,0,0,0,.73-0.693A0.749,0.749,0,0,0,1073.86,866.758Zm5.07,10a0.643,0.643,0,0,0-.73.663,0.738,0.738,0,0,0,.56.841,0.7,0.7,0,0,0,.77-0.663A0.746,0.746,0,0,0,1078.93,876.762Zm-2.39-6.554a0.718,0.718,0,0,0-.73.693,0.735,0.735,0,0,0,.56.84,0.686,0.686,0,0,0,.76-0.666A0.776,0.776,0,0,0,1076.54,870.208Zm-3-.415a0.683,0.683,0,0,0-.73.692,0.717,0.717,0,0,0,.57.838,0.688,0.688,0,0,0,.73-0.664A0.788,0.788,0,0,0,1073.54,869.793Zm-2.54-4.972a0.714,0.714,0,0,0,.76-0.668,0.784,0.784,0,0,0-.6-0.861,0.71,0.71,0,0,0-.72.693A0.722,0.722,0,0,0,1071,864.821Zm-0.45,4.558a0.7,0.7,0,0,0-.73.691,0.746,0.746,0,0,0,.57.836,0.7,0.7,0,0,0,.73-0.663A0.769,0.769,0,0,0,1070.55,869.379Zm-0.32,3.026a0.72,0.72,0,0,0-.73.663,0.748,0.748,0,0,0,.6.864,0.688,0.688,0,0,0,.72-0.662A0.8,0.8,0,0,0,1070.23,872.405Zm0.64-6.056a0.718,0.718,0,0,0-.76.666,0.806,0.806,0,0,0,.6.863,0.727,0.727,0,0,0,.73-0.665A0.759,0.759,0,0,0,1070.87,866.349Zm8.7,4.275a0.724,0.724,0,0,0-.73.694,0.743,0.743,0,0,0,.57.841,0.685,0.685,0,0,0,.76-0.667A0.775,0.775,0,0,0,1079.57,870.624Zm-6.67,5.259a0.655,0.655,0,0,0-.73.66,0.736,0.736,0,0,0,.56.84,0.7,0.7,0,0,0,.76-0.661A0.738,0.738,0,0,0,1072.9,875.883Zm0.32-3.03a0.659,0.659,0,0,0-.73.663,0.742,0.742,0,0,0,.57.838,0.642,0.642,0,0,0,.72-0.662A0.734,0.734,0,0,0,1073.22,872.853Zm17.32-74.134a0.847,0.847,0,0,0,.79-0.794,0.729,0.729,0,0,0-.61-0.883,0.858,0.858,0,0,0-.82.823A0.715,0.715,0,0,0,1090.54,798.719Zm-0.4,3.355a0.853,0.853,0,0,0,.83-0.793,0.743,0.743,0,0,0-.64-0.883,0.83,0.83,0,0,0-.79.82A0.721,0.721,0,0,0,1090.14,802.074Zm2.52,6.837a0.828,0.828,0,0,0,.8-0.817,0.717,0.717,0,0,0-.61-0.86,0.823,0.823,0,0,0-.8.79A0.75,0.75,0,0,0,1092.66,808.911Zm0.37-3.354a0.819,0.819,0,0,0,.8-0.791,0.749,0.749,0,0,0-.62-0.887,0.873,0.873,0,0,0-.79.819A0.721,0.721,0,0,0,1093.03,805.557Zm-5.73-6.958a0.853,0.853,0,0,0,.79-0.821,0.759,0.759,0,0,0-.61-0.881,0.875,0.875,0,0,0-.79.82A0.724,0.724,0,0,0,1087.3,798.6Zm2.48,6.8a0.848,0.848,0,0,0,.82-0.791,0.758,0.758,0,0,0-.64-0.883,0.9,0.9,0,0,0-.79.818A0.719,0.719,0,0,0,1089.78,805.4Zm-0.33,3.347a0.876,0.876,0,0,0,.79-0.816,0.736,0.736,0,0,0-.61-0.858,0.865,0.865,0,0,0-.83.791A0.781,0.781,0,0,0,1089.45,808.743Zm6.47,0.334a0.851,0.851,0,0,0,.83-0.792,0.762,0.762,0,0,0-.64-0.888,0.859,0.859,0,0,0-.8.819A0.723,0.723,0,0,0,1095.92,809.077Zm1.13-10.089a0.857,0.857,0,0,0,.83-0.8,0.73,0.73,0,0,0-.64-0.885,0.834,0.834,0,0,0-.8.824A0.72,0.72,0,0,0,1097.05,798.988Zm-0.36,3.393a0.893,0.893,0,0,0,.8-0.823,0.691,0.691,0,0,0-.62-0.86,0.885,0.885,0,0,0-.83.8A0.766,0.766,0,0,0,1096.69,802.381Zm2.54,6.889a0.83,0.83,0,0,0,.8-0.792,0.719,0.719,0,0,0-.62-0.89,0.858,0.858,0,0,0-.83.794A0.763,0.763,0,0,0,1099.23,809.27Zm-5.83-7.042a0.857,0.857,0,0,0,.82-0.823,0.716,0.716,0,0,0-.64-0.855,0.832,0.832,0,0,0-.8.793A0.761,0.761,0,0,0,1093.4,802.228Zm0.36-3.359a0.871,0.871,0,0,0,.83-0.825,0.767,0.767,0,0,0-.62-0.885,0.907,0.907,0,0,0-.82.826A0.745,0.745,0,0,0,1093.76,798.869Zm-6.83,3.049a0.839,0.839,0,0,0,.8-0.79,0.7,0.7,0,0,0-.61-0.855,0.825,0.825,0,0,0-.79.791A0.725,0.725,0,0,0,1086.93,801.918Zm9.36,3.827a0.866,0.866,0,0,0,.83-0.823,0.721,0.721,0,0,0-.62-0.859,0.851,0.851,0,0,0-.82.794A0.758,0.758,0,0,0,1096.29,805.745Zm-15.71-4.11a0.871,0.871,0,0,0,.78-0.817,0.73,0.73,0,0,0-.6-0.851,0.844,0.844,0,0,0-.79.788A0.744,0.744,0,0,0,1080.58,801.635Zm-5.93-3.582a0.841,0.841,0,0,0,.78-0.787,0.712,0.712,0,0,0-.6-0.848,0.8,0.8,0,0,0-.78.787A0.713,0.713,0,0,0,1074.65,798.053Zm5.59,6.885a0.819,0.819,0,0,0,.76-0.812,0.7,0.7,0,0,0-.58-0.855,0.82,0.82,0,0,0-.78.787A0.76,0.76,0,0,0,1080.24,804.938Zm-2.45-6.734a0.846,0.846,0,0,0,.75-0.815,0.714,0.714,0,0,0-.6-0.85,0.79,0.79,0,0,0-.75.787A0.715,0.715,0,0,0,1077.79,798.2Zm2.12,10.007a0.819,0.819,0,0,0,.76-0.782,0.731,0.731,0,0,0-.61-0.881,0.818,0.818,0,0,0-.75.811A0.725,0.725,0,0,0,1079.91,808.211Zm-3.12-.169a0.833,0.833,0,0,0,.76-0.781,0.751,0.751,0,0,0-.61-0.88,0.818,0.818,0,0,0-.75.81A0.711,0.711,0,0,0,1076.79,808.042Zm0.64-6.564a0.8,0.8,0,0,0,.78-0.787,0.714,0.714,0,0,0-.6-0.85,0.834,0.834,0,0,0-.78.786A0.729,0.729,0,0,0,1077.43,801.478Zm-0.3,3.3a0.841,0.841,0,0,0,.75-0.811,0.73,0.73,0,0,0-.6-0.851,0.815,0.815,0,0,0-.76.784A0.716,0.716,0,0,0,1077.13,804.774Zm3.81-6.447a0.824,0.824,0,0,0,.75-0.817,0.7,0.7,0,0,0-.6-0.85,0.8,0.8,0,0,0-.76.815A0.7,0.7,0,0,0,1080.94,798.327Zm5.63,6.909a0.8,0.8,0,0,0,.79-0.789,0.74,0.74,0,0,0-.61-0.884,0.9,0.9,0,0,0-.79.817A0.719,0.719,0,0,0,1086.57,805.236Zm-2.47-6.787a0.844,0.844,0,0,0,.79-0.79,0.745,0.745,0,0,0-.61-0.882,0.878,0.878,0,0,0-.79.82A0.715,0.715,0,0,0,1084.1,798.449Zm2.14,10.1a0.855,0.855,0,0,0,.79-0.788,0.77,0.77,0,0,0-.61-0.883,0.848,0.848,0,0,0-.79.815A0.7,0.7,0,0,0,1086.24,808.548Zm-2.51-6.785a0.8,0.8,0,0,0,.79-0.789,0.712,0.712,0,0,0-.6-0.854,0.845,0.845,0,0,0-.79.79A0.716,0.716,0,0,0,1083.73,801.763Zm-0.69,6.618a0.835,0.835,0,0,0,.79-0.785,0.754,0.754,0,0,0-.61-0.883,0.869,0.869,0,0,0-.79.814A0.733,0.733,0,0,0,1083.04,808.381Zm0.36-3.308a0.842,0.842,0,0,0,.79-0.788,0.717,0.717,0,0,0-.61-0.854,0.813,0.813,0,0,0-.78.788A0.712,0.712,0,0,0,1083.4,805.073Zm30.1,79.955a0.764,0.764,0,0,0-.85.673,0.8,0.8,0,0,0,.63.888,0.744,0.744,0,0,0,.85-0.673A0.8,0.8,0,0,0,1113.5,885.028Zm3.32,0.472a0.784,0.784,0,0,0-.83.7,0.805,0.805,0,0,0,.63.917,0.738,0.738,0,0,0,.82-0.7A0.783,0.783,0,0,0,1116.82,885.5Zm0.42-3.157a0.76,0.76,0,0,0-.85.677,0.817,0.817,0,0,0,.65.916,0.762,0.762,0,0,0,.83-0.7A0.775,0.775,0,0,0,1117.24,882.343Zm-0.82,6.34a0.785,0.785,0,0,0-.85.674,0.822,0.822,0,0,0,.63.917,0.76,0.76,0,0,0,.85-0.673A0.832,0.832,0,0,0,1116.42,888.683Zm4.18-5.871a0.784,0.784,0,0,0-.83.705,0.751,0.751,0,1,0,1.48.213A0.826,0.826,0,0,0,1120.6,882.812Zm-0.82,6.407a0.743,0.743,0,0,0-.86.675,0.793,0.793,0,0,0,.63.89,0.737,0.737,0,0,0,.85-0.673A0.787,0.787,0,0,0,1119.78,889.219Zm-5.88-7.37a0.727,0.727,0,0,0-.82.674,0.787,0.787,0,0,0,.62.915A0.8,0.8,0,0,0,1113.9,881.849Zm6.3,4.182a0.757,0.757,0,0,0-.86.676,0.805,0.805,0,0,0,.64.918,0.785,0.785,0,0,0,.85-0.7A0.8,0.8,0,0,0,1120.2,886.031Zm-13.29-2a0.743,0.743,0,0,0-.81.671,0.818,0.818,0,0,0,.62.912,0.759,0.759,0,0,0,.81-0.7A0.781,0.781,0,0,0,1106.91,884.031Zm0.39-3.141a0.734,0.734,0,0,0-.81.674,0.817,0.817,0,0,0,.62.911,0.745,0.745,0,0,0,.81-0.7A0.78,0.78,0,0,0,1107.3,880.89Zm0.39-3.17a0.752,0.752,0,0,0-.81.7,0.785,0.785,0,0,0,.62.882,0.737,0.737,0,0,0,.82-0.673A0.8,0.8,0,0,0,1107.69,877.72Zm-8.1-71.815a0.871,0.871,0,0,0,.84-0.8,0.743,0.743,0,0,0-.62-0.89,0.836,0.836,0,0,0-.83.8A0.752,0.752,0,0,0,1099.59,805.905Zm23.55,83.824a0.787,0.787,0,0,0-.86.674,0.829,0.829,0,0,0,.66.921,0.776,0.776,0,0,0,.86-0.675A0.813,0.813,0,0,0,1123.14,889.729Zm-10.06-1.551a0.753,0.753,0,0,0-.82.671,0.841,0.841,0,0,0,.62.916A0.8,0.8,0,0,0,1113.08,888.178Zm-2.49-6.824a0.809,0.809,0,0,0-.22,1.589,0.765,0.765,0,0,0,.85-0.675A0.827,0.827,0,0,0,1110.59,881.354Zm-0.42,3.175a0.737,0.737,0,0,0-.81.673,0.83,0.83,0,0,0,.62.914,0.729,0.729,0,0,0,.81-0.7A0.739,0.739,0,0,0,1110.17,884.529Zm17.26-.722a0.782,0.782,0,0,0-.86.709,0.771,0.771,0,0,0,.64.922,0.757,0.757,0,0,0,.86-0.708A0.793,0.793,0,0,0,1127.43,883.807Zm2.23-16.282a0.775,0.775,0,0,0-.87.718,0.785,0.785,0,0,0,.64.919A0.83,0.83,0,0,0,1129.66,867.525Zm0.45-3.3a0.817,0.817,0,0,0-.87.72,0.791,0.791,0,0,0,.64.947,0.8,0.8,0,0,0,.86-0.747A0.752,0.752,0,0,0,1130.11,864.22Zm-0.91,6.579a0.822,0.822,0,0,0-.86.745,0.766,0.766,0,0,0,.63.89,0.8,0.8,0,0,0,.89-0.716A0.807,0.807,0,0,0,1129.2,870.8Zm-5.63,15.735a0.74,0.74,0,0,0-.83.676,0.756,0.756,0,1,0,1.49.216A0.8,0.8,0,0,0,1123.57,886.534Zm22.86-90.376c-2.62-.529-5.29-1.052-8.05-1.6l-0.03.325a0.785,0.785,0,0,0-.28-0.065l-64.42-2.221a0.7,0.7,0,0,0-.73.624l-7.4,82.781a0.74,0.74,0,0,0,.52.755l26.45,8.442,0.8,0.231,27.5,8.765,4.83,1.573,2.85,0.909V896.7l1.07,0.348c2.47-.709,4.91-1.388,7.26-2.06,2.65-.776,5.23-1.524,7.76-2.243q2.31-23.537,4.64-47.314,2.325-23.814,4.7-47.849C1151.45,797.12,1148.99,796.635,1146.43,796.158Zm-19.77,98.481a0.665,0.665,0,0,0,.09-0.279,0.8,0.8,0,0,0-.63-0.924,0.786,0.786,0,0,0-.86.674,0.237,0.237,0,0,0,0,.084l-1.92-.613a0.729,0.729,0,0,0-.62-0.661,0.705,0.705,0,0,0-.66.255l-12.34-3.929a0.729,0.729,0,0,0,.68-0.687,0.73,0.73,0,1,0-1.44-.215,0.9,0.9,0,0,0,.32.764l-2.26-.721a0.763,0.763,0,0,0,.12-0.333,0.8,0.8,0,0,0-.62-0.884,0.761,0.761,0,0,0-.81.669,0.605,0.605,0,0,0,.01.134l-1.84-.585a0.78,0.78,0,0,0-.61-0.721,0.694,0.694,0,0,0-.65.32l-2.46-.784c-0.03-.01-0.06-0.03-0.09-0.037a0.136,0.136,0,0,1-.02,0l-11.79-3.752a0.73,0.73,0,0,0,.14-0.361,0.756,0.756,0,0,0-.57-0.875,0.675,0.675,0,0,0-.77.666,0.611,0.611,0,0,0,.01.191l-1.77-.563a0.776,0.776,0,0,0-.57-0.783,0.682,0.682,0,0,0-.68.386l-13.72-4.37a0.791,0.791,0,0,0,.17-0.411,0.755,0.755,0,0,0-.57-0.866,0.672,0.672,0,0,0-.72.661,0.787,0.787,0,0,0,.02.266l-1.68-.535a0.714,0.714,0,0,0-.52-0.8l0.14-1.517a0.671,0.671,0,0,0,.67-0.656,0.779,0.779,0,0,0-.54-0.852l0.14-1.509a0.671,0.671,0,0,0,.72-0.662,0.727,0.727,0,0,0-.59-0.834l0.14-1.533c0.01,0,.01.006,0.02,0.007a0.675,0.675,0,0,0,.72-0.664,0.762,0.762,0,0,0-.56-0.863,0.235,0.235,0,0,0-.04,0l0.13-1.531c0.03,0.007.04,0.022,0.07,0.027a0.732,0.732,0,0,0,.72-0.666,0.744,0.744,0,0,0-.59-0.86,0.307,0.307,0,0,0-.06.007l0.14-1.563a0.846,0.846,0,0,0,.08.028,0.7,0.7,0,0,0,.72-0.668,0.75,0.75,0,0,0-.56-0.861,0.685,0.685,0,0,0-.11.012l0.14-1.583a0.5,0.5,0,0,0,.13.043,0.7,0.7,0,0,0,.72-0.7,0.729,0.729,0,0,0-.59-0.832,0.439,0.439,0,0,0-.12.014l0.14-1.6a0.735,0.735,0,0,0,.13.057,0.713,0.713,0,0,0,.73-0.7,0.746,0.746,0,0,0-.57-0.861,0.519,0.519,0,0,0-.16.022l0.14-1.613a0.709,0.709,0,0,0,.18.061,0.688,0.688,0,0,0,.72-0.7,0.725,0.725,0,0,0-.56-0.832,0.545,0.545,0,0,0-.2.024l0.14-1.655a0.645,0.645,0,0,0,.21.071,0.708,0.708,0,0,0,.73-0.7,0.726,0.726,0,0,0-.59-0.83,0.5,0.5,0,0,0-.22.016l0.15-1.657a0.537,0.537,0,0,0,.22.08,0.794,0.794,0,0,0,.16-1.561,0.538,0.538,0,0,0-.25.034l0.15-1.7a0.652,0.652,0,0,0,.28.107,0.738,0.738,0,0,0,.73-0.705,0.774,0.774,0,0,0-.57-0.857,0.577,0.577,0,0,0-.31.062l0.15-1.743a0.656,0.656,0,0,0,.29.147,0.816,0.816,0,0,0,.18-1.593,0.577,0.577,0,0,0-.34.086l0.16-1.806a0.551,0.551,0,0,0,.31.158,0.748,0.748,0,0,0,.75-0.737,0.709,0.709,0,0,0-.57-0.829,0.63,0.63,0,0,0-.38.107l0.17-1.886a0.6,0.6,0,0,0,.37.186,0.8,0.8,0,0,0,.15-1.566,0.585,0.585,0,0,0-.4.13l0.17-1.924a0.521,0.521,0,0,0,.39.2,0.786,0.786,0,0,0,.75-0.74,0.71,0.71,0,0,0-.6-0.826,0.589,0.589,0,0,0-.43.148l0.17-1.977a0.626,0.626,0,0,0,.42.234,0.751,0.751,0,0,0,.75-0.742,0.731,0.731,0,0,0-.6-0.854,0.61,0.61,0,0,0-.46.176l0.18-2.014a0.564,0.564,0,0,0,.44.242,0.752,0.752,0,0,0,.75-0.743,0.737,0.737,0,0,0-.6-0.854,0.6,0.6,0,0,0-.49.222l0.19-2.146a0.64,0.64,0,0,0,.48.326,0.814,0.814,0,0,0,.16-1.6,0.656,0.656,0,0,0-.55.267l0.2-2.245a0.613,0.613,0,0,0,.5.38,0.776,0.776,0,0,0,.75-0.775,0.726,0.726,0,0,0-.6-0.851,0.681,0.681,0,0,0-.56.327l0.21-2.375a0.635,0.635,0,0,0,.51.448,0.809,0.809,0,0,0,.78-0.778,0.749,0.749,0,0,0-.6-0.852,0.741,0.741,0,0,0-.62.393l0.22-2.472a0.653,0.653,0,0,0,.55.479,0.78,0.78,0,0,0,.75-0.778,0.73,0.73,0,0,0-.57-0.852,0.794,0.794,0,0,0-.67.433l0.24-2.666a0.688,0.688,0,0,0,.58.631,0.8,0.8,0,0,0,.75-0.807,0.691,0.691,0,0,0-.59-0.823,0.74,0.74,0,0,0-.7.537l1.14-12.764,0.11,0a0.676,0.676,0,0,0,.59.737,0.769,0.769,0,0,0,.73-0.69l1.81,0.064a0.666,0.666,0,0,0,.6.743,0.772,0.772,0,0,0,.73-0.7l1.82,0.064a0.663,0.663,0,0,0,.6.749,0.817,0.817,0,0,0,.76-0.7l1.8,0.063a0.68,0.68,0,0,0,.63.754,0.785,0.785,0,0,0,.74-0.705l1.85,0.065a0.7,0.7,0,0,0,.61.784,0.878,0.878,0,0,0,.76-0.736l1.85,0.065a0.717,0.717,0,0,0,.6.788,0.9,0.9,0,0,0,.8-0.738l1.87,0.067a0.668,0.668,0,0,0,.61.783,0.822,0.822,0,0,0,.78-0.735l1.88,0.066a0.736,0.736,0,0,0,.64.809,0.872,0.872,0,0,0,.77-0.759l1.92,0.067a0.708,0.708,0,0,0,.61.806,0.852,0.852,0,0,0,.81-0.755l1.92,0.068a0.7,0.7,0,0,0,.62.8,0.835,0.835,0,0,0,.81-0.747l1.93,0.068a0.742,0.742,0,0,0,.65.817,0.867,0.867,0,0,0,.82-0.766l1.93,0.069a0.761,0.761,0,0,0,.65.835,0.9,0.9,0,0,0,.82-0.784l1.97,0.07a0.7,0.7,0,0,0,.65.822,0.85,0.85,0,0,0,.83-0.77l1.97,0.07a0.755,0.755,0,0,0,.66.836,0.928,0.928,0,0,0,.86-0.783l1.98,0.07a0.73,0.73,0,0,0,.66.848,0.9,0.9,0,0,0,.86-0.794l2.02,0.071a0.732,0.732,0,0,0,.63.86,0.931,0.931,0,0,0,.89-0.807l2.03,0.071a0.736,0.736,0,0,0,.67.866,0.893,0.893,0,0,0,.86-0.812l2.04,0.073a0.761,0.761,0,0,0,.67.874,0.944,0.944,0,0,0,.9-0.82l2.04,0.073a0.758,0.758,0,0,0,.67.879,0.917,0.917,0,0,0,.9-0.824l0.76,0.027-2.76,31.172a0.8,0.8,0,0,0-.19.442,0.868,0.868,0,0,0,.1.56l-0.2,2.266a0.987,0.987,0,0,0-.38.623,0.793,0.793,0,0,0,.26.723l-0.17,1.959a0.9,0.9,0,0,0-.54.736,0.818,0.818,0,0,0,.39.861l-0.16,1.786a0.922,0.922,0,0,0-.7.768,0.748,0.748,0,0,0,.56.88l-0.16,1.741a0.869,0.869,0,0,0-.88.792,0.794,0.794,0,0,0,.67.912,0.411,0.411,0,0,0,.06-0.008l-0.15,1.733a0.966,0.966,0,0,0-.14-0.048,0.9,0.9,0,0,0-.89.79,0.776,0.776,0,0,0,.67.914,0.79,0.79,0,0,0,.22-0.027l-0.16,1.807a0.789,0.789,0,0,0-.29-0.106,0.879,0.879,0,0,0-.89.789,0.759,0.759,0,0,0,.64.916,0.794,0.794,0,0,0,.4-0.086l-0.18,1.991a0.71,0.71,0,0,0-.45-0.232,0.822,0.822,0,0,0-.86.756,0.747,0.747,0,0,0,.64.917,0.71,0.71,0,0,0,.56-0.16l-0.2,2.3a0.766,0.766,0,0,0-.59-0.47,0.869,0.869,0,0,0-.89.756,0.845,0.845,0,0,0,.67.944,0.812,0.812,0,0,0,.73-0.373l-3.52,39.649Zm15.54-3.476c-1.7.472-3.41,0.943-5.16,1.414-1.8.473-3.59,0.971-5.44,1.5,0.48-5.092,1-10.19,1.48-15.321,1.84-.372,3.62-0.744,5.41-1.086,1.73-.372,3.44-0.714,5.12-1.055C1143.14,881.459,1142.66,886.328,1142.2,891.163Zm1.66-16.915c-1.69.315-3.39,0.659-5.15,1-1.77.317-3.55,0.691-5.39,1.037q0.9-9.133,1.77-18.287c1.83-.192,3.61-0.383,5.36-0.572,1.73-.189,3.42-0.376,5.09-0.564C1144.99,862.686,1144.41,868.47,1143.86,874.248Zm1.94-19.759-5.1.484c-1.76.192-3.54,0.356-5.38,0.523,0.61-6.087,1.2-12.239,1.78-18.367,1.83-.012,3.6-0.02,5.32-0.054,1.71,0,3.41-.009,5.07-0.04C1146.93,842.88,1146.35,848.688,1145.8,854.489Zm1.91-19.84c-1.63,0-3.33.009-5.05-.012-1.72.006-3.49-.011-5.29,0,0.57-6.14,1.18-12.29,1.78-18.448,1.79,0.144,3.53.322,5.27,0.47,1.71,0.152,3.36.306,5.02,0.462C1148.85,822.992,1148.3,828.823,1147.71,834.649Zm-3.04-20.438c-1.75-.175-3.87-1.012-5.67-1.212,0.51-5.324.46-10.634,1-16,1.76,0.334,4.45,1.281,6.18,1.618,1.67,0.283,3.34.6,4.96,0.886-0.48,5.1-.97,10.163-1.48,15.223C1148.03,814.571,1146.35,814.391,1144.67,814.211Zm-14.11,46.7a0.857,0.857,0,0,0-.89.723,0.831,0.831,0,0,0,.67.945,0.816,0.816,0,0,0,.86-0.749A0.763,0.763,0,0,0,1130.56,860.913Zm-1.82,13.157a0.844,0.844,0,0,0-.86.714,0.853,0.853,0,0,0,.67.947,0.812,0.812,0,0,0,.86-0.742A0.832,0.832,0,0,0,1128.74,874.07Zm2.27-16.5a0.86,0.86,0,0,0-.89.754,0.8,0.8,0,0,0,.67.916A0.844,0.844,0,0,0,1131.01,857.574Zm-4.03,29.465a0.807,0.807,0,0,0-.2,1.6,0.757,0.757,0,0,0,.86-0.678A0.814,0.814,0,0,0,1126.98,887.039Zm-0.43,3.2a0.8,0.8,0,0,0-.86.7,0.833,0.833,0,0,0,.66.923,0.8,0.8,0,0,0,.86-0.7A0.831,0.831,0,0,0,1126.55,890.239Zm-2.53-6.931a0.825,0.825,0,0,0-.22,1.628,0.8,0.8,0,0,0,.86-0.707A0.85,0.85,0,0,0,1124.02,883.308Zm3.84-2.734a0.84,0.84,0,0,0-.86.71,0.812,0.812,0,0,0,.67.922,0.8,0.8,0,0,0,.86-0.711A0.843,0.843,0,0,0,1127.86,880.574Zm-23.03-6.482a0.763,0.763,0,0,0-.81.705,0.725,0.725,0,1,0,1.43.2A0.814,0.814,0,0,0,1104.83,874.092Zm23.49,3.245a0.828,0.828,0,1,0,.63.921A0.774,0.774,0,0,0,1128.32,877.337Zm-27.5,2.6a0.742,0.742,0,0,0-.81.7,0.8,0.8,0,0,0,.62.88,0.757,0.757,0,0,0,.8-0.7A0.777,0.777,0,0,0,1100.82,879.937Zm-11.96-8.033a0.709,0.709,0,0,0-.76.7,0.739,0.739,0,0,0,.57.846,0.678,0.678,0,0,0,.77-0.67A0.758,0.758,0,0,0,1088.86,871.9Zm-0.35,3.113a0.693,0.693,0,0,0-.77.668,0.794,0.794,0,0,0,.58.874,0.745,0.745,0,0,0,.8-0.669A0.762,0.762,0,0,0,1088.51,875.017Zm-0.36,3.082a0.685,0.685,0,0,0-.76.668,0.781,0.781,0,0,0,.6.873,0.726,0.726,0,0,0,.77-0.667A0.765,0.765,0,0,0,1088.15,878.1Zm2.78,3.544a0.676,0.676,0,0,0-.77.667,0.8,0.8,0,0,0,.61.875,0.742,0.742,0,0,0,.77-0.666A0.766,0.766,0,0,0,1090.93,881.643Zm0.71-6.2a0.722,0.722,0,0,0-.77.7,0.7,0.7,0,1,0,1.38.177A0.78,0.78,0,0,0,1091.64,875.441Zm-5.55-7.066a0.743,0.743,0,0,0-.77.7,0.793,0.793,0,0,0,.61.87,0.765,0.765,0,0,0,.76-0.7A0.777,0.777,0,0,0,1086.09,868.375Zm5.2,10.182a0.693,0.693,0,0,0-.77.669A0.7,0.7,0,1,0,1091.29,878.557Zm-5.55-7.072a0.7,0.7,0,0,0-.77.67,0.778,0.778,0,0,0,.6.871,0.713,0.713,0,0,0,.77-0.669A0.762,0.762,0,0,0,1085.74,871.485Zm-3.42,2.629a0.739,0.739,0,0,0-.76.695,0.754,0.754,0,0,0,.57.843,0.7,0.7,0,0,0,.77-0.666A0.794,0.794,0,0,0,1082.32,874.114Zm22.12,3.147a0.739,0.739,0,0,0-.81.674,0.767,0.767,0,0,0,.62.909,0.759,0.759,0,0,0,.81-0.674A0.79,0.79,0,0,0,1104.44,877.261Zm-22.47-.073a0.681,0.681,0,0,0-.73.664,0.744,0.744,0,0,0,.57.871,0.7,0.7,0,0,0,.76-0.664A0.779,0.779,0,0,0,1081.97,877.188Zm10.03-4.837a0.7,0.7,0,0,0-.77.671,0.723,0.723,0,0,0,.58.875,0.737,0.737,0,0,0,.8-0.672A0.762,0.762,0,0,0,1092,872.351Zm-9-4.388a0.71,0.71,0,0,0-.76.7,0.68,0.68,0,1,0,1.34.172A0.779,0.779,0,0,0,1083,867.963Zm2.38,6.6a0.693,0.693,0,0,0-.73.667,0.743,0.743,0,0,0,.57.871,0.716,0.716,0,0,0,.77-0.666A0.777,0.777,0,0,0,1085.38,874.566Zm-0.32,3.077a0.717,0.717,0,0,0-.77.667,0.8,0.8,0,0,0,.61.871,0.717,0.717,0,0,0,.76-0.665A0.764,0.764,0,0,0,1085.06,877.643Zm-2.41-6.574a0.7,0.7,0,0,0-.76.667,0.777,0.777,0,0,0,.6.87,0.709,0.709,0,0,0,.76-0.7A0.731,0.731,0,0,0,1082.65,871.069Zm18.56,5.735a0.729,0.729,0,0,0-.81.673,0.806,0.806,0,0,0,.61.908,0.719,0.719,0,0,0,.78-0.7A0.736,0.736,0,0,0,1101.21,876.8Zm-2.85-3.584a0.741,0.741,0,0,0-.8.674,0.812,0.812,0,0,0,.61.9A0.8,0.8,0,0,0,1098.36,873.22Zm2.07,9.848a0.7,0.7,0,0,0-.78.668,0.741,0.741,0,0,0,.61.881,0.7,0.7,0,0,0,.78-0.669A0.778,0.778,0,0,0,1100.43,883.068Zm-20.51-15.517a0.721,0.721,0,0,0-.76.7,0.744,0.744,0,0,0,.6.84,0.691,0.691,0,0,0,.74-0.668A0.755,0.755,0,0,0,1079.92,867.551Zm24.14,12.875a0.72,0.72,0,0,0-.82.673,0.77,0.77,0,0,0,.62.882,0.738,0.738,0,0,0,.81-0.672A0.764,0.764,0,0,0,1104.06,880.426Zm-2.49-6.755a0.7,0.7,0,0,0-.78.673,0.707,0.707,0,1,0,1.39.206A0.766,0.766,0,0,0,1101.57,873.671Zm2.1,9.863a0.744,0.744,0,0,0-.81.7,0.79,0.79,0,0,0,.61.883,0.742,0.742,0,0,0,.81-0.671A0.811,0.811,0,0,0,1103.67,883.534Zm-8.52-10.762a0.732,0.732,0,0,0-.78.7,0.78,0.78,0,0,0,.61.876,0.721,0.721,0,0,0,.78-0.7A0.771,0.771,0,0,0,1095.15,872.772Zm-0.36,3.124a0.711,0.711,0,0,0-.77.669,0.8,0.8,0,0,0,.61.9,0.717,0.717,0,0,0,.77-0.7A0.78,0.78,0,0,0,1094.79,875.9Zm-0.36,3.121a0.7,0.7,0,0,0-.77.668,0.759,0.759,0,0,0,.61.877,0.715,0.715,0,0,0,.78-0.669A0.764,0.764,0,0,0,1094.43,879.017Zm3.55-2.668a0.722,0.722,0,0,0-.78.672,0.788,0.788,0,0,0,.62.906,0.733,0.733,0,0,0,.77-0.7A0.775,0.775,0,0,0,1097.98,876.349Zm-3.9,5.758a0.725,0.725,0,0,0-.78.667,0.764,0.764,0,0,0,.58.878,0.74,0.74,0,0,0,.81-0.667A0.8,0.8,0,0,0,1094.08,882.107Zm3.18,0.465a0.741,0.741,0,0,0-.8.7,0.786,0.786,0,0,0,.61.879,0.724,0.724,0,0,0,.78-0.668A0.8,0.8,0,0,0,1097.26,882.572Zm0.36-3.1a0.749,0.749,0,0,0-.81.67,0.784,0.784,0,0,0,.62.879,0.693,0.693,0,0,0,.77-0.669A0.735,0.735,0,0,0,1097.62,879.476Zm-21.83-61.7a0.783,0.783,0,0,0,.75-0.776,0.735,0.735,0,0,0-.6-0.854,0.8,0.8,0,0,0-.75.776A0.729,0.729,0,0,0,1075.79,817.776ZM1105,872.509a0.792,0.792,0,0,0,.22-1.559,0.755,0.755,0,0,0-.84.679A0.766,0.766,0,0,0,1105,872.509Zm-4.93-7.9a0.737,0.737,0,0,0-.58-0.877,0.768,0.768,0,0,0-.81.708,0.784,0.784,0,0,0,.62.9A0.748,0.748,0,0,0,1100.07,864.61Zm1.69,7.478a0.761,0.761,0,0,0,.81-0.7,0.781,0.781,0,0,0-.62-0.879,0.77,0.77,0,0,0-.81.676A0.811,0.811,0,0,0,1101.76,872.088Zm1.58-7.043a0.809,0.809,0,0,0-.62-0.906,0.786,0.786,0,0,0-.81.708,0.807,0.807,0,0,0,.62.9A0.777,0.777,0,0,0,1103.34,865.045Zm-0.39,3.171a0.772,0.772,0,0,0-.61-0.878,0.751,0.751,0,0,0-.81.705,0.773,0.773,0,0,0,.61.878A0.751,0.751,0,0,0,1102.95,868.216Zm0.77-6.374a0.753,0.753,0,0,0-.61-0.875,0.736,0.736,0,0,0-.81.709A0.719,0.719,0,1,0,1103.72,861.842Zm-4,5.96a0.81,0.81,0,0,0-.61-0.9,0.771,0.771,0,0,0-.81.706,0.764,0.764,0,0,0,.61.876A0.744,0.744,0,0,0,1099.72,867.8Zm0.74-6.359a0.806,0.806,0,0,0-.62-0.9,0.793,0.793,0,0,0-.8.737,0.769,0.769,0,0,0,.61.875A0.722,0.722,0,0,0,1100.46,861.443Zm-6.41-.774a0.714,0.714,0,1,0-.8.707A0.788,0.788,0,0,0,1094.05,860.669Zm4.48,10.972a0.724,0.724,0,0,0,.8-0.7,0.781,0.781,0,0,0-.61-0.876A0.8,0.8,0,0,0,1098.53,871.641Zm-4.86-7.814a0.806,0.806,0,0,0-.61-0.9,0.741,0.741,0,0,0-.77.7,0.807,0.807,0,0,0,.61.9A0.743,0.743,0,0,0,1093.67,863.827Zm1.67,7.395a0.745,0.745,0,0,0,.8-0.7,0.715,0.715,0,1,0-1.41-.173A0.8,0.8,0,0,0,1095.34,871.222Zm1.9-10.18a0.775,0.775,0,0,0-.62-0.874,0.744,0.744,0,0,0-.77.706A0.706,0.706,0,1,0,1097.24,861.042Zm2.75-58.508a0.939,0.939,0,0,0,.83-0.826,0.76,0.76,0,0,0-.65-0.887,0.924,0.924,0,0,0-.83.826A0.767,0.767,0,0,0,1099.99,802.534Zm-3.14,61.7a0.749,0.749,0,0,0-.58-0.9,0.77,0.77,0,0,0-.8.705,0.746,0.746,0,0,0,.61.875A0.7,0.7,0,0,0,1096.85,864.232Zm13.94,15.562a0.78,0.78,0,0,0,.82-0.7,0.816,0.816,0,0,0-.63-0.913,0.778,0.778,0,0,0-.81.7A0.825,0.825,0,0,0,1110.79,879.794Zm3.3,0.463a0.8,0.8,0,0,0,.2-1.59,0.753,0.753,0,0,0-.82.7A0.788,0.788,0,0,0,1114.09,880.257Zm1.25-3.89a0.737,0.737,0,1,0-1.45-.208,0.792,0.792,0,0,0,.63.914A0.763,0.763,0,0,0,1115.34,876.367Zm-2.5-6.853a0.8,0.8,0,0,0-.66-0.91,0.758,0.758,0,0,0-.81.71,0.815,0.815,0,0,0,.62.911A0.836,0.836,0,0,0,1112.84,869.514Zm-0.42,3.186a0.786,0.786,0,0,0-.62-0.884,0.759,0.759,0,0,0-.82.708,0.727,0.727,0,0,0,.62.883A0.74,0.74,0,0,0,1112.42,872.7Zm3.34,0.451a0.77,0.77,0,0,0-.63-0.886,0.8,0.8,0,0,0-.2,1.593A0.748,0.748,0,0,0,1115.76,873.151Zm1.68,7.6a0.792,0.792,0,0,0,.85-0.707,0.812,0.812,0,0,0-.63-0.917,0.791,0.791,0,0,0-.85.708A0.847,0.847,0,0,0,1117.44,880.75Zm-1.26-10.791a0.8,0.8,0,0,0-.63-0.912,0.773,0.773,0,0,0-.85.71,0.792,0.792,0,0,0,.63.885A0.771,0.771,0,0,0,1116.18,869.959Zm-22.86-3.007a0.794,0.794,0,0,0-.61-0.873A0.8,0.8,0,1,0,1093.32,866.952Zm15.8,5.327a0.8,0.8,0,0,0-.65-0.909,0.772,0.772,0,0,0-.81.705,0.815,0.815,0,0,0,.62.911A0.8,0.8,0,0,0,1109.12,872.279Zm-1.23,3.853a0.739,0.739,0,0,0,.82-0.675,0.774,0.774,0,0,0-.63-0.911,0.8,0.8,0,0,0-.81.7A0.776,0.776,0,0,0,1107.89,876.132Zm4.11-.221a0.773,0.773,0,0,0-.59-0.913,0.821,0.821,0,0,0-.23,1.619A0.766,0.766,0,0,0,1112,875.911Zm-5.39-10.459a0.8,0.8,0,0,0-.62-0.907,0.772,0.772,0,0,0-.81.738,0.743,0.743,0,0,0,.62.879A0.771,0.771,0,0,0,1106.61,865.452Zm2.9,3.62a0.759,0.759,0,0,0-.62-0.882,0.72,0.72,0,0,0-.81.707,0.732,0.732,0,0,0,.62.882A0.767,0.767,0,0,0,1109.51,869.072Zm-3.28-.416a0.811,0.811,0,0,0-.62-0.907,0.82,0.82,0,0,0-.22,1.616A0.813,0.813,0,0,0,1106.23,868.656Zm-31.22-19.747a0.691,0.691,0,1,0,.76-0.705A0.757,0.757,0,0,0,1075.01,848.909Zm0.34-3.132a0.754,0.754,0,0,0,.57.862,0.721,0.721,0,0,0,.76-0.707A0.678,0.678,0,1,0,1075.35,845.777Zm1.7,19.857a0.733,0.733,0,0,0,.73-0.7,0.786,0.786,0,0,0-.57-0.865,0.729,0.729,0,0,0-.76.7A0.78,0.78,0,0,0,1077.05,865.634Zm41.66,11.189a0.777,0.777,0,0,0-.65-0.886,0.734,0.734,0,0,0-.82.708,0.781,0.781,0,0,0,.62.887A0.761,0.761,0,0,0,1118.71,876.823Zm-44.01-24.786a0.766,0.766,0,0,0,.59.861,0.714,0.714,0,0,0,.73-0.729A0.675,0.675,0,1,0,1074.7,852.037Zm4.06,3.6a0.723,0.723,0,0,0-.6-0.836,0.713,0.713,0,0,0-.73.672,0.733,0.733,0,0,0,.57.865A0.715,0.715,0,0,0,1078.76,855.633Zm-0.66,6.234a0.76,0.76,0,0,0-.57-0.866,0.69,0.69,0,0,0-.76.671,0.746,0.746,0,0,0,.6.864A0.7,0.7,0,0,0,1078.1,861.867Zm0.35-3.1a0.752,0.752,0,0,0-.6-0.865,0.727,0.727,0,0,0-.76.672,0.745,0.745,0,0,0,.6.864A0.711,0.711,0,0,0,1078.45,858.765Zm-2.13-22.422a0.76,0.76,0,0,0,.6.859,0.741,0.741,0,0,0,.73-0.738,0.7,0.7,0,0,0-.57-0.86A0.763,0.763,0,0,0,1076.32,836.343Zm1.57-8.708a0.8,0.8,0,0,0,.78-0.745,0.766,0.766,0,0,0-.6-0.858,0.781,0.781,0,0,0-.78.747A0.732,0.732,0,0,0,1077.89,827.635Zm-2.37-13.945a0.735,0.735,0,0,0,.6.853,0.794,0.794,0,0,0,.76-0.778,0.734,0.734,0,0,0-.6-0.853A0.787,0.787,0,0,0,1075.52,813.69Zm1.46,16.288a0.733,0.733,0,0,0,.6.856,0.767,0.767,0,0,0,.75-0.741,0.734,0.734,0,0,0-.6-0.858A0.752,0.752,0,0,0,1076.98,829.978Zm3.11,36.037a0.729,0.729,0,0,0,.76-0.67,0.757,0.757,0,0,0-.6-0.868,0.723,0.723,0,0,0-.77.671A0.755,0.755,0,0,0,1080.09,866.015Zm-4.11-26.5a0.76,0.76,0,0,0,.6.858A0.812,0.812,0,1,0,1075.98,839.51Zm-0.31,3.134a0.743,0.743,0,0,0,.57.861,0.753,0.753,0,0,0,.76-0.708,0.727,0.727,0,0,0-.57-0.86A0.74,0.74,0,0,0,1075.67,842.644Zm0.97-9.468a0.743,0.743,0,0,0,.6.858,0.769,0.769,0,0,0,.75-0.741,0.727,0.727,0,0,0-.6-0.857A0.749,0.749,0,0,0,1076.64,833.176Zm10.73,29.842a0.773,0.773,0,0,0-.61-0.87,0.73,0.73,0,0,0-.76.7,0.766,0.766,0,0,0,.6.869A0.747,0.747,0,0,0,1087.37,863.018Zm1.66,7.342a0.715,0.715,0,0,0,.76-0.7,0.757,0.757,0,0,0-.58-0.873A0.8,0.8,0,0,0,1089.03,870.36Zm-1.31-10.488a0.789,0.789,0,0,0-.61-0.869,0.735,0.735,0,0,0-.76.7,0.794,0.794,0,0,0,.61.9A0.745,0.745,0,0,0,1087.72,859.872Zm-1.47,6.962a0.726,0.726,0,0,0,.77-0.7,0.75,0.75,0,0,0-.58-0.843,0.691,0.691,0,0,0-.76.673A0.706,0.706,0,0,0,1086.25,866.834Zm5.91,3.943a0.718,0.718,0,0,0,.8-0.674,0.747,0.747,0,0,0-.6-0.873,0.706,0.706,0,0,0-.78.673A0.743,0.743,0,0,0,1092.16,870.777Zm-1.28-10.507a0.756,0.756,0,0,0-.61-0.87,0.729,0.729,0,0,0-.77.7,0.718,0.718,0,0,0,.58.872A0.768,0.768,0,0,0,1090.88,860.27Zm-0.73,6.272a0.772,0.772,0,0,0-.58-0.872,0.793,0.793,0,0,0-.8.7,0.759,0.759,0,0,0,.61.872A0.721,0.721,0,0,0,1090.15,866.542Zm0.35-3.12a0.74,0.74,0,0,0-.58-0.872,0.748,0.748,0,0,0-.8.676,0.8,0.8,0,0,0,.61.9A0.74,0.74,0,0,0,1090.5,863.422Zm-6.25-.807a0.724,0.724,0,0,0-.57-0.841,0.7,0.7,0,0,0-.77.673A0.684,0.684,0,1,0,1084.25,862.615Zm-1.09,3.808a0.7,0.7,0,0,0,.77-0.671,0.8,0.8,0,0,0-.61-0.895,0.736,0.736,0,0,0-.76.7A0.774,0.774,0,0,0,1083.16,866.423ZM1081.84,856a0.739,0.739,0,0,0-.6-0.837,0.7,0.7,0,0,0-.74.7,0.721,0.721,0,0,0,.57.838A0.729,0.729,0,0,0,1081.84,856Zm-0.32,3.136a0.753,0.753,0,0,0-.6-0.865,0.728,0.728,0,0,0-.77.7,0.786,0.786,0,0,0,.61.865A0.758,0.758,0,0,0,1081.52,859.132Zm3.08,0.371a0.7,0.7,0,1,0-.77.7A0.749,0.749,0,0,0,1084.6,859.5Zm0.35-3.143a0.786,0.786,0,0,0-.61-0.867,0.747,0.747,0,0,0-.76.731,0.786,0.786,0,0,0,.61.867A0.774,0.774,0,0,0,1084.95,856.36Zm-3.78,5.88a0.751,0.751,0,0,0-.58-0.867,0.729,0.729,0,0,0-.75.7,0.753,0.753,0,0,0,.57.868A0.744,0.744,0,0,0,1081.17,862.24Zm15.33,5.124a0.8,0.8,0,0,0-.61-0.875,0.8,0.8,0,0,0-.2,1.578A0.718,0.718,0,0,0,1096.5,867.364Zm20.86-67.508a0.926,0.926,0,0,0,.87-0.837,0.771,0.771,0,0,0-.66-0.923,0.952,0.952,0,0,0-.87.838A0.784,0.784,0,0,0,1117.36,799.856Zm2.63,7.076a0.878,0.878,0,0,0,.85-0.833,0.758,0.758,0,0,0-.63-0.9,0.883,0.883,0,0,0-.88.836A0.755,0.755,0,0,0,1119.99,806.932Zm10.57,0.553a0.943,0.943,0,0,0,.91-0.842,0.786,0.786,0,0,0-.67-0.932,0.892,0.892,0,0,0-.88.84A0.757,0.757,0,0,0,1130.56,807.485Zm-17.09-4.344a0.9,0.9,0,0,0,.87-0.834,0.759,0.759,0,0,0-.65-0.894,0.9,0.9,0,0,0-.84.833A0.7,0.7,0,0,0,1113.47,803.141Zm5.66,70.46a0.781,0.781,0,0,0-.62-0.888,0.773,0.773,0,0,0-.85.711,0.738,0.738,0,0,0,.62.888A0.762,0.762,0,0,0,1119.13,873.6Zm-2.64-66.851a0.907,0.907,0,0,0,.88-0.834,0.755,0.755,0,0,0-.66-0.9,0.9,0.9,0,0,0-.84.832A0.712,0.712,0,0,0,1116.49,806.75Zm-2.59-7.037a0.943,0.943,0,0,0,.88-0.836,0.742,0.742,0,0,0-.66-0.893,0.917,0.917,0,0,0-.88.808A0.79,0.79,0,0,0,1113.9,799.713Zm3.03,3.606a0.951,0.951,0,0,0,.87-0.836,0.745,0.745,0,0,0-.66-0.895,0.9,0.9,0,0,0-.87.807A0.78,0.78,0,0,0,1116.93,803.319Zm10.53,0.473a0.892,0.892,0,0,0,.88-0.84,0.714,0.714,0,0,0-.66-0.9,0.914,0.914,0,0,0-.89.841A0.776,0.776,0,0,0,1127.46,803.792Zm0.46-3.512a0.916,0.916,0,0,0,.89-0.842,0.73,0.73,0,0,0-.67-0.9,0.9,0.9,0,0,0-.89.842A0.736,0.736,0,0,0,1127.92,800.28Zm-0.93,7.022a0.935,0.935,0,0,0,.91-0.84,0.758,0.758,0,0,0-.66-0.929,0.946,0.946,0,0,0-.89.837A0.782,0.782,0,0,0,1126.99,807.3Zm-3.52-.184a0.907,0.907,0,0,0,.88-0.836,0.77,0.77,0,0,0-.67-0.928,0.967,0.967,0,0,0-.88.836A0.8,0.8,0,0,0,1123.47,807.118Zm-2.61-7.12a0.946,0.946,0,0,0,.88-0.839,0.792,0.792,0,0,0-.67-0.925,0.947,0.947,0,0,0-.88.839A0.767,0.767,0,0,0,1120.86,800Zm3.04,3.619a0.932,0.932,0,0,0,.91-0.84,0.77,0.77,0,0,0-.66-0.9,0.908,0.908,0,0,0-.88.839A0.731,0.731,0,0,0,1123.9,803.617Zm0.47-3.477a0.913,0.913,0,0,0,.88-0.841,0.728,0.728,0,0,0-.66-0.9,0.924,0.924,0,0,0-.89.841A0.775,0.775,0,0,0,1124.37,800.14Zm-11.3,6.453a0.915,0.915,0,0,0,.84-0.831,0.728,0.728,0,0,0-.65-0.894,0.889,0.889,0,0,0-.84.83A0.761,0.761,0,0,0,1113.07,806.593Zm-9.37-7.313a0.873,0.873,0,0,0,.84-0.829,0.737,0.737,0,0,0-.62-0.891,0.876,0.876,0,0,0-.84.831A0.735,0.735,0,0,0,1103.7,799.28Zm2.57,6.97a0.868,0.868,0,0,0,.83-0.826,0.722,0.722,0,0,0-.62-0.894,0.85,0.85,0,0,0-.84.827A0.753,0.753,0,0,0,1106.27,806.25Zm-2.96-3.563a0.868,0.868,0,0,0,.83-0.826,0.745,0.745,0,0,0-.62-0.892,0.871,0.871,0,0,0-.83.828A0.738,0.738,0,0,0,1103.31,802.687Zm1.93,6.049a0.741,0.741,0,0,0,.62.894,0.842,0.842,0,0,0,.84-0.8,0.726,0.726,0,0,0-.62-0.893A0.849,0.849,0,0,0,1105.24,808.736Zm-2.33-2.672a0.842,0.842,0,0,0,.83-0.8,0.732,0.732,0,0,0-.62-0.892,0.847,0.847,0,0,0-.83.826A0.725,0.725,0,0,0,1102.91,806.064Zm-2.55-6.929a0.851,0.851,0,0,0,.83-0.828,0.709,0.709,0,0,0-.62-0.861,0.866,0.866,0,0,0-.83.8A0.749,0.749,0,0,0,1100.36,799.135Zm2.18,10.3a0.832,0.832,0,0,0,.8-0.794,0.747,0.747,0,0,0-.62-0.892,0.864,0.864,0,0,0-.83.824A0.724,0.724,0,0,0,1102.54,809.436Zm6.07-.508a0.741,0.741,0,0,0,.62.894,0.893,0.893,0,0,0,.87-0.827,0.774,0.774,0,0,0-.66-0.894A0.869,0.869,0,0,0,1108.61,808.928Zm1.45-5.938a0.852,0.852,0,0,0,.84-0.831,0.728,0.728,0,0,0-.62-0.894,0.925,0.925,0,0,0-.87.834A0.75,0.75,0,0,0,1110.06,802.99Zm-3.4-.15a0.852,0.852,0,0,0,.84-0.83,0.732,0.732,0,0,0-.62-0.892,0.874,0.874,0,0,0-.84.829A0.738,0.738,0,0,0,1106.66,802.84Zm3.8-3.27a0.95,0.95,0,0,0,.87-0.834,0.74,0.74,0,0,0-.65-0.891,0.855,0.855,0,0,0-.84.832A0.739,0.739,0,0,0,1110.46,799.57Zm-0.8,6.837a0.889,0.889,0,0,0,.84-0.829,0.772,0.772,0,0,0-.66-0.892,0.939,0.939,0,0,0-.83.828A0.751,0.751,0,0,0,1109.66,806.407Zm-2.57-6.983a0.943,0.943,0,0,0,.84-0.831,0.753,0.753,0,0,0-.65-0.889,0.892,0.892,0,0,0-.84.831A0.742,0.742,0,0,0,1107.09,799.424Zm4.92,9.693a0.737,0.737,0,0,0,.63.9,0.893,0.893,0,0,0,.87-0.829,0.769,0.769,0,0,0-.65-0.9A0.865,0.865,0,0,0,1112.01,809.117Zm8.41-5.65a0.9,0.9,0,0,0,.88-0.838,0.767,0.767,0,0,0-.66-0.9,0.891,0.891,0,0,0-.88.837A0.741,0.741,0,0,0,1120.42,803.467ZM1126.84,868a0.818,0.818,0,0,0-.63-0.918,0.846,0.846,0,0,0-.89.717A0.769,0.769,0,1,0,1126.84,868Zm0.42-3.3a0.777,0.777,0,0,0-.63-0.917,0.8,0.8,0,0,0-.86.747,0.763,0.763,0,0,0,.63.917A0.8,0.8,0,0,0,1127.26,864.7Zm-0.87,6.567a0.755,0.755,0,1,0-1.49-.175,0.739,0.739,0,0,0,.63.89A0.764,0.764,0,0,0,1126.39,871.27Zm1.33-9.841a0.8,0.8,0,0,0-.64-0.945,0.858,0.858,0,0,0-.89.751A0.773,0.773,0,1,0,1127.72,861.429Zm-1.76,13.105a0.769,0.769,0,1,0-1.52-.2,0.822,0.822,0,0,0,.66.917A0.806,0.806,0,0,0,1125.96,874.534Zm2.66-19.746a0.777,0.777,0,0,0-.67-0.914,0.842,0.842,0,0,0-.19,1.667A0.856,0.856,0,0,0,1128.62,854.788Zm-0.45,3.336a0.8,0.8,0,0,0-.64-0.944,0.859,0.859,0,0,0-.89.753,0.8,0.8,0,0,0,.67.914A0.829,0.829,0,0,0,1128.17,858.124Zm-2.66,19.645a0.754,0.754,0,0,0-.63-0.891,0.811,0.811,0,0,0-.23,1.6A0.76,0.76,0,0,0,1125.51,877.769Zm-4.69,3.445a0.77,0.77,0,0,0,.86-0.679,0.794,0.794,0,0,0-.66-0.918,0.739,0.739,0,0,0-.82.708A0.761,0.761,0,0,0,1120.82,881.214Zm10.2-77.245a0.971,0.971,0,0,0,.92-0.873,0.758,0.758,0,0,0-.67-0.9,0.977,0.977,0,0,0-.92.844A0.8,0.8,0,0,0,1131.02,803.969Zm-1.5,44.138a0.788,0.788,0,0,0-.67-0.941,0.85,0.85,0,0,0-.86.785,0.778,0.778,0,0,0,.64.914A0.87,0.87,0,0,0,1129.52,848.107Zm-9.96,22.269a0.794,0.794,0,0,0-.63-0.887,0.756,0.756,0,0,0-.85.713,0.768,0.768,0,0,0,.63.914A0.834,0.834,0,0,0,1119.56,870.376Zm2.97,3.706a0.809,0.809,0,0,0-.63-0.917,0.784,0.784,0,0,0-.86.711A0.755,0.755,0,1,0,1122.53,874.082Zm1.69,7.627a0.768,0.768,0,0,0,.86-0.709,0.786,0.786,0,0,0-.63-0.892,0.739,0.739,0,0,0-.86.681A0.805,0.805,0,0,0,1124.22,881.709Zm-1.27-10.886a0.778,0.778,0,0,0-.63-0.917,0.813,0.813,0,0,0-.85.742A0.748,0.748,0,1,0,1122.95,870.823Zm-0.84,6.487a0.822,0.822,0,0,0-.66-0.917,0.761,0.761,0,0,0-.83.709,0.773,0.773,0,0,0,.63.917A0.8,0.8,0,0,0,1122.11,877.31Zm11.81-67.9a0.926,0.926,0,0,0-.9.839,0.754,0.754,0,0,0,.68.9,0.9,0.9,0,0,0,.89-0.838A0.762,0.762,0,0,0,1133.92,809.413Zm1.18-8.825a0.961,0.961,0,0,0,.93-0.847,0.778,0.778,0,0,0-.68-0.932,0.972,0.972,0,0,0-.92.848A0.771,0.771,0,0,0,1135.1,800.588Zm-5.32,39.856a0.841,0.841,0,0,0-.89.763,0.761,0.761,0,0,0,.66.912,0.816,0.816,0,0,0,.86-0.761A0.743,0.743,0,0,0,1129.78,840.444Zm3.22-24.029a0.927,0.927,0,0,0-.92.807,0.805,0.805,0,0,0,.67.936,0.9,0.9,0,0,0,.9-0.835A0.734,0.734,0,0,0,1133,816.415Zm-1.51-15.966a0.946,0.946,0,0,0,.89-0.872,0.711,0.711,0,0,0-.64-0.9,0.926,0.926,0,0,0-.92.846A0.79,0.79,0,0,0,1131.49,800.449Zm2.68,7.216a0.954,0.954,0,0,0,.89-0.84,0.762,0.762,0,0,0-.68-0.934,0.913,0.913,0,0,0-.89.842A0.779,0.779,0,0,0,1134.17,807.665Zm0.47-3.522a1.015,1.015,0,0,0,.92-0.874,0.771,0.771,0,0,0-.71-0.9,0.916,0.916,0,0,0-.89.843A0.779,0.779,0,0,0,1134.64,804.143Zm-1.2,8.759a0.922,0.922,0,0,0-.89.837,0.783,0.783,0,0,0,.68.934,0.9,0.9,0,0,0,.89-0.836A0.783,0.783,0,0,0,1133.44,812.9Zm-2.74,20.725a0.872,0.872,0,0,0-.89.8,0.747,0.747,0,0,0,.63.912,0.884,0.884,0,0,0,.9-0.767A0.772,0.772,0,0,0,1130.7,833.627Zm-0.48,3.411a0.867,0.867,0,0,0-.89.793,0.772,0.772,0,0,0,.67.911,0.867,0.867,0,0,0,.89-0.793A0.792,0.792,0,0,0,1130.22,837.038Zm0.92-6.824a0.9,0.9,0,0,0-.89.8,0.756,0.756,0,0,0,.67.91,0.89,0.89,0,0,0,.89-0.8A0.79,0.79,0,0,0,1131.14,830.214Zm0.92-6.893a0.925,0.925,0,0,0-.89.831,0.76,0.76,0,0,0,.67.907,0.9,0.9,0,0,0,.89-0.8A0.781,0.781,0,0,0,1132.06,823.321Zm-0.45,3.448a0.92,0.92,0,0,0-.92.8,0.808,0.808,0,0,0,.67.937,0.912,0.912,0,0,0,.9-0.8A0.77,0.77,0,0,0,1131.61,826.769Zm0.92-6.9a0.931,0.931,0,0,0-.92.8,0.8,0.8,0,0,0,.67.936,0.931,0.931,0,0,0,.92-0.833A0.779,0.779,0,0,0,1132.53,819.87Z" transform="translate(-1065.53 -792.594)"/>
  <path class="cls-2" d="M1139,797l-8,98,12-4,9-92Z" transform="translate(-1065.53 -792.594)"/>
  <path class="cls-1" d="M1151,814.878l-13.17-1.887v2.119l11.9,1.63Zm-2.12,20.191L1135.52,834v2.134l12.07,0.889Zm-1.08,20.478-13.44-.226v2.141l12.15,0.127Zm-2.16,20.663-13.63.633V879l12.31-.649Z" transform="translate(-1065.53 -792.594)"/>
  <path class="cls-3" d="M1092.75,794.015l-9.68,87.4,26.49,8.127,9.46-94.561Z" transform="translate(-1065.53 -792.594)"/>
  <path class="cls-3" d="M1135.2,828.261l-64.29-8-1.89,31.394,63.61,15.14Z" transform="translate(-1065.53 -792.594)"/>
  <path class="cls-4" d="M1091.76,803.041c4.4,0.39,7.97,4.692,7.92,9.557-0.06,4.815-3.65,8.254-7.97,7.734-4.25-.511-7.67-4.686-7.7-9.373C1083.99,806.224,1087.43,802.657,1091.76,803.041Zm-7.69,19.155,1.26,0.158,0.19,47.508-1.19-.255Zm3.79,0.475,1.27,0.16v47.8l-1.21-.258Zm3.84,0.482,1.29,0.162-0.2,48.1-1.23-.261Zm3.89,0.489,1.32,0.165-0.42,48.4-1.24-.265Zm3.96,0.5,1.33,0.167-0.63,48.7-1.26-.269Zm11.37,1.823,17.08,2.155-27.75,44.893-14.73-3.147Z" transform="translate(-1065.53 -792.594)"/>
</svg>
