<svg xmlns="http://www.w3.org/2000/svg" viewBox="0 0 79.969 108">
  <defs>
    <style>
      .cls-1 {
        fill: #155196;
        fill-rule: evenodd;
      }
    </style>
  </defs>
  <path class="cls-1" d="M752.443,786.063L690.165,783l-6.081,45.626L681.1,832.61l-0.04.242c-0.071.436-1.746,10.73-2,13.99a3.546,3.546,0,0,0,0,1.163,3.6,3.6,0,0,0,2.9,2.973l-1.942,24.275,4.361,6.543,5.281,2.115,0.237,0.062c19.305,2.621,48.5,6.639,49.8,6.965a1.542,1.542,0,0,0,.444.061h0c2.258,0,7.233-5.631,7.712-6.56,0.542-1.055,7.181-57.02,11.089-90.286l0.052-.435Zm-60.541-.978,57.957,2.852-2.889,24.088-57.934-3-0.374.375ZM686,829.406l2.578-19.344,57.332,3.824c-0.2,5.172-.841,19.476-1.931,21.126-1.141,1.722-2.514,4.137-2.9,4.81l-58.2-5.728c0.045-.281.083-0.524,0.108-0.679ZM739.979,851l-58.6-6.841c0.387-2.921.985-6.8,1.348-9.081l58.252,5.928Zm-58.947-3.321a1.789,1.789,0,0,1,.01-0.6c0.021-.267.054-0.6,0.093-0.954l59.842,6.76V855l-56.862-5.885,0.025-.3-1.258.206A1.612,1.612,0,0,1,681.032,847.681Zm4.667,32.491-3.631-5.45,1.907-23.853L684.041,851l4.051,0.426,0.944,24.559h1V851.633l3.034,0.319,0.962,24.69,1,0.109V852.159l3.052,0.322,0.943,24.816,1,0.109V852.685l4.039,0.425,0.955,24.842,1,0.108V853.317l4.025,0.423,0.969,24.866,1,0.109V853.947l4.009,0.423L717,879.151l1,0.109V854.579L722.038,855l0.96,24.8,1,0.109v-24.7l4.055,0.427,0.939,24.823,1,0.109V855.841l4.044,0.425,0.95,24.85,1,0.108V856.472L740.977,857l3,1-2,23.985-4.994,6,0.6,0.6c-9.721-1.462-42.509-5.919-47.287-6.568Zm60.34,3.428c-0.652,1.079-4.71,5.192-5.874,5.4-0.263-.057-0.936-0.169-1.927-0.319l5.736-6.7,2-24.985-2-1-1.932-3.865,0.933-12.125-0.213-.022c1.061-1.429,2.857-4.066,3.209-5.975,0.433-2.356,1.6-16.163,1.916-19.993l0.082,0,3.8-25.674,5.144,6C754.055,818.668,746.73,880.394,746.039,883.6Zm-55.462-51.754,48.863,4.243a2.515,2.515,0,0,0,.26.013,2.679,2.679,0,0,0,2.64-2.238l2.1-14.843c0.007-.061.013-0.124,0.016-0.18a2.411,2.411,0,0,0-2.275-2.537l-48.852-3.246a2.686,2.686,0,0,0-2.907,2.222l-2.1,13.849a1.69,1.69,0,0,0-.016.18A2.414,2.414,0,0,0,690.577,831.846Zm0.836-16.4a1.679,1.679,0,0,1,1.656-1.4c0.055,0,.11,0,0.183.01l48.872,3.248a1.411,1.411,0,0,1,1.337,1.493l-2.107,14.913a1.674,1.674,0,0,1-1.824,1.386l-48.883-4.246a1.413,1.413,0,0,1-1.338-1.493Zm22.569,29.85a1.187,1.187,0,0,0,1.172,1.034l0.081,0,20.723,2.082a1.392,1.392,0,0,0,1.564-.688l0.947-4.126,0.017-.118-0.012-.087a1.184,1.184,0,0,0-1.172-1.033l-0.084,0-20.72-1.809a1.418,1.418,0,0,0-1.564.693l-0.945,3.843-0.019.12Zm1.857-3.621a0.4,0.4,0,0,1,.326-0.164l21,1.848,0.079,0,0.053-.008a0.179,0.179,0,0,1,.169.123l-0.857,3.81a0.4,0.4,0,0,1-.319.163l-21-2.125-0.082,0-0.056.007a0.179,0.179,0,0,1-.168-0.119Zm28.394-36.137-8.417-.346a0.9,0.9,0,0,0-.852.835l-0.351,3.015v0a0.871,0.871,0,0,0,.758,1.03l8.391,0.569,0.04,0a0.9,0.9,0,0,0,.852-0.834l0.352-3.232a0.825,0.825,0,0,0-.117-0.647A0.95,0.95,0,0,0,744.233,805.533Zm-0.566,4.155-8.065-.54,0.354-3.016,8.06,0.329Zm-16.7-.192,6.428,0.47,0.084-.022a0.851,0.851,0,0,0,.668-0.852l0.33-2.694a0.837,0.837,0,0,0-.487-0.994L727.5,805l-0.082.021a0.852,0.852,0,0,0-.667.857l-0.277,2.622A0.837,0.837,0,0,0,726.966,809.5Zm0.784-3.564,5.746,0.324-0.349,2.776-5.692-.386ZM695.2,804.885h0l27,1.857q0.084,0.006.165,0.006a2.629,2.629,0,0,0,2.6-2.216l1.7-12.852c0-.076.008-0.152,0.008-0.228a2.3,2.3,0,0,0-2.295-2.257h0l-27.3-1.129a2.634,2.634,0,0,0-2.762,2.219L692.928,802.4c0,0.077-.009.155-0.008,0.232A2.3,2.3,0,0,0,695.2,804.885Zm-1.276-2.387,1.384-12.072a1.629,1.629,0,0,1,1.61-1.366l27.469,1.134a1.3,1.3,0,0,1,1.29,1.273c0,0.045,0,.09,0,0.108l-1.7,12.808a1.629,1.629,0,0,1-1.61,1.365l-27.16-1.862a1.294,1.294,0,0,1-1.288-1.268A0.849,0.849,0,0,1,693.923,802.5Zm45.555,1.032a7,7,0,1,0-6.992-7A7,7,0,0,0,739.478,803.53Zm0-12.992a6,6,0,1,1-5.993,6A6,6,0,0,1,739.478,790.538Zm0,10.993a5,5,0,1,0-4.994-5A5,5,0,0,0,739.478,801.531Zm0-8.994a4,4,0,1,1-4,4A4,4,0,0,1,739.478,792.537Zm0.78,28.149-29.4-1.97,0.063-.932,29.4,1.97Zm-0.511,2.761-29.4-1.971,0.063-.932,29.4,1.97Zm-0.545,2.76-29.4-1.97,0.063-.933,29.4,1.971Zm-0.525,2.76-29.4-1.97,0.063-.933,29.4,1.971Zm-17.008-34.151-21.49-1.441,0.046-.682,21.489,1.44Zm-0.373,2.017-21.489-1.44,0.046-.682,21.487,1.44Zm-0.4,2.017-21.49-1.44,0.046-.682,21.49,1.441Zm-0.383,2.017-21.49-1.44,0.047-.682,21.487,1.44Z" transform="translate(-679.031 -783)"/>
</svg>
