<svg xmlns="http://www.w3.org/2000/svg" width="8.12" height="9.12" viewBox="0 0 8.12 9.12">
  <path style="fill: #2e539e;stroke: #1c5699;stroke-width: 0.73px;fill-rule: evenodd;" d="M7393.65,2384.32l3.68-3.95a0.2,0.2,0,0,1,.31,0,0.235,0.235,0,0,1,0,.33l-3.52,3.79,3.52,3.79a0.235,0.235,0,0,1,0,.33,0.193,0.193,0,0,1-.15.07,0.2,0.2,0,0,1-.16-0.07l-3.68-3.95A0.271,0.271,0,0,1,7393.65,2384.32Z" transform="translate(-7389.94 -2379.94)"/>
  <path style="fill: #2e539e;stroke: #1c5699;stroke-width: 0.73px;fill-rule: evenodd;" d="M7390.37,2384.32l3.68-3.95a0.2,0.2,0,0,1,.31,0,0.235,0.235,0,0,1,0,.33l-3.52,3.79,3.52,3.79a0.235,0.235,0,0,1,0,.33,0.2,0.2,0,0,1-.16.07,0.193,0.193,0,0,1-.15-0.07l-3.68-3.95A0.248,0.248,0,0,1,7390.37,2384.32Z" transform="translate(-7389.94 -2379.94)"/>
</svg>
